<?xml version="1.0" standalone="no"?>
<!DOCTYPE svg PUBLIC "-//W3C//DTD SVG 1.1//EN" "http://www.w3.org/Graphics/SVG/1.1/DTD/svg11.dtd" >
<svg xmlns="http://www.w3.org/2000/svg" xmlns:xlink="http://www.w3.org/1999/xlink" version="1.1">
<metadata>
Created by FontForge 20170731 at Mon Oct 23 10:34:20 2023
 By Aleksey,,,
Copyright (c) 2017 Marc Rouault / W+K. All rights reserved.
</metadata>
<defs>
<font id="Formula1-Display-Wide" horiz-adv-x="3297" >
  <font-face 
    font-family="Formula1 Display Wide"
    font-weight="500"
    font-stretch="expanded"
    units-per-em="2048"
    panose-1="2 0 0 0 0 0 0 0 0 0"
    ascent="1741"
    descent="-307"
    x-height="1229"
    cap-height="1536"
    bbox="-492 -406 5609 1931"
    underline-thickness="0"
    underline-position="0"
    unicode-range="U+0020-F6C3"
  />
<missing-glyph horiz-adv-x="0" 
 />
    <glyph glyph-name=".notdef" horiz-adv-x="0" 
 />
    <glyph glyph-name=".null" horiz-adv-x="0" 
 />
    <glyph glyph-name="nonmarkingreturn" horiz-adv-x="682" 
 />
    <glyph glyph-name="space" unicode=" " horiz-adv-x="860" 
 />
    <glyph glyph-name="exclam" unicode="!" horiz-adv-x="686" 
d="M80 1536h524l-57 -963h-410zM102 0v420h564v-420h-564z" />
    <glyph glyph-name="quotedbl" unicode="&#x22;" horiz-adv-x="1167" 
d="M410 963h-308v573h430zM963 963h-308v573h430z" />
    <glyph glyph-name="numbersign" unicode="#" horiz-adv-x="2914" 
d="M846 1577h563l-90 -348h512l90 348h563l-90 -348h418v-213h-473l-113 -436h457v-211h-512l-96 -369h-564l97 369h-512l-97 -369h-563l96 369h-430v211h486l112 436h-469v213h525zM1151 580h512l113 436h-512z" />
    <glyph glyph-name="dollar" unicode="$" horiz-adv-x="2949" 
d="M150 0v205h1136v356h-510q-361 0 -517 123q-157 124 -157 358q0 260 191 377t545 117h448v205h379v-205h1120v-205h-1120v-342h573q329 0 469 -134t140 -345q0 -267 -188 -389q-187 -121 -566 -121h-428v-205h-379v205h-1136zM918 989h368v342h-362q-114 0 -170 -40
q-58 -41 -58 -132q0 -82 59 -126t163 -44zM2011 561h-346v-356h356q125 0 178 43q54 43 54 137q0 83 -57 129q-58 47 -185 47z" />
    <glyph glyph-name="percent" unicode="%" horiz-adv-x="3076" 
d="M205 1139v116q0 141 95 227q94 85 232 85h709q130 0 224 -85q96 -87 96 -227v-116q0 -141 -96 -229q-95 -87 -224 -87h-709q-138 0 -232 87q-95 87 -95 229zM2064 920h-387l768 616h410zM623 1247v-112q0 -53 22 -82q23 -31 74 -31h325q55 0 77 31t22 82v112q0 53 -22 88
q-21 33 -77 33h-325q-51 0 -74 -33q-22 -32 -22 -88zM1507 299v117q0 139 96 226q94 85 232 85h717q130 0 224 -85q95 -86 95 -226v-117q0 -141 -95 -228q-94 -87 -224 -87h-717q-137 0 -232 87q-96 88 -96 228zM973 616h387l-768 -616h-410zM1925 408v-113q0 -51 23 -82
t73 -31h334q55 0 77 31t22 82v113q0 53 -22 88q-20 32 -77 32h-334q-51 0 -73 -32q-23 -34 -23 -88z" />
    <glyph glyph-name="ampersand" unicode="&#x26;" horiz-adv-x="3203" 
d="M2433 0l-238 147q-110 -104 -264 -136q-151 -31 -424 -31h-927q-220 0 -328 99q-109 100 -109 324v129q0 178 104 277q102 98 306 98h412l-199 123q-91 56 -121 141q-31 87 -4 167q27 82 114 140q86 58 230 58h1829v-205h-1323q-49 0 -76 -20q-29 -21 -36 -51
q-8 -30 6 -65q13 -33 53 -58l663 -432l309 301h689l-594 -566l678 -440h-750zM1296 184q63 0 126 5q55 4 111 26q57 22 116 64q69 49 141 118l-494 305h-342q-88 0 -127 -30t-39 -113v-231q0 -74 31 -110q30 -34 98 -34h379z" />
    <glyph glyph-name="quotesingle" unicode="'" horiz-adv-x="614" 
d="M410 963h-308v573h430z" />
    <glyph glyph-name="parenleft" unicode="(" horiz-adv-x="1284" 
d="M246 12v1166q0 93 47 161t120 112q74 45 160 65q84 20 170 20h439v-195h-224q-76 0 -107 -35q-32 -37 -32 -130v-1164q0 -91 32 -129q31 -37 107 -37h224v-194h-439q-81 0 -170 21q-84 20 -160 66q-75 45 -120 111q-47 68 -47 162z" />
    <glyph glyph-name="parenright" unicode=")" horiz-adv-x="1284" 
d="M1038 12q0 -94 -47 -162q-45 -66 -120 -111q-76 -46 -160 -66q-88 -21 -170 -21h-439v194h224q76 0 107 37q32 38 32 129v1164q0 93 -32 130q-31 35 -107 35h-224v195h439q86 0 170 -20q86 -20 160 -65q73 -44 120 -112t47 -161v-1166z" />
    <glyph glyph-name="asterisk" unicode="*" horiz-adv-x="1542" 
d="M102 1092v155h336l-241 273h403l182 -240l183 240h381l-240 -273h334v-155h-336l242 -273h-381l-183 240l-182 -240h-403l241 273h-336z" />
    <glyph glyph-name="plus" unicode="+" horiz-adv-x="1896" 
d="M205 653v232h579v422h328v-422h580v-232h-580v-424h-328v424h-579z" />
    <glyph glyph-name="comma" unicode="," horiz-adv-x="761" 
d="M-31 -307q45 91 64 137q24 57 39 105q14 45 19 97q5 53 5 107v342h563v-360q0 -128 -53 -223q-48 -86 -133 -205h-504z" />
    <glyph glyph-name="hyphen" unicode="-" horiz-adv-x="1089" 
d="M61 492v266h967v-266h-967z" />
    <glyph glyph-name="period" unicode="." horiz-adv-x="768" 
d="M102 0v420h564v-420h-564z" />
    <glyph glyph-name="slash" unicode="/" horiz-adv-x="1556" 
d="M963 1536h573l-942 -1884h-574z" />
    <glyph glyph-name="zero" unicode="0" horiz-adv-x="3092" 
d="M1772 -27h-492q-338 0 -564 45q-224 45 -360 133q-132 86 -188 217q-55 129 -55 298v204q0 169 58 298t196 217q139 88 366 133q229 45 567 45h492q338 0 567 -45t367 -133q137 -87 195 -217q59 -132 59 -298v-204q0 -166 -62 -298q-61 -130 -202 -217
q-143 -88 -374 -133q-232 -45 -570 -45zM829 610q0 -192 62 -292t190 -128l734 1168h-576q-212 0 -311 -96t-99 -334v-318zM1833 178q230 0 330 97t100 335v318q0 188 -61 286q-61 99 -193 129l-731 -1165h555z" />
    <glyph glyph-name="one" unicode="1" horiz-adv-x="2445" 
d="M82 0v205h879v1059q0 32 -21 50q-20 17 -66 17h-792v205h1094q260 0 360 -61t100 -209v-1061h748v-205h-2302z" />
    <glyph glyph-name="two" unicode="2" horiz-adv-x="2826" 
d="M2691 205v-205h-2589v299q0 167 127 282q126 114 420 191l1288 328q64 16 109 44q43 27 43 79q0 61 -42 85q-40 23 -120 23h-1802v205h1900q383 0 541 -92t158 -268q0 -170 -126 -264q-125 -94 -384 -160l-1253 -318q-119 -29 -170 -61q-54 -34 -54 -84v-84h1954z" />
    <glyph glyph-name="three" unicode="3" horiz-adv-x="2699" 
d="M328 684v205h1265q167 0 227 42t60 107v150q0 72 -59 107q-60 36 -219 36h-1479v205h1335q585 0 861 -85q278 -86 278 -294v-47q0 -139 -118 -214t-368 -103q247 -30 368 -106q118 -75 118 -214v-94q0 -208 -278 -294q-276 -85 -861 -85h-1335v205h1479q159 0 219 36
q59 35 59 107v187q0 65 -60 107t-227 42h-1265z" />
    <glyph glyph-name="four" unicode="4" horiz-adv-x="3110" 
d="M410 303q-181 0 -259 56q-79 57 -79 149q0 58 48 113q47 54 138 112l971 608q103 65 196 109t187 68q92 23 198 34q110 11 234 11h41q299 0 436 -69t137 -216v-766h381v-209h-381v-303h-614v303h-1634zM774 512h1270v774q0 32 -21 49q-22 17 -73 17q-40 0 -73 -10
q-31 -9 -58 -29l-1065 -692q-32 -23 -44 -33q-14 -12 -14 -31q0 -21 18 -33t60 -12z" />
    <glyph glyph-name="five" unicode="5" horiz-adv-x="2750" 
d="M1556 899q537 0 821 -83q281 -82 281 -302v-108q0 -123 -74 -204q-76 -83 -217 -133q-145 -51 -349 -73q-213 -23 -470 -23h-1425v205h1462q237 0 328 47q90 47 90 137v148q0 42 -18 77q-17 33 -66 58t-129 37q-82 12 -209 12h-1458v842h2515v-205h-1890v-432h808z" />
    <glyph glyph-name="six" unicode="6" horiz-adv-x="2965" 
d="M1870 899q288 0 478 -19q195 -20 315 -66q122 -47 173 -122q54 -79 54 -188v-109q0 -115 -51 -198q-50 -81 -175 -131t-331 -71q-218 -22 -523 -22h-557q-318 0 -534 34q-221 35 -353 106q-135 73 -194 185t-59 269v297q0 163 55 288q56 126 191 211q137 85 366 129
q232 44 575 44h1543v-205h-1481q-183 0 -298 -23q-122 -24 -190 -73q-69 -50 -98 -122q-28 -71 -28 -171v-43h1122zM1294 178h545q125 0 202 13q80 14 124 37t62 60q18 36 18 81v139q0 86 -83 136t-319 50h-1095v-182q0 -199 120 -266q122 -68 426 -68z" />
    <glyph glyph-name="seven" unicode="7" horiz-adv-x="2686" 
d="M1270 0h-783l1319 1225q30 26 37 35q12 15 12 30q0 20 -18 31q-17 10 -61 10h-1702v205h2216q179 0 252 -44q71 -43 71 -140q0 -62 -46 -123q-48 -63 -128 -139z" />
    <glyph glyph-name="eight" unicode="8" horiz-adv-x="3002" 
d="M168 1186q0 92 41 163t138 117q102 49 262 72q172 25 411 25h944q255 0 432 -25q165 -23 267 -72q99 -47 136 -117t37 -163v-82q0 -60 -22 -108q-23 -51 -79 -92q-58 -43 -152 -75q-90 -31 -244 -53q317 -39 444 -124t127 -208v-86q0 -89 -36 -161q-35 -71 -131 -121
q-93 -49 -262 -76q-167 -27 -427 -27h-1106q-260 0 -427 27q-169 27 -262 76q-96 50 -131 121q-36 72 -36 161v86q0 123 127 208t445 124q-151 22 -242 53q-96 33 -153 75q-56 41 -79 92q-22 48 -22 108v82zM2161 1171q0 99 -54 144q-52 43 -188 43h-834q-136 0 -188 -43
q-53 -44 -53 -144v-114q0 -101 51 -144q50 -43 186 -43h842q136 0 186 43q52 44 52 144v114zM2234 506q0 91 -59 135q-60 45 -244 45h-860q-184 0 -244 -45q-59 -44 -59 -135v-154q0 -45 12 -78t48 -54q37 -21 100 -32q60 -10 164 -10h819q104 0 164 10q62 10 99 32
q36 21 48 54t12 78v154z" />
    <glyph glyph-name="nine" unicode="9" horiz-adv-x="2965" 
d="M1096 635q-289 0 -479 19q-195 20 -315 66q-122 47 -173 122q-53 77 -53 188v109q0 118 51 199q51 80 174 130q124 50 332 71q218 22 522 22h557q319 0 535 -34q221 -35 353 -106q134 -72 193 -185q60 -114 60 -269v-297q0 -163 -55 -288t-192 -211t-365 -129
q-232 -44 -576 -44h-1542v205h1481q183 0 298 23q121 24 189 73q69 50 98 122q29 73 29 171v43h-1122zM1122 840h1096v182q0 199 -121 266q-122 68 -426 68h-545q-119 0 -201 -14q-83 -14 -124 -36q-45 -24 -63 -60q-17 -34 -17 -81v-139q0 -86 83 -136t318 -50z" />
    <glyph glyph-name="colon" unicode=":" horiz-adv-x="768" 
d="M102 0v420h564v-420h-564z" />
    <glyph glyph-name="semicolon" unicode=";" horiz-adv-x="802" 
d="M10 -307q45 91 64 137q24 57 39 105q14 45 19 97q5 53 5 107v342h563v-360q0 -128 -53 -223q-48 -86 -133 -205h-504z" />
    <glyph glyph-name="less" unicode="&#x3c;" horiz-adv-x="1742" 
d="M1497 498v-250l-1128 319q-80 21 -142 69q-63 48 -63 134q0 87 59 131q62 46 146 70l1128 319v-250l-1026 -270z" />
    <glyph glyph-name="equal" unicode="=" horiz-adv-x="1724" 
d="M205 889v231h1315v-231h-1315zM205 410v231h1315v-231h-1315z" />
    <glyph glyph-name="greater" unicode="&#x3e;" horiz-adv-x="1742" 
d="M1374 567l-1128 -319v250l1026 272l-1026 270v250l1128 -319q84 -24 146 -70q59 -44 59 -131q0 -86 -63 -134q-62 -48 -142 -69z" />
    <glyph glyph-name="question" unicode="?" horiz-adv-x="2469" 
d="M1675 1032v103q0 110 -53 163q-54 54 -188 54h-1332v184h1457q215 0 378 -22q157 -21 250 -67q94 -46 137 -122t43 -184v-103q0 -110 -43 -189q-44 -80 -137 -127q-97 -49 -250 -70q-156 -21 -378 -21h-1211v184h1106q122 0 172 53q49 52 49 164zM389 0v420h563v-420
h-563z" />
    <glyph glyph-name="at" unicode="@" horiz-adv-x="3403" 
d="M199 1233v205h2119q457 0 679 -159t222 -425v-854h-2328q-345 0 -526 86t-181 295v205q0 73 31 146q30 71 104 124q75 54 199 85q126 32 311 32h1387v-778h369v690q0 177 -84 262q-84 86 -275 86h-2027zM1055 195h526v583h-516q-147 0 -194 -47q-46 -46 -46 -156v-174
q0 -106 51 -157q49 -49 179 -49z" />
    <glyph glyph-name="A" unicode="A" 
d="M2560 0l-260 414h-1311l-260 -414h-698l796 1202q111 168 300 264q191 97 520 97q331 0 525 -97q190 -95 296 -256l799 -1210h-707zM1532 1276l-402 -637h1027l-400 635q-21 33 -49 48t-63 15q-37 0 -64 -14q-29 -15 -49 -47z" />
    <glyph glyph-name="B" unicode="B" horiz-adv-x="3059" 
d="M1905 1536q281 0 473 -18q190 -18 309 -62q117 -43 168 -116q51 -72 51 -179v-71q0 -52 -18 -99t-68 -86q-49 -38 -136 -70q-90 -33 -220 -53q146 -24 242 -58q99 -35 156 -76q60 -43 83 -91q25 -52 25 -102v-76q0 -102 -53 -175q-54 -74 -173 -118q-122 -45 -322 -66
q-191 -20 -499 -20h-1739v1536h1721zM1968 1331h-1108v-463h1104q124 0 174 46q51 46 51 147v96q0 84 -51 129t-170 45zM2015 664h-1155v-459h1155q139 0 188 43q50 44 50 131v104q0 87 -50 134t-188 47z" />
    <glyph glyph-name="C" unicode="C" horiz-adv-x="2867" 
d="M2724 205v-205h-1409q-336 0 -570 41q-230 40 -371 123t-201 208q-60 126 -60 294v204q0 169 64 294t207 208t373 123q234 41 558 41h1409v-205h-1409q-159 0 -249 -20q-95 -21 -147 -70q-53 -50 -71 -133q-19 -89 -19 -211v-256q0 -122 19 -211q18 -83 73 -134
q55 -50 154 -71q96 -20 260 -20h1389z" />
    <glyph glyph-name="D" unicode="D" horiz-adv-x="3287" 
d="M1972 1536q324 0 558 -41q230 -40 373 -123t207 -208t64 -294v-204q0 -168 -60 -294q-60 -125 -201 -208t-371 -123q-234 -41 -570 -41h-1788v1536h1788zM1972 1331h-1112v-1126h1112q159 0 249 20q95 21 148 71q52 49 70 134q19 89 19 211v256q0 122 -19 211
q-18 84 -70 133q-51 49 -148 70q-90 20 -249 20z" />
    <glyph glyph-name="E" unicode="E" horiz-adv-x="2953" 
d="M184 0v1536h2626v-205h-1950v-448h1950v-205h-1950v-473h1950v-205h-2626z" />
    <glyph glyph-name="F" unicode="F" horiz-adv-x="2646" 
d="M184 0v1536h2401v-205h-1725v-457h1725v-204h-1725v-670h-676z" />
    <glyph glyph-name="G" unicode="G" horiz-adv-x="3223" 
d="M3029 1536v-205h-1565q-201 0 -323 -25q-125 -26 -194 -78q-69 -53 -93 -134q-25 -86 -25 -193v-266q0 -109 23 -193q22 -82 81 -135q60 -54 163 -79t266 -25h532q158 0 249 11q103 12 158 38q58 27 82 72q23 43 23 110v223h-909v205h1585v-391q0 -147 -63 -238
t-205 -144q-141 -52 -374 -72q-227 -19 -566 -19h-492q-343 0 -586 39q-244 39 -394 120q-151 82 -220 209q-69 128 -69 304v194q0 176 66 304t221 209q154 81 411 120t633 39h1585z" />
    <glyph glyph-name="H" unicode="H" horiz-adv-x="3256" 
d="M184 0v1536h676v-666h1536v666h676v-1536h-676v666h-1536v-666h-676z" />
    <glyph glyph-name="I" unicode="I" horiz-adv-x="1085" 
d="M205 0v1536h676v-1536h-676z" />
    <glyph glyph-name="J" unicode="J" horiz-adv-x="2283" 
d="M113 0v205h942q213 0 291 81q77 80 77 226v1024h676v-987q0 -131 -46 -233q-47 -104 -168 -173q-120 -68 -338 -106q-213 -37 -554 -37h-880z" />
    <glyph glyph-name="K" unicode="K" horiz-adv-x="3174" 
d="M184 0v1536h676v-664h189q75 0 145 10q65 9 123 31q60 23 123 60q72 43 145 92l703 471h854l-1135 -754l1147 -782h-862l-717 485q-89 61 -154 98q-62 35 -118 55q-59 21 -114 25q-65 5 -140 5h-189v-668h-676z" />
    <glyph glyph-name="L" unicode="L" horiz-adv-x="2543" 
d="M184 0v1536h676v-1331h1602v-205h-2278z" />
    <glyph glyph-name="M" unicode="M" horiz-adv-x="4259" 
d="M205 0v1235q0 160 182 244q183 84 559 84q315 0 519 -66t253 -209l348 -1009q7 -23 29 -42q21 -18 59 -18q42 0 60 20q20 22 27 44l350 1003q51 148 233 212q184 65 508 65q350 0 537 -83q186 -83 186 -245v-1235h-635v1229q0 59 -23 83q-24 25 -83 25q-58 0 -81 -23
q-24 -24 -42 -75l-365 -985q-50 -132 -231 -206q-183 -75 -465 -75q-277 0 -455 73q-176 72 -223 202l-369 993q-16 41 -40 68q-25 28 -85 28q-58 0 -88 -24t-30 -82v-1231h-635z" />
    <glyph glyph-name="N" unicode="N" horiz-adv-x="3522" 
d="M184 0v1229q0 163 189 248q190 86 559 86q300 0 531 -57q232 -57 337 -222l672 -1040q18 -28 46 -47t60 -19q55 0 70 26q14 24 14 83v1249h676v-1243q0 -167 -198 -243q-199 -77 -588 -77q-279 0 -488 62q-206 61 -301 209l-673 1036q-22 34 -58 57q-33 21 -74 21
q-61 0 -80 -28q-18 -27 -18 -89v-1241h-676z" />
    <glyph glyph-name="O" unicode="O" horiz-adv-x="3379" 
d="M2058 -27h-778q-338 0 -564 45q-224 45 -360 133q-132 86 -188 217q-55 129 -55 298v204q0 169 58 298t196 217q139 88 366 133q229 45 567 45h779q337 0 567 -45q229 -45 367 -133q137 -87 195 -217q59 -132 59 -298v-204q0 -166 -62 -298q-61 -129 -203 -217
q-144 -89 -373 -133q-233 -45 -571 -45zM2120 178q229 0 329 97q101 98 101 335v318q0 238 -99 334t-311 96h-901q-212 0 -311 -96t-99 -334v-318q0 -236 96 -335q94 -97 294 -97h901z" />
    <glyph glyph-name="P" unicode="P" horiz-adv-x="3004" 
d="M1937 604h-1077v-604h-676v1536h1749q295 0 479 -19q187 -19 300 -68q109 -47 155 -131q45 -82 45 -208v-94q0 -106 -45 -186q-44 -78 -154 -128q-108 -49 -299 -73q-197 -25 -477 -25zM860 1331v-532h1096q130 0 190 42t60 156v138q0 109 -60 153q-59 43 -190 43h-1096z
" />
    <glyph glyph-name="Q" unicode="Q" horiz-adv-x="3379" 
d="M2058 -27h-35v-198h-665v198h-78q-338 0 -564 45q-224 45 -360 133q-132 86 -188 217q-55 129 -55 298v204q0 169 58 298t196 217q139 88 366 133q229 45 567 45h779q337 0 567 -45q229 -45 367 -133q137 -87 195 -217q59 -132 59 -298v-204q0 -166 -62 -298
q-61 -129 -203 -217q-144 -89 -373 -133q-233 -45 -571 -45zM1358 430h665v-252h97q229 0 329 97q101 98 101 335v318q0 238 -99 334t-311 96h-901q-212 0 -311 -96t-99 -334v-318q0 -236 96 -335q94 -97 294 -97h139v252z" />
    <glyph glyph-name="R" unicode="R" horiz-adv-x="3100" 
d="M860 1331v-1331h-676v1536h1872q275 0 455 -19q185 -20 296 -66q113 -47 160 -125q48 -79 48 -195v-74q0 -92 -37 -160q-39 -72 -121 -117q-83 -46 -226 -70t-350 -24h-213q-23 0 -38 -9t-15 -30q0 -17 13 -30q11 -11 32 -23l969 -594h-899l-918 614q-71 47 -105 83
q-30 32 -30 73q0 46 39 68q38 22 109 22h739q222 0 299 39q76 39 76 160v76q0 53 -16 93q-15 37 -56 60q-41 22 -117 33q-73 10 -194 10h-1096z" />
    <glyph glyph-name="S" unicode="S" horiz-adv-x="2949" 
d="M150 0v205h1871q125 0 178 43q54 43 54 137q0 83 -57 129q-58 47 -185 47h-1235q-361 0 -517 123q-157 124 -157 358q0 260 191 377t545 117h1947v-205h-1861q-114 0 -170 -40q-58 -41 -58 -132q0 -82 59 -126t163 -44h1320q329 0 469 -134t140 -345q0 -267 -188 -389
q-187 -121 -566 -121h-1943z" />
    <glyph glyph-name="T" unicode="T" horiz-adv-x="2949" 
d="M1137 0v1331h-1106v205h2887v-205h-1106v-1331h-675z" />
    <glyph glyph-name="U" unicode="U" horiz-adv-x="3317" 
d="M1290 -16q-316 0 -526 31q-209 31 -341 96q-128 63 -183 160q-56 98 -56 227v1038h676v-1053q0 -153 80 -224t293 -71h852q213 0 293 71t80 224v1053h675v-1038q0 -130 -55 -227t-183 -160q-132 -65 -341 -96q-210 -31 -526 -31h-738z" />
    <glyph glyph-name="V" unicode="V" horiz-adv-x="3317" 
d="M788 1536l779 -1274q21 -33 51 -48t68 -15q39 0 67 14q31 15 51 47l781 1276h692l-823 -1264q-106 -161 -286 -229q-184 -70 -501 -70q-328 0 -514 69q-187 69 -287 222l-825 1272h747z" />
    <glyph glyph-name="W" unicode="W" horiz-adv-x="4900" 
d="M717 1536l481 -1300q11 -32 31 -49t59 -17q36 0 57 15t33 48l394 1057q52 138 223 205q174 68 481 68q304 0 472 -74q166 -73 210 -191l377 -1054q15 -39 36 -57q20 -17 60 -17q35 0 53 18t31 50l510 1298h635l-506 -1210q-79 -188 -259 -270q-183 -83 -478 -83
q-167 0 -289 21q-123 21 -206 62q-84 41 -139 107q-55 65 -87 152l-365 953q-11 28 -25 42q-15 15 -48 15q-38 0 -51 -14q-12 -14 -23 -41l-367 -951q-69 -178 -241 -262t-500 -84q-313 0 -481 83q-166 82 -246 274l-508 1206h676z" />
    <glyph glyph-name="X" unicode="X" horiz-adv-x="3090" 
d="M2181 0l-795 553l-878 -553h-477l1118 707l-1129 829h910l739 -567l930 567h457l-1143 -729l1157 -807h-889z" />
    <glyph glyph-name="Y" unicode="Y" horiz-adv-x="3010" 
d="M1239 0v479l-1239 1057h836l786 -688q59 -51 102 -52q42 -1 103 52l768 688h416l-1137 -1047v-489h-635z" />
    <glyph glyph-name="Z" unicode="Z" horiz-adv-x="2918" 
d="M2789 0h-2058q-354 0 -506 85q-153 85 -153 257q0 82 33 142q35 63 113 115q80 53 211 102q149 56 325 104l1276 358q48 15 79 33q31 19 31 57q0 42 -32 60t-97 18h-1911v205h1991q413 0 579 -78t166 -256q0 -149 -140 -253q-142 -106 -486 -201l-1362 -379
q-45 -12 -73 -34q-27 -21 -27 -52q0 -39 27 -59q26 -19 85 -19h1929v-205z" />
    <glyph glyph-name="bracketleft" unicode="[" horiz-adv-x="1243" 
d="M246 -348v1884h895v-195h-363v-1495h363v-194h-895z" />
    <glyph glyph-name="backslash" unicode="\" horiz-adv-x="1556" 
d="M594 1536l942 -1884h-573l-943 1884h574z" />
    <glyph glyph-name="bracketright" unicode="]" horiz-adv-x="1243" 
d="M997 -348h-895v194h363v1495h-363v195h895v-1884z" />
    <glyph glyph-name="asciicircum" unicode="^" horiz-adv-x="1562" 
d="M782 864l621 -90v-119l-621 90l-620 -90v119z" />
    <glyph glyph-name="underscore" unicode="_" horiz-adv-x="1314" 
d="M0 -287v287h1315v-287h-1315z" />
    <glyph glyph-name="grave" unicode="`" horiz-adv-x="1447" 
d="M1141 1352l-1092 90v119l1092 -91v-118z" />
    <glyph glyph-name="a" unicode="a" horiz-adv-x="2598" 
d="M1522 1229q267 0 448 -25q170 -23 273 -75q98 -49 135 -125q37 -75 37 -179v-825h-1729q-172 0 -277 17q-112 18 -178 51q-64 32 -92 83q-26 48 -26 113q0 102 104 185t322 163l1124 414q-44 5 -104 6q-82 2 -148 2h-1259v195h1370zM1059 195h741v651v15v13l-774 -303
q-110 -44 -153 -93q-44 -50 -44 -120q0 -75 55 -119t175 -44z" />
    <glyph glyph-name="b" unicode="b" horiz-adv-x="2803" 
d="M184 0v1536h625v-307h922q282 0 472 -32q187 -31 295 -99q106 -66 150 -172q43 -104 43 -248v-127q0 -144 -43 -248q-44 -106 -150 -172q-108 -68 -295 -99q-190 -32 -472 -32h-1547zM1710 1024h-901v-819h901q181 0 248 68t67 247v187q0 180 -67 248q-68 69 -248 69z
" />
    <glyph glyph-name="c" unicode="c" horiz-adv-x="2455" 
d="M1067 1034q-157 0 -222 -62q-67 -64 -67 -227v-260q0 -164 67 -228q65 -62 222 -62h1266v-195h-1225q-273 0 -463 30t-308 91q-119 62 -171 160q-53 100 -53 233v201q0 133 53 233q52 98 171 160q118 61 308 91q191 30 463 30h1225v-195h-1266z" />
    <glyph glyph-name="d" unicode="d" horiz-adv-x="2803" 
d="M2619 0h-1546q-282 0 -472 32q-187 31 -295 99q-106 66 -150 172q-43 104 -43 248v127q0 144 43 248q44 106 150 172q108 68 295 99q190 32 472 32h922v307h624v-1536zM1094 205h901v819h-901q-180 0 -248 -69q-68 -70 -68 -246v-187q0 -179 68 -249q67 -68 248 -68z" />
    <glyph glyph-name="e" unicode="e" horiz-adv-x="2752" 
d="M1110 1255h512q277 0 469 -28q196 -29 316 -88q123 -61 178 -153t55 -222v-227h-1860v-101q0 -122 104 -182q102 -59 355 -59h1393v-195h-1487q-284 0 -482 27q-201 27 -320 86q-123 61 -176 155q-54 96 -54 232v194q0 138 45 243q46 107 158 176q115 71 308 107
q188 35 486 35zM1571 1061h-467q-179 0 -251 -74q-73 -75 -73 -254v-10h1215v72q0 136 -98 201t-326 65z" />
    <glyph glyph-name="f" unicode="f" horiz-adv-x="1904" 
d="M428 0v1034h-397v195h397q1 79 38 138q35 57 120 95q86 38 227 56q144 18 356 18h705v-178h-674q-82 0 -115 -30q-32 -29 -32 -93v-6h821v-195h-821v-1034h-625z" />
    <glyph glyph-name="g" unicode="g" horiz-adv-x="2762" 
d="M1642 -307h-1490v194h1380q121 0 207 11q87 11 130 30q48 21 66 55q19 36 19 83v36h-881q-278 0 -472 31q-186 30 -295 95q-106 63 -150 165q-43 99 -43 240v65q0 141 43 240q44 102 150 165q109 65 295 95q194 31 472 31h1505v-1129q0 -108 -48 -186t-157 -127t-289 -72
q-175 -22 -442 -22zM1094 307h860v717h-860q-180 0 -248 -65t-68 -230v-125q0 -167 68 -232t248 -65z" />
    <glyph glyph-name="h" unicode="h" horiz-adv-x="2764" 
d="M184 0v1536h625v-307h1087q188 0 323 -26q131 -25 212 -79q81 -53 115 -137q34 -83 34 -199v-788h-624v813q0 121 -66 166t-237 45h-844v-1024h-625z" />
    <glyph glyph-name="i" unicode="i" horiz-adv-x="1034" 
d="M829 1335h-624v201h624v-201zM205 0v1229h624v-1229h-624z" />
    <glyph glyph-name="j" unicode="j" horiz-adv-x="1034" 
d="M829 1335h-624v201h624v-201zM205 1229h624v-1217q0 -83 -17 -140q-18 -59 -69 -100q-51 -40 -144 -60q-91 -19 -245 -19h-534v194h246q78 0 108 27q31 28 31 90v1225z" />
    <glyph glyph-name="k" unicode="k" horiz-adv-x="2820" 
d="M205 0v1536h624v-815h103q46 0 104 2q37 1 81 10q35 7 76 25q46 20 89 43l737 428h748l-991 -608l1003 -621h-790l-707 422q-45 29 -89 52q-36 19 -76 30q-35 10 -81 13q-44 3 -104 3h-103v-520h-624z" />
    <glyph glyph-name="l" unicode="l" horiz-adv-x="1034" 
d="M205 1536h624v-1536h-624v1536z" />
    <glyph glyph-name="m" unicode="m" horiz-adv-x="4208" 
d="M184 0v1229h3156q188 0 323 -26q131 -25 212 -79q81 -53 115 -137q34 -83 34 -199v-788h-624v813q0 121 -66 166t-237 45h-680v-1024h-625v1024h-983v-1024h-625z" />
    <glyph glyph-name="n" unicode="n" horiz-adv-x="2764" 
d="M184 0v1229h1712q188 0 323 -26q131 -25 212 -79q81 -53 115 -137q34 -83 34 -199v-788h-624v813q0 121 -66 166t-237 45h-844v-1024h-625z" />
    <glyph glyph-name="o" unicode="o" horiz-adv-x="2834" 
d="M1724 -27h-614q-292 0 -486 36q-193 36 -308 107q-112 69 -158 176q-45 105 -45 243v159q0 138 45 243q46 107 158 176q115 71 308 107q188 35 486 35h614q299 0 487 -35q192 -36 307 -107q114 -70 159 -176q45 -105 45 -243v-159q0 -138 -45 -243q-45 -106 -159 -176
q-115 -71 -307 -107q-193 -36 -487 -36zM1104 168h627q178 0 251 76q74 77 74 241v260q0 163 -74 240q-73 76 -251 76h-627q-179 0 -252 -76q-74 -77 -74 -240v-260q0 -164 74 -241q73 -76 252 -76z" />
    <glyph glyph-name="p" unicode="p" horiz-adv-x="2803" 
d="M184 -307v1536h1547q282 0 472 -32q187 -31 295 -99q106 -66 150 -172q43 -104 43 -248v-127q0 -144 -43 -248q-44 -106 -150 -172q-108 -68 -295 -99q-190 -32 -472 -32h-922v-307h-625zM1710 1024h-901v-819h901q181 0 248 68t67 247v187q0 180 -67 248q-68 69 -248 69
z" />
    <glyph glyph-name="q" unicode="q" horiz-adv-x="2803" 
d="M2619 -348h-624v348h-922q-282 0 -472 32q-187 31 -295 99q-106 66 -150 172q-43 104 -43 248v127q0 144 43 248q44 106 150 172q108 68 295 99q190 32 472 32h1546v-1577zM1094 205h901v819h-901q-180 0 -248 -69q-68 -70 -68 -246v-187q0 -179 68 -249q67 -68 248 -68z
" />
    <glyph glyph-name="r" unicode="r" horiz-adv-x="1753" 
d="M184 834q0 89 32 162t117 124q87 52 233 80q151 29 378 29h768v-195h-534q-204 0 -287 -47q-82 -46 -82 -164v-823h-625v834z" />
    <glyph glyph-name="s" unicode="s" horiz-adv-x="2527" 
d="M137 0v195h1594q66 0 103 22q38 23 38 92q0 64 -38 88q-39 25 -103 25h-1168q-224 0 -339 112q-113 110 -113 289q0 198 137 302t430 104h1698v-195h-1561q-71 0 -115 -21q-43 -21 -43 -89q0 -66 43 -90q45 -25 115 -25h1102q278 0 393 -107t115 -272q0 -211 -139 -320
q-140 -110 -449 -110h-1700z" />
    <glyph glyph-name="t" unicode="t" horiz-adv-x="1986" 
d="M31 1034v195h397v239h625v-239h852v-195h-852v-702q0 -78 50 -108q48 -29 167 -29h635v-195h-891q-306 0 -446 79t-140 251v704h-397z" />
    <glyph glyph-name="u" unicode="u" horiz-adv-x="2764" 
d="M2580 1229v-1229h-1712q-187 0 -322 26q-133 26 -212 78q-80 53 -115 138t-35 198v789h625v-813q0 -122 65 -166q66 -45 238 -45h844v1024h624z" />
    <glyph glyph-name="v" unicode="v" horiz-adv-x="2613" 
d="M684 1229l676 -922q10 -15 21 -24q13 -11 32 -11t32 11q11 9 21 24l672 922h455l-815 -1073q-58 -74 -159 -128q-104 -55 -300 -55q-181 0 -309 54q-127 53 -183 129l-807 1073h664z" />
    <glyph glyph-name="w" unicode="w" horiz-adv-x="4059" 
d="M664 1229l397 -1034q8 -19 18 -32t31 -13q25 0 37 13q11 13 16 32l232 819q39 136 203 188q167 53 432 53q278 0 452 -57t207 -180l223 -819q5 -18 17 -35q10 -14 32 -14q29 0 39 12q12 14 19 33l413 1034h607l-439 -981q-73 -166 -232 -220q-162 -55 -413 -55
q-268 0 -421 63q-151 62 -195 210l-225 788q-6 21 -27 33t-55 12q-35 0 -52 -13q-18 -14 -24 -34l-244 -790q-45 -143 -193 -206t-436 -63q-272 0 -423 61q-148 60 -214 210l-426 985h644z" />
    <glyph glyph-name="x" unicode="x" horiz-adv-x="2697" 
d="M1853 0l-614 430l-664 -430h-526l936 580l-965 649h842l578 -410l669 410h494l-907 -563l981 -666h-824z" />
    <glyph glyph-name="y" unicode="y" horiz-adv-x="2764" 
d="M1894 57q-88 -123 -168 -195q-80 -73 -188 -110q-102 -36 -269 -48q-147 -11 -409 -11h-776v188h709q141 0 222 7q86 7 145 27t97 56q40 38 78 97l37 55h-336q-78 0 -126 24q-46 23 -97 86l-793 996h693l690 -907q24 -33 53 -33q28 0 51 33l619 907h618z" />
    <glyph glyph-name="z" unicode="z" horiz-adv-x="2486" 
d="M2388 0h-1991q-167 0 -238 52q-73 53 -73 138q0 81 61 142q62 62 234 131l1173 481q21 7 35 19q13 11 13 30q0 23 -18 32t-46 9h-1432v195h1942q168 0 261 -41q91 -40 91 -146q0 -84 -72 -145q-69 -59 -243 -133l-1167 -490q-28 -12 -39 -20q-15 -10 -15 -25
q0 -19 18 -27q17 -7 44 -7h1462v-195z" />
    <glyph glyph-name="braceleft" unicode="{" horiz-adv-x="1423" 
d="M737 598v-8q97 -15 159 -90t62 -181v-288q0 -45 29 -74t74 -29h301v-276h-520q-179 0 -288 86q-108 86 -108 272v273q0 89 -50 147q-50 57 -154 57h-119v213h119q104 0 154 58t50 147v273q0 186 108 272q109 86 288 86h520v-276h-301q-45 0 -74 -29t-29 -74v-309
q0 -105 -62 -170t-159 -80z" />
    <glyph glyph-name="bar" unicode="|" horiz-adv-x="921" 
d="M205 1536h512v-1761h-512v1761z" />
    <glyph glyph-name="braceright" unicode="}" horiz-adv-x="1423" 
d="M686 598q-97 15 -159 80t-62 170v309q0 45 -29 74t-74 29h-301v276h521q178 0 287 -86q108 -86 108 -272v-273q0 -89 50 -147t155 -58h118v-213h-118q-106 0 -155 -57q-50 -58 -50 -147v-273q0 -186 -108 -272q-109 -86 -287 -86h-521v276h301q45 0 74 29t29 74v288
q0 106 62 181t159 90v8z" />
    <glyph glyph-name="asciitilde" unicode="~" horiz-adv-x="1419" 
d="M879 723l101 -11q27 -3 42 -3q27 0 38 11t11 32v30h121v-80q0 -62 -46 -93t-122 -31q-21 0 -51 3q-9 1 -43.5 4.5t-59.5 6.5l-356 45l-101 11q-27 3 -42 3q-27 0 -38 -11t-11 -32v-30h-121v79q0 63 46 94t122 31q35 0 65 -3q18 -2 88 -11z" />
    <glyph glyph-name="exclamdown" unicode="&#xa1;" horiz-adv-x="686" 
d="M584 1229v-420h-564v420h564zM606 -307h-524l57 962h410z" />
    <glyph glyph-name="cent" unicode="&#xa2;" horiz-adv-x="2455" 
d="M1348 1536h378v-307h607v-195h-607v-839h607v-195h-607v-307h-378v307h-240q-273 0 -463 30t-308 91q-119 62 -171 160q-53 100 -53 233v201q0 133 53 233q52 98 171 160q118 61 308 91q191 30 463 30h240v307zM1067 1034q-157 0 -222 -62q-67 -64 -67 -227v-260
q0 -164 67 -228q65 -62 222 -62h281v839h-281z" />
    <glyph glyph-name="sterling" unicode="&#xa3;" horiz-adv-x="3252" 
d="M61 0v205h457v430h-457v205h457v30q0 167 65 294q64 125 207 208t372 123q234 41 558 41h1389v-205h-1389q-159 0 -249 -20q-95 -21 -147 -70q-53 -50 -71 -133q-18 -84 -18 -211v-57h1567v-205h-1567v-430h1874v-205h-3048z" />
    <glyph glyph-name="currency" unicode="&#xa4;" horiz-adv-x="1990" 
d="M307 573v398q0 39 9 75q9 35 24 64l-238 158l70 104l250 -166q39 29 91 45q54 17 110 17h786q47 0 94 -14q49 -15 84 -35l232 153l69 -102l-213 -144q21 -32 31 -71q10 -37 10 -84v-398q0 -57 -16 -102q-16 -47 -45 -84l233 -156l-69 -102l-265 176q-30 -14 -69 -23
q-42 -10 -76 -10h-786q-47 0 -91 12q-47 13 -79 31l-281 -186l-70 104l254 170q-20 30 -35 77q-14 45 -14 93zM688 958v-383q0 -48 20 -77t64 -29h463q51 0 71 29q19 28 19 77v383q0 56 -19 85q-20 30 -71 30h-463q-44 0 -64 -30q-20 -31 -20 -85z" />
    <glyph glyph-name="yen" unicode="&#xa5;" horiz-adv-x="3010" 
d="M113 301v205h1095l-137 117h-958v204h718l-831 709h836l786 -688q59 -51 102 -52q42 -1 103 52l768 688h416l-768 -709h655v-204h-879l-127 -117h1006v-205h-1024v-301h-635v301h-1126z" />
    <glyph glyph-name="brokenbar" unicode="&#xa6;" horiz-adv-x="921" 
d="M205 756v780h512v-780h-512zM717 -225h-512v780h512v-780z" />
    <glyph glyph-name="section" unicode="&#xa7;" horiz-adv-x="2867" 
d="M2642 195q0 -129 -69 -223q-69 -95 -221 -156q-155 -62 -398 -92q-254 -31 -596 -31h-1122v205h1122q192 0 314 12q121 12 191 41q68 28 95 78q28 50 29 123l-549 73q-387 54 -603 89q-246 40 -398 98q-151 57 -217 146q-66 88 -66 230v246q0 129 68 222q70 96 221 157
q155 62 399 92q254 31 596 31h1122v-205h-1122q-194 0 -315 -12q-119 -12 -190 -41q-68 -28 -95 -78q-28 -50 -29 -123l549 -73q347 -48 603 -90q249 -41 397 -97q151 -57 217 -146q67 -90 67 -231v-245zM1458 430l529 -72v107q0 94 -25 150q-24 55 -94 85q-74 32 -198 51
q-128 19 -333 48l-528 71v-106q0 -95 25 -151q24 -55 94 -85q71 -31 197 -50q127 -20 333 -48z" />
    <glyph glyph-name="dieresis" unicode="&#xa8;" horiz-adv-x="1044" 
d="M-137 1479h598v-127h-598v127zM582 1479h598v-127h-598v127z" />
    <glyph glyph-name="copyright" unicode="&#xa9;" horiz-adv-x="2908" 
d="M1075 -27q-279 0 -465 45q-185 45 -296 133q-108 86 -155 217q-46 129 -46 298v204q0 168 48 298t162 217q116 88 303 133q189 45 470 45h716q281 0 470 -45t304 -133q113 -86 161 -217q49 -133 49 -298v-204q0 -165 -52 -298q-51 -130 -169 -217q-121 -89 -310 -133
q-192 -45 -473 -45h-717zM1935 178q230 0 330 97t100 335v318q0 239 -98 334q-99 96 -311 96h-1004q-212 0 -311 -96q-98 -95 -98 -334v-318q0 -237 95 -335q94 -97 294 -97h1003zM1395 1059q-114 0 -164 -47q-49 -46 -49 -166v-152q0 -124 49 -167q50 -44 164 -44h706v-145
h-676q-398 0 -565 88q-168 88 -168 291v106q0 200 168 288q169 89 565 89h676v-141h-706z" />
    <glyph glyph-name="ordfeminine" unicode="&#xaa;" horiz-adv-x="1386" 
d="M829 1536q149 0 239 -13q92 -13 145 -39q52 -25 72 -67t20 -96v-438h-920q-177 0 -240 36t-63 105q0 53 55 96q54 42 170 88l533 203q-28 2 -43 2h-49h-648v123h729zM643 1008h313v299l-327 -127q-62 -23 -83 -47q-22 -25 -22 -58q0 -30 28 -49q27 -18 91 -18z" />
    <glyph glyph-name="guillemotleft" unicode="&#xab;" horiz-adv-x="2070" 
d="M1231 1126l-686 -464l686 -457h-559l-492 305q-37 22 -67 61q-31 40 -31 91q0 50 32 91q29 38 66 60l492 313h559zM2009 1126l-686 -464l686 -457h-559l-492 305q-37 22 -67 61q-31 40 -31 91q0 50 32 91q29 38 66 60l492 313h559z" />
    <glyph glyph-name="registered" unicode="&#xae;" horiz-adv-x="2289" 
d="M881 455q-195 0 -325 30q-127 29 -207 92q-77 60 -108 151q-32 93 -32 210v141q0 118 34 208q36 94 112 152q81 61 211 92q134 32 329 32h502q192 0 326 -32q130 -31 211 -92q78 -59 113 -152q34 -90 34 -208v-141q0 -118 -36 -210q-36 -91 -118 -151q-86 -63 -216 -92
q-133 -30 -329 -30h-501zM1479 598q160 0 233 67q72 66 72 232v223q0 166 -70 234q-68 67 -217 67h-702q-152 0 -220 -67q-69 -68 -69 -234v-223q0 -166 67 -232q69 -67 207 -67h699zM940 1243v-555h-283v641h684q190 0 266 -35q74 -34 74 -135v-31q0 -76 -58 -113
q-59 -38 -187 -38h-97q-9 0 -13 -4q-5 -5 -5 -12q0 -9 4 -12q6 -4 10 -5l336 -256h-311l-332 260q-27 21 -34 32t-7 28q0 14 16 27q15 12 41 12h201q97 0 125 17q31 19 31 66v29q0 49 -30 67q-28 17 -130 17h-301z" />
    <glyph glyph-name="macron" unicode="&#xaf;" horiz-adv-x="1044" 
d="M1014 1352h-983v127h983v-127z" />
    <glyph glyph-name="degree" unicode="&#xb0;" horiz-adv-x="1368" 
d="M102 1159v111q0 134 91 216q90 81 225 81h540q128 0 218 -81t90 -216v-111q0 -135 -90 -218q-91 -83 -218 -83h-540q-134 0 -225 83t-91 218zM401 1280v-137q0 -49 20 -78t64 -29h381q51 0 71 29q19 28 19 78v137q0 56 -19 85q-19 30 -71 30h-381q-45 0 -64 -30
q-20 -31 -20 -85z" />
    <glyph glyph-name="plusminus" unicode="&#xb1;" horiz-adv-x="1896" 
d="M205 817v232h579v340h328v-340h580v-232h-580v-342h-328v342h-579zM291 80v231h1315v-231h-1315z" />
    <glyph glyph-name="twosuperior" unicode="&#xb2;" horiz-adv-x="1554" 
d="M1378 1028v-151h-1214v127q0 70 51 126q52 56 180 80l557 107q28 5 45 13q19 10 19 24q0 18 -19 24q-18 6 -51 6h-764v152h910q166 0 233 -43q68 -44 68 -125q0 -72 -55 -119q-53 -46 -167 -67l-497 -86q-47 -7 -73 -20q-23 -12 -23 -29v-19h800z" />
    <glyph glyph-name="threesuperior" unicode="&#xb3;" horiz-adv-x="1478" 
d="M145 1141v131h615q69 0 96 15t27 40v21q0 26 -26 43q-25 16 -95 16h-617v129h699q249 0 369 -36t120 -126v-20q0 -59 -50 -94t-157 -50q108 -12 157 -42q50 -30 50 -89v-41q0 -92 -120 -127q-118 -34 -369 -34h-699v127h617q70 0 95 13q26 14 26 38v32q0 23 -27 38
q-29 16 -96 16h-615z" />
    <glyph glyph-name="acute" unicode="&#xb4;" horiz-adv-x="1447" 
d="M315 1352v118l1092 91v-119z" />
    <glyph glyph-name="paragraph" unicode="&#xb6;" horiz-adv-x="3164" 
d="M2083 1536v-1843h-676v911h-340q-279 0 -476 25q-191 24 -299 73q-111 50 -155 128q-45 80 -45 186v94q0 126 45 208q45 83 156 131q113 49 300 68q184 19 478 19h1012zM2304 -307v1843h676v-1843h-676z" />
    <glyph glyph-name="periodcentered" unicode="&#xb7;" horiz-adv-x="849" 
d="M184 426v420h564v-420h-564z" />
    <glyph glyph-name="cedilla" unicode="&#xb8;" horiz-adv-x="2455" 
d="M195 -350l344 360h247l-344 -360h-247z" />
    <glyph glyph-name="onesuperior" unicode="&#xb9;" horiz-adv-x="1386" 
d="M137 877v151h408v330q0 10 -8 18t-29 8h-371v152h563q111 0 155 -26t44 -89v-393h350v-151h-1112z" />
    <glyph glyph-name="ordmasculine" unicode="&#xba;" horiz-adv-x="1548" 
d="M938 870h-326q-150 0 -259 19q-103 18 -164 56q-60 37 -84 93q-23 53 -23 129v84q0 75 23 130q24 58 84 95q61 38 164 56t259 18h326q156 0 258 -18t163 -56q60 -37 84 -95q23 -55 23 -130v-84q0 -76 -23 -129q-24 -56 -84 -93q-61 -38 -163 -56q-108 -19 -258 -19z
M627 1001h295q92 0 133 39t41 121v96q0 82 -41 123t-131 41h-295q-93 0 -134 -41q-40 -40 -40 -123v-96q0 -82 40 -121q41 -39 132 -39z" />
    <glyph glyph-name="guillemotright" unicode="&#xbb;" horiz-adv-x="2070" 
d="M1890 510l-491 -305h-559l686 457l-686 464h559l491 -313q39 -24 67 -60q32 -41 32 -91q0 -51 -31 -91q-29 -38 -68 -61zM1112 510l-491 -305h-560l687 457l-687 464h560l491 -313q39 -24 67 -60q31 -40 31 -91q0 -52 -30 -91q-29 -38 -68 -61z" />
    <glyph glyph-name="onequarter" unicode="&#xbc;" horiz-adv-x="2959" 
d="M1964 879h-367l809 657h390zM252 877v151h407v330q0 10 -8 18t-28 8h-371v152h563q111 0 155 -26t44 -89v-393h350v-151h-1112zM1479 106q-88 0 -125 34t-37 85q0 31 20 61q20 31 78 64l400 228q103 59 198 78q91 18 232 18h36q146 0 248 -30q103 -30 103 -95v-309h164
v-134h-164v-106h-367v106h-786zM995 657h367l-809 -657h-389zM1757 240h508v274q0 12 -9 20q-8 7 -32 7q-19 0 -32 -5q-2 -1 -23 -14l-418 -235q-10 -5 -19 -14q-6 -6 -6 -13q0 -8 8 -14t23 -6z" />
    <glyph glyph-name="onehalf" unicode="&#xbd;" horiz-adv-x="2959" 
d="M1964 879h-367l809 657h390zM252 877v151h407v330q0 10 -8 18t-28 8h-371v152h563q111 0 155 -26t44 -89v-393h350v-151h-1112zM2771 154v-152h-1215v127q0 70 52 127q52 56 180 80l557 106q25 4 45 14q18 9 18 23q0 19 -18 25t-51 6h-764v152h909q166 0 234 -44
q67 -43 67 -124q0 -72 -54 -119q-55 -47 -167 -68l-498 -86q-49 -7 -72 -19q-24 -12 -24 -30v-18h801zM995 657h367l-809 -657h-389z" />
    <glyph glyph-name="questiondown" unicode="&#xbf;" horiz-adv-x="2469" 
d="M2081 1229v-420h-563v420h563zM795 197v-103q0 -111 53 -164t188 -53h1331v-184h-1456q-223 0 -379 21q-153 21 -249 68q-95 47 -138 122q-43 76 -43 184v102q0 111 43 190t138 127q98 50 249 70q156 21 379 21h1211v-184h-1106q-121 0 -172 -54q-49 -52 -49 -163z" />
    <glyph glyph-name="Agrave" unicode="&#xc0;" 
d="M2560 0l-260 414h-1311l-260 -414h-698l796 1202q111 168 300 264q191 97 520 97q331 0 525 -97q190 -95 296 -256l799 -1210h-707zM1532 1276l-402 -637h1027l-400 635q-21 33 -49 48t-63 15q-37 0 -64 -14q-29 -15 -49 -47zM2066 1659l-1091 90v119l1091 -90v-119z" />
    <glyph glyph-name="Aacute" unicode="&#xc1;" 
d="M2560 0l-260 414h-1311l-260 -414h-698l796 1202q111 168 300 264q191 97 520 97q331 0 525 -97q190 -95 296 -256l799 -1210h-707zM1532 1276l-402 -637h1027l-400 635q-21 33 -49 48t-63 15q-37 0 -64 -14q-29 -15 -49 -47zM1241 1659v119l1092 90v-119z" />
    <glyph glyph-name="Acircumflex" unicode="&#xc2;" 
d="M2560 0l-260 414h-1311l-260 -414h-698l796 1202q111 168 300 264q191 97 520 97q331 0 525 -97q190 -95 296 -256l799 -1210h-707zM1532 1276l-402 -637h1027l-400 635q-21 33 -49 48t-63 15q-37 0 -64 -14q-29 -15 -49 -47zM1651 1868l620 -90v-119l-620 90l-621 -90
v119z" />
    <glyph glyph-name="Atilde" unicode="&#xc3;" 
d="M2560 0l-260 414h-1311l-260 -414h-698l796 1202q111 168 300 264q191 97 520 97q331 0 525 -97q190 -95 296 -256l799 -1210h-707zM1532 1276l-402 -637h1027l-400 635q-21 33 -49 48t-63 15q-37 0 -64 -14q-29 -15 -49 -47zM1831 1767l101 -11q27 -3 42 -3q27 0 38 11
t11 32v31h121v-80q0 -62 -46 -93q-47 -32 -122 -32q-21 0 -51 3q-9 1 -42.5 4.5t-59.5 6.5l-357 45l-101 12q-27 3 -42 3q-26 0 -38 -12q-11 -11 -11 -31v-31h-121v80q0 62 46 93q47 32 122 32q35 0 65 -3q9 -1 22 -3t32.5 -4.5t34.5 -4.5z" />
    <glyph glyph-name="Adieresis" unicode="&#xc4;" 
d="M2560 0l-260 414h-1311l-260 -414h-698l796 1202q111 168 300 264q191 97 520 97q331 0 525 -97q190 -95 296 -256l799 -1210h-707zM1532 1276l-402 -637h1027l-400 635q-21 33 -49 48t-63 15q-37 0 -64 -14q-29 -15 -49 -47zM989 1786h598v-127h-598v127zM1708 1786h598
v-127h-598v127z" />
    <glyph glyph-name="Aring" unicode="&#xc5;" 
d="M2560 0l-260 414h-1311l-260 -414h-698l796 1202q111 168 300 264q191 97 520 97q331 0 525 -97q190 -95 296 -256l799 -1210h-707zM1532 1276l-402 -637h1027l-400 635q-21 33 -49 48t-63 15q-37 0 -64 -14q-29 -15 -49 -47zM1178 1784q0 72 72 109q73 38 245 38h309
q174 0 245 -37q73 -38 73 -106q0 -71 -73 -109q-71 -37 -245 -37h-309q-173 0 -245 36t-72 106zM1991 1786q0 21 -42 33t-192 12h-215q-149 0 -191 -12t-42 -33q0 -20 42 -32q39 -11 191 -11h215q153 0 192 11q42 12 42 32z" />
    <glyph glyph-name="AE" unicode="&#xc6;" horiz-adv-x="5111" 
d="M2343 0v1536h2625v-205h-1949v-448h1949v-205h-1949v-473h1949v-205h-2625zM31 0l1063 1104q129 135 241 220q113 86 237 132q128 48 280 64q151 16 374 16h793v-1536h-635v414h-1219l-389 -414h-745zM1858 1147l-480 -508h1006v692h-96q-62 0 -113 -3q-54 -3 -99 -20
q-50 -19 -102 -56q-54 -39 -116 -105z" />
    <glyph glyph-name="Ccedilla" unicode="&#xc7;" horiz-adv-x="2867" 
d="M2724 205v-205h-1409q-336 0 -570 41q-230 40 -371 123t-201 208q-60 126 -60 294v204q0 169 64 294t207 208t373 123q234 41 558 41h1409v-205h-1409q-159 0 -249 -20q-95 -21 -147 -70q-53 -50 -71 -133q-19 -89 -19 -211v-256q0 -122 19 -211q18 -83 73 -134
q55 -50 154 -71q96 -20 260 -20h1389zM1264 -350l344 360h247l-344 -360h-247z" />
    <glyph glyph-name="Egrave" unicode="&#xc8;" horiz-adv-x="2953" 
d="M184 0v1536h2626v-205h-1950v-448h1950v-205h-1950v-473h1950v-205h-2626zM2015 1659l-1091 90v119l1091 -90v-119z" />
    <glyph glyph-name="Eacute" unicode="&#xc9;" horiz-adv-x="2953" 
d="M184 0v1536h2626v-205h-1950v-448h1950v-205h-1950v-473h1950v-205h-2626zM1190 1659v119l1091 90v-119z" />
    <glyph glyph-name="Ecircumflex" unicode="&#xca;" horiz-adv-x="2953" 
d="M184 0v1536h2626v-205h-1950v-448h1950v-205h-1950v-473h1950v-205h-2626zM1597 1868l621 -90v-119l-621 90l-620 -90v119z" />
    <glyph glyph-name="Edieresis" unicode="&#xcb;" horiz-adv-x="2953" 
d="M184 0v1536h2626v-205h-1950v-448h1950v-205h-1950v-473h1950v-205h-2626zM938 1786h598v-127h-598v127zM1657 1786h598v-127h-598v127z" />
    <glyph glyph-name="Igrave" unicode="&#xcc;" horiz-adv-x="1085" 
d="M205 0v1536h676v-1536h-676zM958 1659l-1091 90v119l1091 -90v-119z" />
    <glyph glyph-name="Iacute" unicode="&#xcd;" horiz-adv-x="1085" 
d="M205 0v1536h676v-1536h-676zM133 1659v119l1092 90v-119z" />
    <glyph glyph-name="Icircumflex" unicode="&#xce;" horiz-adv-x="1085" 
d="M205 0v1536h676v-1536h-676zM543 1868l620 -90v-119l-620 90l-621 -90v119z" />
    <glyph glyph-name="Idieresis" unicode="&#xcf;" horiz-adv-x="1085" 
d="M205 0v1536h676v-1536h-676zM-117 1786h598v-127h-598v127zM602 1786h598v-127h-598v127z" />
    <glyph glyph-name="Eth" unicode="&#xd0;" horiz-adv-x="3430" 
d="M41 707v143h287v686h1788q324 0 558 -41q229 -40 372 -123t207 -208q65 -127 65 -294v-204q0 -166 -61 -294q-60 -126 -200 -208q-141 -82 -372 -123q-234 -41 -569 -41h-1788v707h-287zM2116 1331h-1112v-481h966v-143h-966v-502h1112q158 0 248 20q95 21 148 71t71 134
t18 211v256q0 127 -18 211q-18 83 -71 133q-51 49 -148 70q-90 20 -248 20z" />
    <glyph glyph-name="Ntilde" unicode="&#xd1;" horiz-adv-x="3481" 
d="M184 0v1229q0 163 189 248q190 86 559 86q300 0 531 -57q232 -57 337 -222l672 -1040q18 -28 46 -47t60 -19q55 0 70 26q14 24 14 83v1249h676v-1243q0 -167 -198 -243q-199 -77 -588 -77q-279 0 -488 62q-206 61 -301 209l-673 1036q-22 34 -58 57q-33 21 -74 21
q-61 0 -80 -28q-18 -27 -18 -89v-1241h-676zM2312 1624l102 -11q27 -3 42 -3q26 0 37 11q12 12 12 32v30h121v-79q0 -62 -47 -94q-46 -31 -121 -31q-22 0 -52 3q-9 1 -42.5 4.5t-59.5 6.5l-356 45l-102 11q-27 3 -42 3q-27 0 -38 -11t-11 -32v-30h-121v80q0 62 46 93t122 31
q36 0 66 -3q18 -2 88 -11z" />
    <glyph glyph-name="Ograve" unicode="&#xd2;" horiz-adv-x="3379" 
d="M2058 -27h-778q-338 0 -564 45q-224 45 -360 133q-132 86 -188 217q-55 129 -55 298v204q0 169 58 298t196 217q139 88 366 133q229 45 567 45h779q337 0 567 -45q229 -45 367 -133q137 -87 195 -217q59 -132 59 -298v-204q0 -166 -62 -298q-61 -129 -203 -217
q-144 -89 -373 -133q-233 -45 -571 -45zM2120 178q229 0 329 97q101 98 101 335v318q0 238 -99 334t-311 96h-901q-212 0 -311 -96t-99 -334v-318q0 -236 96 -335q94 -97 294 -97h901zM2107 1659l-1091 90v119l1091 -90v-119z" />
    <glyph glyph-name="Oacute" unicode="&#xd3;" horiz-adv-x="3379" 
d="M2058 -27h-778q-338 0 -564 45q-224 45 -360 133q-132 86 -188 217q-55 129 -55 298v204q0 169 58 298t196 217q139 88 366 133q229 45 567 45h779q337 0 567 -45q229 -45 367 -133q137 -87 195 -217q59 -132 59 -298v-204q0 -166 -62 -298q-61 -129 -203 -217
q-144 -89 -373 -133q-233 -45 -571 -45zM2120 178q229 0 329 97q101 98 101 335v318q0 238 -99 334t-311 96h-901q-212 0 -311 -96t-99 -334v-318q0 -236 96 -335q94 -97 294 -97h901zM1282 1659v119l1092 90v-119z" />
    <glyph glyph-name="Ocircumflex" unicode="&#xd4;" horiz-adv-x="3379" 
d="M2058 -27h-778q-338 0 -564 45q-224 45 -360 133q-132 86 -188 217q-55 129 -55 298v204q0 169 58 298t196 217q139 88 366 133q229 45 567 45h779q337 0 567 -45q229 -45 367 -133q137 -87 195 -217q59 -132 59 -298v-204q0 -166 -62 -298q-61 -129 -203 -217
q-144 -89 -373 -133q-233 -45 -571 -45zM2120 178q229 0 329 97q101 98 101 335v318q0 238 -99 334t-311 96h-901q-212 0 -311 -96t-99 -334v-318q0 -236 96 -335q94 -97 294 -97h901zM1692 1868l620 -90v-119l-620 90l-621 -90v119z" />
    <glyph glyph-name="Otilde" unicode="&#xd5;" horiz-adv-x="3379" 
d="M2058 -27h-778q-338 0 -564 45q-224 45 -360 133q-132 86 -188 217q-55 129 -55 298v204q0 169 58 298t196 217q139 88 366 133q229 45 567 45h779q337 0 567 -45q229 -45 367 -133q137 -87 195 -217q59 -132 59 -298v-204q0 -166 -62 -298q-61 -129 -203 -217
q-144 -89 -373 -133q-233 -45 -571 -45zM2120 178q229 0 329 97q101 98 101 335v318q0 238 -99 334t-311 96h-901q-212 0 -311 -96t-99 -334v-318q0 -236 96 -335q94 -97 294 -97h901zM1872 1767l101 -11q27 -3 42 -3q27 0 38 11t11 32v31h121v-80q0 -62 -46 -93
q-47 -32 -122 -32q-21 0 -51 3q-9 1 -42.5 4.5t-59.5 6.5l-357 45l-101 12q-27 3 -42 3q-26 0 -38 -12q-11 -11 -11 -31v-31h-121v80q0 62 46 93q47 32 122 32q35 0 65 -3q9 -1 22 -3t32.5 -4.5t34.5 -4.5z" />
    <glyph glyph-name="Odieresis" unicode="&#xd6;" horiz-adv-x="3379" 
d="M2058 -27h-778q-338 0 -564 45q-224 45 -360 133q-132 86 -188 217q-55 129 -55 298v204q0 169 58 298t196 217q139 88 366 133q229 45 567 45h779q337 0 567 -45q229 -45 367 -133q137 -87 195 -217q59 -132 59 -298v-204q0 -166 -62 -298q-61 -129 -203 -217
q-144 -89 -373 -133q-233 -45 -571 -45zM2120 178q229 0 329 97q101 98 101 335v318q0 238 -99 334t-311 96h-901q-212 0 -311 -96t-99 -334v-318q0 -236 96 -335q94 -97 294 -97h901zM1030 1786h598v-127h-598v127zM1749 1786h598v-127h-598v127z" />
    <glyph glyph-name="multiply" unicode="&#xd7;" horiz-adv-x="1810" 
d="M334 1300l571 -393l572 393l129 -192l-496 -342l496 -340l-138 -188l-563 387l-563 -387l-137 188l495 340l-495 342z" />
    <glyph glyph-name="Oslash" unicode="&#xd8;" horiz-adv-x="3379" 
d="M2058 -27h-778q-297 0 -502 34q-214 35 -344 99l-321 -147v152l184 86q-100 85 -142 203t-42 266v204q0 169 58 298t196 217q139 88 366 133q229 45 567 45h779q294 0 510 -35q209 -34 352 -103l326 152v-164l-181 -84q97 -85 139 -200q42 -116 42 -259v-204
q0 -166 -62 -298q-61 -129 -203 -217q-144 -89 -373 -133q-233 -45 -571 -45zM829 610q0 -32 4 -86q3 -36 11 -73l1644 763q-44 75 -132 110q-86 34 -216 34h-901q-212 0 -311 -96t-99 -334v-318zM2120 178q229 0 329 97q101 98 101 335v318q0 42 -3 79q-2 27 -10 70
l-1646 -760q44 -73 128 -106q83 -33 200 -33h901z" />
    <glyph glyph-name="Ugrave" unicode="&#xd9;" horiz-adv-x="3317" 
d="M1290 -16q-316 0 -526 31q-209 31 -341 96q-128 63 -183 160q-56 98 -56 227v1038h676v-1053q0 -153 80 -224t293 -71h852q213 0 293 71t80 224v1053h675v-1038q0 -130 -55 -227t-183 -160q-132 -65 -341 -96q-210 -31 -526 -31h-738zM2077 1556l-1092 91v118l1092 -90
v-119z" />
    <glyph glyph-name="Uacute" unicode="&#xda;" horiz-adv-x="3317" 
d="M1290 -16q-316 0 -526 31q-209 31 -341 96q-128 63 -183 160q-56 98 -56 227v1038h676v-1053q0 -153 80 -224t293 -71h852q213 0 293 71t80 224v1053h675v-1038q0 -130 -55 -227t-183 -160q-132 -65 -341 -96q-210 -31 -526 -31h-738zM1251 1556v119l1092 90v-118z" />
    <glyph glyph-name="Ucircumflex" unicode="&#xdb;" horiz-adv-x="3317" 
d="M1290 -16q-316 0 -526 31q-209 31 -341 96q-128 63 -183 160q-56 98 -56 227v1038h676v-1053q0 -153 80 -224t293 -71h852q213 0 293 71t80 224v1053h675v-1038q0 -130 -55 -227t-183 -160q-132 -65 -341 -96q-210 -31 -526 -31h-738zM1661 1765l620 -90v-119l-620 91
l-621 -91v119z" />
    <glyph glyph-name="Udieresis" unicode="&#xdc;" horiz-adv-x="3317" 
d="M1290 -16q-316 0 -526 31q-209 31 -341 96q-128 63 -183 160q-56 98 -56 227v1038h676v-1053q0 -153 80 -224t293 -71h852q213 0 293 71t80 224v1053h675v-1038q0 -130 -55 -227t-183 -160q-132 -65 -341 -96q-210 -31 -526 -31h-738zM999 1683h598v-127h-598v127z
M1718 1683h598v-127h-598v127z" />
    <glyph glyph-name="Yacute" unicode="&#xdd;" horiz-adv-x="3010" 
d="M1239 0v479l-1239 1057h836l786 -688q59 -51 102 -52q42 -1 103 52l768 688h416l-1137 -1047v-489h-635zM1456 1495v119l1092 90v-119z" />
    <glyph glyph-name="Thorn" unicode="&#xde;" horiz-adv-x="3024" 
d="M860 1536v-287h1073q295 0 479 -19q187 -19 300 -68q109 -47 155 -131q45 -82 45 -208v-94q0 -105 -45 -185q-44 -78 -154 -128q-111 -50 -299 -74q-197 -25 -477 -25h-1077v-317h-676v1536h676zM1956 1044h-1096v-532h1096q130 0 190 42t60 157v137q0 110 -60 153
q-59 43 -190 43z" />
    <glyph glyph-name="germandbls" unicode="&#xdf;" horiz-adv-x="3117" 
d="M928 1536h1399q287 0 432 -94t145 -275v-57q0 -89 -74 -168q-73 -78 -293 -123q253 -27 344 -108q93 -83 93 -234v-84q0 -231 -195 -312t-569 -81h-1170v184h1016q154 0 198 29t44 82v289q0 50 -48 87q-49 38 -177 38h-992v184h961q104 0 142 39q38 40 38 102v183
q0 63 -38 99t-126 36h-1046q-92 0 -142 -37q-51 -37 -51 -133v-1182h-635v1063q0 247 195 360q196 113 549 113z" />
    <glyph glyph-name="agrave" unicode="&#xe0;" horiz-adv-x="2598" 
d="M1522 1229q267 0 448 -25q170 -23 273 -75q98 -49 135 -125q37 -75 37 -179v-825h-1729q-172 0 -277 17q-112 18 -178 51q-64 32 -92 83q-26 48 -26 113q0 102 104 185t322 163l1124 414q-44 5 -104 6q-82 2 -148 2h-1259v195h1370zM1059 195h741v651v15v13l-774 -303
q-110 -44 -153 -93q-44 -50 -44 -120q0 -75 55 -119t175 -44zM1718 1352l-1091 90v119l1091 -91v-118z" />
    <glyph glyph-name="aacute" unicode="&#xe1;" horiz-adv-x="2598" 
d="M1522 1229q267 0 448 -25q170 -23 273 -75q98 -49 135 -125q37 -75 37 -179v-825h-1729q-172 0 -277 17q-112 18 -178 51q-64 32 -92 83q-26 48 -26 113q0 102 104 185t322 163l1124 414q-44 5 -104 6q-82 2 -148 2h-1259v195h1370zM1059 195h741v651v15v13l-774 -303
q-110 -44 -153 -93q-44 -50 -44 -120q0 -75 55 -119t175 -44zM893 1352v118l1092 91v-119z" />
    <glyph glyph-name="acircumflex" unicode="&#xe2;" horiz-adv-x="2598" 
d="M1522 1229q267 0 448 -25q170 -23 273 -75q98 -49 135 -125q37 -75 37 -179v-825h-1729q-172 0 -277 17q-112 18 -178 51q-64 32 -92 83q-26 48 -26 113q0 102 104 185t322 163l1124 414q-44 5 -104 6q-82 2 -148 2h-1259v195h1370zM1059 195h741v651v15v13l-774 -303
q-110 -44 -153 -93q-44 -50 -44 -120q0 -75 55 -119t175 -44zM1303 1561l620 -91v-118l-620 90l-621 -90v118z" />
    <glyph glyph-name="atilde" unicode="&#xe3;" horiz-adv-x="2598" 
d="M1522 1229q267 0 448 -25q170 -23 273 -75q98 -49 135 -125q37 -75 37 -179v-825h-1729q-172 0 -277 17q-112 18 -178 51q-64 32 -92 83q-26 48 -26 113q0 102 104 185t322 163l1124 414q-44 5 -104 6q-82 2 -148 2h-1259v195h1370zM1059 195h741v651v15v13l-774 -303
q-110 -44 -153 -93q-44 -50 -44 -120q0 -75 55 -119t175 -44zM1483 1460l101 -11q27 -3 42 -3q27 0 38 11t11 32v31h121v-80q0 -62 -46 -93q-47 -32 -122 -32q-21 0 -51 3q-9 1 -42.5 4.5t-59.5 6.5l-357 45l-101 11q-36 4 -42 4q-26 0 -38 -12q-11 -11 -11 -31v-31h-121v80
q0 62 46 93q47 32 122 32q35 0 65 -3q11 -1 42 -5.5t46 -6.5z" />
    <glyph glyph-name="adieresis" unicode="&#xe4;" horiz-adv-x="2598" 
d="M1522 1229q267 0 448 -25q170 -23 273 -75q98 -49 135 -125q37 -75 37 -179v-825h-1729q-172 0 -277 17q-112 18 -178 51q-64 32 -92 83q-26 48 -26 113q0 102 104 185t322 163l1124 414q-44 5 -104 6q-82 2 -148 2h-1259v195h1370zM1059 195h741v651v15v13l-774 -303
q-110 -44 -153 -93q-44 -50 -44 -120q0 -75 55 -119t175 -44zM641 1479h598v-127h-598v127zM1360 1479h598v-127h-598v127z" />
    <glyph glyph-name="aring" unicode="&#xe5;" horiz-adv-x="2598" 
d="M1522 1229q267 0 448 -25q170 -23 273 -75q98 -49 135 -125q37 -75 37 -179v-825h-1729q-172 0 -277 17q-112 18 -178 51q-64 32 -92 83q-26 48 -26 113q0 102 104 185t322 163l1124 414q-44 5 -104 6q-82 2 -148 2h-1259v195h1370zM1059 195h741v651v15v13l-774 -303
q-110 -44 -153 -93q-44 -50 -44 -120q0 -75 55 -119t175 -44zM829 1477q0 71 73 109t245 38h309q174 0 245 -37q73 -38 73 -106q0 -71 -73 -109q-71 -37 -245 -37h-309q-173 0 -245 36q-73 37 -73 106zM1642 1479q0 20 -41 32q-46 13 -192 13h-215q-146 0 -192 -13
q-41 -12 -41 -32t41 -32q38 -11 192 -11h215q153 0 192 11q41 12 41 32z" />
    <glyph glyph-name="ae" unicode="&#xe6;" horiz-adv-x="4440" 
d="M1520 1231q217 0 358 -14q150 -15 254 -44q117 41 277 61q165 21 389 21h512q277 0 469 -28q196 -29 316 -88q121 -60 177 -153q55 -92 55 -222v-227h-1859v-101q0 -122 103 -182q102 -59 356 -59h1392v-195h-1487q-180 0 -316 10q-146 11 -253 31q-35 -19 -73 -29
q-39 -10 -85 -10h-1421q-172 0 -277 17q-112 18 -178 51q-64 32 -92 83q-26 48 -26 113q0 102 104 185t322 163l1124 414q-43 4 -105 6q-82 2 -147 2h-1249v195h1360zM3258 1061h-467q-178 0 -250 -74q-73 -75 -73 -254v-10h1214v72q0 137 -97 201q-98 65 -327 65zM1051 197
h747v651v15v14l-774 -304q-110 -44 -153 -93q-44 -50 -44 -120q0 -75 52 -119t172 -44z" />
    <glyph glyph-name="ccedilla" unicode="&#xe7;" horiz-adv-x="2455" 
d="M1067 1034q-157 0 -222 -62q-67 -64 -67 -227v-260q0 -164 67 -228q65 -62 222 -62h1266v-195h-1225q-273 0 -463 30t-308 91q-119 62 -171 160q-53 100 -53 233v201q0 133 53 233q52 98 171 160q118 61 308 91q191 30 463 30h1225v-195h-1266zM956 -350l344 360h248
l-344 -360h-248z" />
    <glyph glyph-name="egrave" unicode="&#xe8;" horiz-adv-x="2752" 
d="M1110 1255h512q277 0 469 -28q196 -29 316 -88q123 -61 178 -153t55 -222v-227h-1860v-101q0 -122 104 -182q102 -59 355 -59h1393v-195h-1487q-284 0 -482 27q-201 27 -320 86q-123 61 -176 155q-54 96 -54 232v194q0 138 45 243q46 107 158 176q115 71 308 107
q188 35 486 35zM1571 1061h-467q-179 0 -251 -74q-73 -75 -73 -254v-10h1215v72q0 136 -98 201t-326 65zM1794 1352l-1092 90v119l1092 -91v-118z" />
    <glyph glyph-name="eacute" unicode="&#xe9;" horiz-adv-x="2752" 
d="M1110 1255h512q277 0 469 -28q196 -29 316 -88q123 -61 178 -153t55 -222v-227h-1860v-101q0 -122 104 -182q102 -59 355 -59h1393v-195h-1487q-284 0 -482 27q-201 27 -320 86q-123 61 -176 155q-54 96 -54 232v194q0 138 45 243q46 107 158 176q115 71 308 107
q188 35 486 35zM1571 1061h-467q-179 0 -251 -74q-73 -75 -73 -254v-10h1215v72q0 136 -98 201t-326 65zM969 1352v118l1091 91v-119z" />
    <glyph glyph-name="ecircumflex" unicode="&#xea;" horiz-adv-x="2752" 
d="M1110 1255h512q277 0 469 -28q196 -29 316 -88q123 -61 178 -153t55 -222v-227h-1860v-101q0 -122 104 -182q102 -59 355 -59h1393v-195h-1487q-284 0 -482 27q-201 27 -320 86q-123 61 -176 155q-54 96 -54 232v194q0 138 45 243q46 107 158 176q115 71 308 107
q188 35 486 35zM1571 1061h-467q-179 0 -251 -74q-73 -75 -73 -254v-10h1215v72q0 136 -98 201t-326 65zM1378 1561l621 -91v-118l-621 90l-620 -90v118z" />
    <glyph glyph-name="edieresis" unicode="&#xeb;" horiz-adv-x="2752" 
d="M1110 1255h512q277 0 469 -28q196 -29 316 -88q123 -61 178 -153t55 -222v-227h-1860v-101q0 -122 104 -182q102 -59 355 -59h1393v-195h-1487q-284 0 -482 27q-201 27 -320 86q-123 61 -176 155q-54 96 -54 232v194q0 138 45 243q46 107 158 176q115 71 308 107
q188 35 486 35zM1571 1061h-467q-179 0 -251 -74q-73 -75 -73 -254v-10h1215v72q0 136 -98 201t-326 65zM717 1479h598v-127h-598v127zM1436 1479h598v-127h-598v127z" />
    <glyph glyph-name="igrave" unicode="&#xec;" horiz-adv-x="1034" 
d="M205 0v1229h624v-1229h-624zM829 1352l-1091 90v119l1091 -91v-118z" />
    <glyph glyph-name="iacute" unicode="&#xed;" horiz-adv-x="1034" 
d="M205 0v1229h624v-1229h-624zM203 1352v118l1091 91v-119z" />
    <glyph glyph-name="icircumflex" unicode="&#xee;" horiz-adv-x="1034" 
d="M205 0v1229h624v-1229h-624zM518 1561l621 -91v-118l-621 90l-620 -90v118z" />
    <glyph glyph-name="idieresis" unicode="&#xef;" horiz-adv-x="1034" 
d="M205 0v1229h624v-1229h-624zM-143 1479h598v-127h-598v127zM575 1479h599v-127h-599v127z" />
    <glyph glyph-name="eth" unicode="&#xf0;" horiz-adv-x="2842" 
d="M696 1026v131l627 92l-725 328h940l412 -193l714 105v-131l-503 -74q204 -100 322 -175q120 -77 183 -147q64 -72 82 -143q19 -76 19 -160v-194q0 -129 -60 -223t-193 -154t-353 -87q-227 -28 -535 -28h-434q-304 0 -522 22q-208 21 -332 71t-174 131q-51 82 -51 198v68
q0 111 53 188q51 75 173 122q120 47 315 66q190 19 479 19h954q-45 49 -148 104q-95 50 -297 142l-102 45zM1585 178q305 0 426 60t121 233v182h-973q-235 0 -318 -50t-83 -136v-98q0 -47 17 -81q18 -36 63 -60q44 -23 124 -37q77 -13 201 -13h422z" />
    <glyph glyph-name="ntilde" unicode="&#xf1;" horiz-adv-x="2764" 
d="M184 0v1229h1712q188 0 323 -26q131 -25 212 -79q81 -53 115 -137q34 -83 34 -199v-788h-624v813q0 121 -66 166t-237 45h-844v-1024h-625zM1565 1460l101 -11q27 -3 42 -3q27 0 38 11t11 32v31h121v-80q0 -62 -46 -93q-47 -32 -122 -32q-21 0 -51 3q-9 1 -43.5 4.5
t-59.5 6.5l-356 45l-101 11q-36 4 -42 4q-26 0 -38 -12q-11 -11 -11 -31v-31h-121v80q0 62 46 93q47 32 122 32q35 0 65 -3q11 -1 42 -5.5t46 -6.5z" />
    <glyph glyph-name="ograve" unicode="&#xf2;" horiz-adv-x="2834" 
d="M1724 -27h-614q-292 0 -486 36q-193 36 -308 107q-112 69 -158 176q-45 105 -45 243v159q0 138 45 243q46 107 158 176q115 71 308 107q188 35 486 35h614q299 0 487 -35q192 -36 307 -107q114 -70 159 -176q45 -105 45 -243v-159q0 -138 -45 -243q-45 -106 -159 -176
q-115 -71 -307 -107q-193 -36 -487 -36zM1104 168h627q178 0 251 76q74 77 74 241v260q0 163 -74 240q-73 76 -251 76h-627q-179 0 -252 -76q-74 -77 -74 -240v-260q0 -164 74 -241q73 -76 252 -76zM1835 1352l-1092 90v119l1092 -91v-118z" />
    <glyph glyph-name="oacute" unicode="&#xf3;" horiz-adv-x="2834" 
d="M1724 -27h-614q-292 0 -486 36q-193 36 -308 107q-112 69 -158 176q-45 105 -45 243v159q0 138 45 243q46 107 158 176q115 71 308 107q188 35 486 35h614q299 0 487 -35q192 -36 307 -107q114 -70 159 -176q45 -105 45 -243v-159q0 -138 -45 -243q-45 -106 -159 -176
q-115 -71 -307 -107q-193 -36 -487 -36zM1104 168h627q178 0 251 76q74 77 74 241v260q0 163 -74 240q-73 76 -251 76h-627q-179 0 -252 -76q-74 -77 -74 -240v-260q0 -164 74 -241q73 -76 252 -76zM1010 1352v118l1091 91v-119z" />
    <glyph glyph-name="ocircumflex" unicode="&#xf4;" horiz-adv-x="2834" 
d="M1724 -27h-614q-292 0 -486 36q-193 36 -308 107q-112 69 -158 176q-45 105 -45 243v159q0 138 45 243q46 107 158 176q115 71 308 107q188 35 486 35h614q299 0 487 -35q192 -36 307 -107q114 -70 159 -176q45 -105 45 -243v-159q0 -138 -45 -243q-45 -106 -159 -176
q-115 -71 -307 -107q-193 -36 -487 -36zM1104 168h627q178 0 251 76q74 77 74 241v260q0 163 -74 240q-73 76 -251 76h-627q-179 0 -252 -76q-74 -77 -74 -240v-260q0 -164 74 -241q73 -76 252 -76zM1419 1561l621 -91v-118l-621 90l-620 -90v118z" />
    <glyph glyph-name="otilde" unicode="&#xf5;" horiz-adv-x="2834" 
d="M1724 -27h-614q-292 0 -486 36q-193 36 -308 107q-112 69 -158 176q-45 105 -45 243v159q0 138 45 243q46 107 158 176q115 71 308 107q188 35 486 35h614q299 0 487 -35q192 -36 307 -107q114 -70 159 -176q45 -105 45 -243v-159q0 -138 -45 -243q-45 -106 -159 -176
q-115 -71 -307 -107q-193 -36 -487 -36zM1104 168h627q178 0 251 76q74 77 74 241v260q0 163 -74 240q-73 76 -251 76h-627q-179 0 -252 -76q-74 -77 -74 -240v-260q0 -164 74 -241q73 -76 252 -76zM1599 1460l102 -11q27 -3 42 -3q27 0 38 11t11 32v31h121v-80
q0 -62 -46 -93q-47 -32 -122 -32q-21 0 -51 3q-9 1 -43.5 4.5t-59.5 6.5l-356 45l-101 11q-36 4 -42 4q-26 0 -38 -12t-12 -31v-31h-120v80q0 62 46 93q47 32 122 32q35 0 65 -3q11 -1 42 -5.5t46 -6.5z" />
    <glyph glyph-name="odieresis" unicode="&#xf6;" horiz-adv-x="2834" 
d="M1724 -27h-614q-292 0 -486 36q-193 36 -308 107q-112 69 -158 176q-45 105 -45 243v159q0 138 45 243q46 107 158 176q115 71 308 107q188 35 486 35h614q299 0 487 -35q192 -36 307 -107q114 -70 159 -176q45 -105 45 -243v-159q0 -138 -45 -243q-45 -106 -159 -176
q-115 -71 -307 -107q-193 -36 -487 -36zM1104 168h627q178 0 251 76q74 77 74 241v260q0 163 -74 240q-73 76 -251 76h-627q-179 0 -252 -76q-74 -77 -74 -240v-260q0 -164 74 -241q73 -76 252 -76zM758 1479h598v-127h-598v127zM1477 1479h598v-127h-598v127z" />
    <glyph glyph-name="divide" unicode="&#xf7;" horiz-adv-x="1806" 
d="M725 1051v297h358v-297h-358zM205 651v232h1397v-232h-1397zM725 186v297h358v-297h-358z" />
    <glyph glyph-name="oslash" unicode="&#xf8;" horiz-adv-x="2834" 
d="M1724 -27h-614q-260 0 -446 29q-180 28 -299 86l-252 -108v131l133 59q-73 68 -103 160t-30 205v159q0 138 45 243q46 107 158 176q115 71 308 107q188 35 486 35h614q271 0 448 -29q184 -30 298 -87l252 110v-143l-125 -53q67 -67 96 -158q29 -92 29 -201v-159
q0 -138 -45 -243q-45 -106 -159 -176q-115 -71 -307 -107q-193 -36 -487 -36zM778 485q0 -28 1 -42q2 -28 3 -40l1233 539q-33 62 -103 90q-72 29 -181 29h-627q-179 0 -252 -76q-74 -77 -74 -240v-260zM1104 168h627q178 0 251 76q74 77 74 241v260q0 25 -1 37q-2 24 -3 35
l-1231 -532q34 -59 104 -88t179 -29z" />
    <glyph glyph-name="ugrave" unicode="&#xf9;" horiz-adv-x="2764" 
d="M2580 1229v-1229h-1712q-187 0 -322 26q-133 26 -212 78q-80 53 -115 138t-35 198v789h625v-813q0 -122 65 -166q66 -45 238 -45h844v1024h624zM1800 1311l-1091 90v119l1091 -90v-119z" />
    <glyph glyph-name="uacute" unicode="&#xfa;" horiz-adv-x="2764" 
d="M2580 1229v-1229h-1712q-187 0 -322 26q-133 26 -212 78q-80 53 -115 138t-35 198v789h625v-813q0 -122 65 -166q66 -45 238 -45h844v1024h624zM975 1311v119l1091 90v-119z" />
    <glyph glyph-name="ucircumflex" unicode="&#xfb;" horiz-adv-x="2764" 
d="M2580 1229v-1229h-1712q-187 0 -322 26q-133 26 -212 78q-80 53 -115 138t-35 198v789h625v-813q0 -122 65 -166q66 -45 238 -45h844v1024h624zM1384 1520l621 -90v-119l-621 90l-620 -90v119z" />
    <glyph glyph-name="udieresis" unicode="&#xfc;" horiz-adv-x="2764" 
d="M2580 1229v-1229h-1712q-187 0 -322 26q-133 26 -212 78q-80 53 -115 138t-35 198v789h625v-813q0 -122 65 -166q66 -45 238 -45h844v1024h624zM723 1438h598v-127h-598v127zM1442 1438h598v-127h-598v127z" />
    <glyph glyph-name="yacute" unicode="&#xfd;" horiz-adv-x="2764" 
d="M1894 57q-88 -123 -168 -195q-80 -73 -188 -110q-102 -36 -269 -48q-147 -11 -409 -11h-776v188h709q141 0 222 7q86 7 145 27t97 56q40 38 78 97l37 55h-336q-78 0 -126 24q-46 23 -97 86l-793 996h693l690 -907q24 -33 53 -33q28 0 51 33l619 907h618zM1006 1290v119
l1091 90v-119z" />
    <glyph glyph-name="thorn" unicode="&#xfe;" horiz-adv-x="2803" 
d="M184 -307v1843h625v-307h922q282 0 472 -32q187 -31 295 -99q106 -66 150 -172q43 -104 43 -248v-127q0 -144 -43 -248q-44 -106 -150 -172q-108 -68 -295 -99q-190 -32 -472 -32h-922v-307h-625zM1710 1024h-901v-819h901q181 0 248 68t67 247v187q0 180 -67 248
q-68 69 -248 69z" />
    <glyph glyph-name="ydieresis" unicode="&#xff;" horiz-adv-x="2764" 
d="M1894 57q-88 -123 -168 -195q-80 -73 -188 -110q-102 -36 -269 -48q-147 -11 -409 -11h-776v188h709q141 0 222 7q86 7 145 27t97 56q40 38 78 97l37 55h-336q-78 0 -126 24q-46 23 -97 86l-793 996h693l690 -907q24 -33 53 -33q28 0 51 33l619 907h618zM754 1417h598
v-127h-598v127zM1473 1417h598v-127h-598v127z" />
    <glyph glyph-name="Amacron" unicode="&#x100;" 
d="M2560 0l-260 414h-1311l-260 -414h-698l796 1202q111 168 300 264q191 97 520 97q331 0 525 -97q190 -95 296 -256l799 -1210h-707zM1532 1276l-402 -637h1027l-400 635q-21 33 -49 48t-63 15q-37 0 -64 -14q-29 -15 -49 -47zM2140 1659h-983v127h983v-127z" />
    <glyph glyph-name="amacron" unicode="&#x101;" horiz-adv-x="2598" 
d="M1522 1229q267 0 448 -25q170 -23 273 -75q98 -49 135 -125q37 -75 37 -179v-825h-1729q-172 0 -277 17q-112 18 -178 51q-64 32 -92 83q-26 48 -26 113q0 102 104 185t322 163l1124 414q-44 5 -104 6q-82 2 -148 2h-1259v195h1370zM1059 195h741v651v15v13l-774 -303
q-110 -44 -153 -93q-44 -50 -44 -120q0 -75 55 -119t175 -44zM1792 1352h-983v127h983v-127z" />
    <glyph glyph-name="Abreve" unicode="&#x102;" 
d="M2560 0l-260 414h-1311l-260 -414h-698l796 1202q111 168 300 264q191 97 520 97q331 0 525 -97q190 -95 296 -256l799 -1210h-707zM1532 1276l-402 -637h1027l-400 635q-21 33 -49 48t-63 15q-37 0 -64 -14q-29 -15 -49 -47zM1651 1632q-203 0 -329 69q-128 70 -173 152
h203q25 -31 94 -69q67 -37 207 -37t207 37q69 38 94 69h198q-45 -82 -173 -152q-126 -69 -328 -69z" />
    <glyph glyph-name="abreve" unicode="&#x103;" horiz-adv-x="2598" 
d="M1522 1229q267 0 448 -25q170 -23 273 -75q98 -49 135 -125q37 -75 37 -179v-825h-1729q-172 0 -277 17q-112 18 -178 51q-64 32 -92 83q-26 48 -26 113q0 102 104 185t322 163l1124 414q-44 5 -104 6q-82 2 -148 2h-1259v195h1370zM1059 195h741v651v15v13l-774 -303
q-110 -44 -153 -93q-44 -50 -44 -120q0 -75 55 -119t175 -44zM1303 1325q-203 0 -329 69q-128 70 -173 152h203q25 -31 94 -69q67 -37 207 -37q139 0 206 37q71 39 95 69h198q-45 -82 -173 -152q-126 -69 -328 -69z" />
    <glyph glyph-name="Aogonek" unicode="&#x104;" 
d="M2560 0l-260 414h-1311l-260 -414h-698l796 1202q111 168 300 264q191 97 520 97q331 0 525 -97q190 -95 296 -256l799 -1210h-707zM1532 1276l-402 -637h1027l-400 635q-21 33 -49 48t-63 15q-37 0 -64 -14q-29 -15 -49 -47zM2722 -207q0 -15 17 -22q22 -9 69 -9h457
v-112h-484q-151 0 -195 35t-44 73q0 52 46 83q49 33 152 65l305 94h220l-381 -131q-48 -16 -125 -44q-37 -13 -37 -32z" />
    <glyph glyph-name="aogonek" unicode="&#x105;" horiz-adv-x="2598" 
d="M1522 1229q267 0 448 -25q170 -23 273 -75q98 -49 135 -125q37 -75 37 -179v-825h-1729q-172 0 -277 17q-112 18 -178 51q-64 32 -92 83q-26 48 -26 113q0 102 104 185t322 163l1124 414q-44 5 -104 6q-82 2 -148 2h-1259v195h1370zM1059 195h741v651v15v13l-774 -303
q-110 -44 -153 -93q-44 -50 -44 -120q0 -75 55 -119t175 -44zM1872 -207q0 -15 17 -22q22 -9 69 -9h457v-112h-484q-151 0 -195 35t-44 73q0 52 46 83q49 33 152 65l305 94h220l-381 -131q-48 -16 -125 -44q-37 -13 -37 -32z" />
    <glyph glyph-name="Cacute" unicode="&#x106;" horiz-adv-x="2867" 
d="M2724 205v-205h-1409q-336 0 -570 41q-230 40 -371 123t-201 208q-60 126 -60 294v204q0 169 64 294t207 208t373 123q234 41 558 41h1409v-205h-1409q-159 0 -249 -20q-95 -21 -147 -70q-53 -50 -71 -133q-19 -89 -19 -211v-256q0 -122 19 -211q18 -83 73 -134
q55 -50 154 -71q96 -20 260 -20h1389zM1313 1659v119l1091 90v-119z" />
    <glyph glyph-name="cacute" unicode="&#x107;" horiz-adv-x="2455" 
d="M1067 1034q-157 0 -222 -62q-67 -64 -67 -227v-260q0 -164 67 -228q65 -62 222 -62h1266v-195h-1225q-273 0 -463 30t-308 91q-119 62 -171 160q-53 100 -53 233v201q0 133 53 233q52 98 171 160q118 61 308 91q191 30 463 30h1225v-195h-1266zM1006 1352v118l1091 91
v-119z" />
    <glyph glyph-name="Cdotaccent" unicode="&#x10a;" horiz-adv-x="2867" 
d="M2724 205v-205h-1409q-336 0 -570 41q-230 40 -371 123t-201 208q-60 126 -60 294v204q0 169 64 294t207 208t373 123q234 41 558 41h1409v-205h-1409q-159 0 -249 -20q-95 -21 -147 -70q-53 -50 -71 -133q-19 -89 -19 -211v-256q0 -122 19 -211q18 -83 73 -134
q55 -50 154 -71q96 -20 260 -20h1389zM1862 1663h-283v139h283v-139z" />
    <glyph glyph-name="cdotaccent" unicode="&#x10b;" horiz-adv-x="2455" 
d="M1067 1034q-157 0 -222 -62q-67 -64 -67 -227v-260q0 -164 67 -228q65 -62 222 -62h1266v-195h-1225q-273 0 -463 30t-308 91q-119 62 -171 160q-53 100 -53 233v201q0 133 53 233q52 98 171 160q118 61 308 91q191 30 463 30h1225v-195h-1266zM1554 1356h-282v139h282
v-139z" />
    <glyph glyph-name="Ccaron" unicode="&#x10c;" horiz-adv-x="2867" 
d="M2724 205v-205h-1409q-336 0 -570 41q-230 40 -371 123t-201 208q-60 126 -60 294v204q0 169 64 294t207 208t373 123q234 41 558 41h1409v-205h-1409q-159 0 -249 -20q-95 -21 -147 -70q-53 -50 -71 -133q-19 -89 -19 -211v-256q0 -122 19 -211q18 -83 73 -134
q55 -50 154 -71q96 -20 260 -20h1389zM1722 1649l-620 90v119l620 -91l621 91v-119z" />
    <glyph glyph-name="ccaron" unicode="&#x10d;" horiz-adv-x="2455" 
d="M1067 1034q-157 0 -222 -62q-67 -64 -67 -227v-260q0 -164 67 -228q65 -62 222 -62h1266v-195h-1225q-273 0 -463 30t-308 91q-119 62 -171 160q-53 100 -53 233v201q0 133 53 233q52 98 171 160q118 61 308 91q191 30 463 30h1225v-195h-1266zM1415 1341l-620 91v118
l620 -90l621 90v-118z" />
    <glyph glyph-name="Dcaron" unicode="&#x10e;" horiz-adv-x="3287" 
d="M1972 1536q324 0 558 -41q230 -40 373 -123t207 -208t64 -294v-204q0 -168 -60 -294q-60 -125 -201 -208t-371 -123q-234 -41 -570 -41h-1788v1536h1788zM1972 1331h-1112v-1126h1112q159 0 249 20q95 21 148 71q52 49 70 134q19 89 19 211v256q0 122 -19 211
q-18 84 -70 133q-51 49 -148 70q-90 20 -249 20zM1645 1649l-621 90v119l621 -91l620 91v-119z" />
    <glyph glyph-name="dcaron" unicode="&#x10f;" horiz-adv-x="2969" 
d="M2619 0h-1546q-282 0 -472 32q-187 31 -295 99q-106 66 -150 172q-43 104 -43 248v127q0 144 43 248q44 106 150 172q108 68 295 99q190 32 472 32h922v307h624v-1536zM1094 205h901v819h-901q-180 0 -248 -69q-68 -70 -68 -246v-187q0 -179 68 -249q67 -68 248 -68z
M2726 965q37 75 58 128t33 96q9 34 15 86q4 37 4 95v166h134v-164q0 -41 -6 -97q-5 -43 -19 -85q-18 -52 -38 -96q-45 -98 -60 -129h-121z" />
    <glyph glyph-name="Dcroat" unicode="&#x110;" horiz-adv-x="3430" 
d="M41 707v143h287v686h1788q324 0 558 -41q229 -40 372 -123t207 -208q65 -127 65 -294v-204q0 -166 -61 -294q-60 -126 -200 -208q-141 -82 -372 -123q-234 -41 -569 -41h-1788v707h-287zM2116 1331h-1112v-481h966v-143h-966v-502h1112q158 0 248 20q95 21 148 71t71 134
t18 211v256q0 127 -18 211q-18 83 -71 133q-51 49 -148 70q-90 20 -248 20z" />
    <glyph glyph-name="dcroat" unicode="&#x111;" horiz-adv-x="2803" 
d="M1147 1321v123h848v92h624v-92h252v-123h-252v-1321h-1546q-282 0 -472 32q-187 31 -295 99q-106 66 -150 172q-43 104 -43 248v127q0 144 43 248q44 106 150 172q108 68 295 99q190 32 472 32h922v92h-848zM1094 205h901v819h-901q-180 0 -248 -69q-68 -70 -68 -246
v-187q0 -179 68 -249q67 -68 248 -68z" />
    <glyph glyph-name="Emacron" unicode="&#x112;" horiz-adv-x="2953" 
d="M184 0v1536h2626v-205h-1950v-448h1950v-205h-1950v-473h1950v-205h-2626zM2089 1659h-983v127h983v-127z" />
    <glyph glyph-name="emacron" unicode="&#x113;" horiz-adv-x="2752" 
d="M1110 1255h512q277 0 469 -28q196 -29 316 -88q123 -61 178 -153t55 -222v-227h-1860v-101q0 -122 104 -182q102 -59 355 -59h1393v-195h-1487q-284 0 -482 27q-201 27 -320 86q-123 61 -176 155q-54 96 -54 232v194q0 138 45 243q46 107 158 176q115 71 308 107
q188 35 486 35zM1571 1061h-467q-179 0 -251 -74q-73 -75 -73 -254v-10h1215v72q0 136 -98 201t-326 65zM1868 1352h-983v127h983v-127z" />
    <glyph glyph-name="Ebreve" unicode="&#x114;" horiz-adv-x="2953" 
d="M184 0v1536h2626v-205h-1950v-448h1950v-205h-1950v-473h1950v-205h-2626zM1599 1632q-202 0 -328 69q-128 70 -173 152h202q24 -30 95 -69q67 -37 207 -37q139 0 206 37q71 39 95 69h198q-45 -82 -173 -152q-126 -69 -329 -69z" />
    <glyph glyph-name="ebreve" unicode="&#x115;" horiz-adv-x="2752" 
d="M1110 1255h512q277 0 469 -28q196 -29 316 -88q123 -61 178 -153t55 -222v-227h-1860v-101q0 -122 104 -182q102 -59 355 -59h1393v-195h-1487q-284 0 -482 27q-201 27 -320 86q-123 61 -176 155q-54 96 -54 232v194q0 138 45 243q46 107 158 176q115 71 308 107
q188 35 486 35zM1571 1061h-467q-179 0 -251 -74q-73 -75 -73 -254v-10h1215v72q0 136 -98 201t-326 65zM1378 1325q-202 0 -328 69q-128 70 -173 152h202q24 -30 95 -69q67 -37 206 -37q140 0 207 37q69 38 94 69h199q-45 -82 -173 -152q-126 -69 -329 -69z" />
    <glyph glyph-name="Edotaccent" unicode="&#x116;" horiz-adv-x="2953" 
d="M184 0v1536h2626v-205h-1950v-448h1950v-205h-1950v-473h1950v-205h-2626zM1739 1663h-283v139h283v-139z" />
    <glyph glyph-name="edotaccent" unicode="&#x117;" horiz-adv-x="2752" 
d="M1110 1255h512q277 0 469 -28q196 -29 316 -88q123 -61 178 -153t55 -222v-227h-1860v-101q0 -122 104 -182q102 -59 355 -59h1393v-195h-1487q-284 0 -482 27q-201 27 -320 86q-123 61 -176 155q-54 96 -54 232v194q0 138 45 243q46 107 158 176q115 71 308 107
q188 35 486 35zM1571 1061h-467q-179 0 -251 -74q-73 -75 -73 -254v-10h1215v72q0 136 -98 201t-326 65zM1518 1356h-283v139h283v-139z" />
    <glyph glyph-name="Eogonek" unicode="&#x118;" horiz-adv-x="2953" 
d="M184 0v1536h2626v-205h-1950v-448h1950v-205h-1950v-473h1950v-205h-2626zM2267 -207q0 -15 18 -22q22 -9 68 -9h457v-112h-483q-152 0 -196 35t-44 73q0 52 46 83q48 32 153 65l305 94h219l-381 -131q-48 -16 -125 -44q-37 -13 -37 -32z" />
    <glyph glyph-name="eogonek" unicode="&#x119;" horiz-adv-x="2752" 
d="M1110 1255h512q277 0 469 -28q196 -29 316 -88q123 -61 178 -153t55 -222v-227h-1860v-101q0 -122 104 -182q102 -59 355 -59h1393v-195h-1487q-284 0 -482 27q-201 27 -320 86q-123 61 -176 155q-54 96 -54 232v194q0 138 45 243q46 107 158 176q115 71 308 107
q188 35 486 35zM1571 1061h-467q-179 0 -251 -74q-73 -75 -73 -254v-10h1215v72q0 136 -98 201t-326 65zM2087 -207q0 -15 17 -22q22 -9 69 -9h457v-112h-484q-151 0 -195 35t-44 73q0 52 46 83q49 33 152 65l306 94h219l-381 -131q-48 -16 -125 -44q-37 -13 -37 -32z" />
    <glyph glyph-name="Ecaron" unicode="&#x11a;" horiz-adv-x="2953" 
d="M184 0v1536h2626v-205h-1950v-448h1950v-205h-1950v-473h1950v-205h-2626zM1599 1649l-620 90v119l620 -91l621 91v-119z" />
    <glyph glyph-name="ecaron" unicode="&#x11b;" horiz-adv-x="2752" 
d="M1110 1255h512q277 0 469 -28q196 -29 316 -88q123 -61 178 -153t55 -222v-227h-1860v-101q0 -122 104 -182q102 -59 355 -59h1393v-195h-1487q-284 0 -482 27q-201 27 -320 86q-123 61 -176 155q-54 96 -54 232v194q0 138 45 243q46 107 158 176q115 71 308 107
q188 35 486 35zM1571 1061h-467q-179 0 -251 -74q-73 -75 -73 -254v-10h1215v72q0 136 -98 201t-326 65zM1378 1341l-620 91v118l620 -90l621 90v-118z" />
    <glyph glyph-name="Gbreve" unicode="&#x11e;" horiz-adv-x="3223" 
d="M3029 1536v-205h-1565q-201 0 -323 -25q-125 -26 -194 -78q-69 -53 -93 -134q-25 -86 -25 -193v-266q0 -109 23 -193q22 -82 81 -135q60 -54 163 -79t266 -25h532q158 0 249 11q103 12 158 38q58 27 82 72q23 43 23 110v223h-909v205h1585v-391q0 -147 -63 -238
t-205 -144q-141 -52 -374 -72q-227 -19 -566 -19h-492q-343 0 -586 39q-244 39 -394 120q-151 82 -220 209q-69 128 -69 304v194q0 176 66 304t221 209q154 81 411 120t633 39h1585zM1778 1632q-203 0 -329 69q-128 70 -173 152h203q25 -31 94 -69q67 -37 207 -37t207 37
q69 38 94 69h198q-45 -82 -173 -152q-126 -69 -328 -69z" />
    <glyph glyph-name="gbreve" unicode="&#x11f;" horiz-adv-x="2762" 
d="M1642 -307h-1490v194h1380q121 0 207 11q87 11 130 30q48 21 66 55q19 36 19 83v36h-881q-278 0 -472 31q-186 30 -295 95q-106 63 -150 165q-43 99 -43 240v65q0 141 43 240q44 102 150 165q109 65 295 95q194 31 472 31h1505v-1129q0 -108 -48 -186t-157 -127t-289 -72
q-175 -22 -442 -22zM1094 307h860v717h-860q-180 0 -248 -65t-68 -230v-125q0 -167 68 -232t248 -65zM1382 1325q-202 0 -328 69q-128 70 -173 152h202q24 -30 95 -69q67 -37 206 -37q140 0 207 37q71 39 95 69h198q-45 -82 -173 -152q-126 -69 -329 -69z" />
    <glyph glyph-name="Gdotaccent" unicode="&#x120;" horiz-adv-x="3223" 
d="M3029 1536v-205h-1565q-201 0 -323 -25q-125 -26 -194 -78q-69 -53 -93 -134q-25 -86 -25 -193v-266q0 -109 23 -193q22 -82 81 -135q60 -54 163 -79t266 -25h532q158 0 249 11q103 12 158 38q58 27 82 72q23 43 23 110v223h-909v205h1585v-391q0 -147 -63 -238
t-205 -144q-141 -52 -374 -72q-227 -19 -566 -19h-492q-343 0 -586 39q-244 39 -394 120q-151 82 -220 209q-69 128 -69 304v194q0 176 66 304t221 209q154 81 411 120t633 39h1585zM1917 1663h-283v139h283v-139z" />
    <glyph glyph-name="gdotaccent" unicode="&#x121;" horiz-adv-x="2762" 
d="M1642 -307h-1490v194h1380q121 0 207 11q87 11 130 30q48 21 66 55q19 36 19 83v36h-881q-278 0 -472 31q-186 30 -295 95q-106 63 -150 165q-43 99 -43 240v65q0 141 43 240q44 102 150 165q109 65 295 95q194 31 472 31h1505v-1129q0 -108 -48 -186t-157 -127t-289 -72
q-175 -22 -442 -22zM1094 307h860v717h-860q-180 0 -248 -65t-68 -230v-125q0 -167 68 -232t248 -65zM1626 1356h-283v139h283v-139z" />
    <glyph glyph-name="Gcommaaccent" unicode="&#x122;" horiz-adv-x="3223" 
d="M3029 1536v-205h-1565q-201 0 -323 -25q-125 -26 -194 -78q-69 -53 -93 -134q-25 -86 -25 -193v-266q0 -109 23 -193q22 -82 81 -135q60 -54 163 -79t266 -25h532q158 0 249 11q103 12 158 38q58 27 82 72q23 43 23 110v223h-909v205h1585v-391q0 -147 -63 -238
t-205 -144q-141 -52 -374 -72q-227 -19 -566 -19h-492q-343 0 -586 39q-244 39 -394 120q-151 82 -220 209q-69 128 -69 304v194q0 176 66 304t221 209q154 81 411 120t633 39h1585zM1468 -350q42 65 55 97q15 37 15 114v67h184v-86q0 -57 -18 -99q-17 -40 -64 -93h-172z
" />
    <glyph glyph-name="gcommaaccent" unicode="&#x123;" horiz-adv-x="2762" 
d="M1642 -307h-1490v194h1380q121 0 207 11q87 11 130 30q48 21 66 55q19 36 19 83v36h-881q-278 0 -472 31q-186 30 -295 95q-106 63 -150 165q-43 99 -43 240v65q0 141 43 240q44 102 150 165q109 65 295 95q194 31 472 31h1505v-1129q0 -108 -48 -186t-157 -127t-289 -72
q-175 -22 -442 -22zM1094 307h860v717h-860q-180 0 -248 -65t-68 -230v-125q0 -167 68 -232t248 -65z" />
    <glyph glyph-name="Hbar" unicode="&#x126;" horiz-adv-x="3485" 
d="M299 0v1137h-238v143h238v256h676v-256h1536v256h676v-256h237v-143h-237v-1137h-676v666h-1536v-666h-676zM975 870h1536v267h-1536v-267z" />
    <glyph glyph-name="hbar" unicode="&#x127;" horiz-adv-x="2764" 
d="M184 0v1321h-266v123h266v92h625v-92h833v-123h-833v-92h1087q188 0 323 -26q131 -25 212 -79q81 -53 115 -137q34 -83 34 -199v-788h-624v813q0 121 -66 166t-237 45h-844v-1024h-625z" />
    <glyph glyph-name="Itilde" unicode="&#x128;" horiz-adv-x="1085" 
d="M205 0v1536h676v-1536h-676zM725 1767l101 -11q27 -3 42 -3q27 0 38 11q12 12 12 32v31h120v-80q0 -62 -46 -93q-47 -32 -122 -32q-21 0 -51 3q-9 1 -42.5 4.5t-59.5 6.5l-357 45l-101 12q-27 3 -42 3q-26 0 -38 -12q-11 -11 -11 -31v-31h-121v80q0 62 46 93
q47 32 122 32q36 0 66 -3q11 -1 42 -5.5t46 -6.5z" />
    <glyph glyph-name="itilde" unicode="&#x129;" horiz-adv-x="1034" 
d="M205 0v1229h624v-1229h-624zM698 1460l102 -11q27 -3 42 -3q27 0 38 11t11 32v31h121v-80q0 -62 -46 -93q-47 -32 -122 -32q-21 0 -51 3q-9 1 -43.5 4.5t-59.5 6.5l-356 45l-102 11q-36 4 -42 4q-25 0 -37 -12t-12 -31v-31h-121v80q0 61 47 93t121 32q36 0 66 -3
q11 -1 42 -5.5t46 -6.5z" />
    <glyph glyph-name="Imacron" unicode="&#x12a;" horiz-adv-x="1085" 
d="M205 0v1536h676v-1536h-676zM1034 1659h-983v127h983v-127z" />
    <glyph glyph-name="imacron" unicode="&#x12b;" horiz-adv-x="1034" 
d="M205 0v1229h624v-1229h-624zM1008 1352h-983v127h983v-127z" />
    <glyph glyph-name="Ibreve" unicode="&#x12c;" horiz-adv-x="1085" 
d="M205 0v1536h676v-1536h-676zM543 1632q-203 0 -329 69q-128 70 -173 152h203q25 -31 94 -69q67 -37 207 -37t207 37q69 38 94 69h198q-45 -82 -173 -152q-126 -69 -328 -69z" />
    <glyph glyph-name="ibreve" unicode="&#x12d;" horiz-adv-x="1034" 
d="M205 0v1229h624v-1229h-624zM518 1325q-203 0 -329 69q-128 70 -173 152h203q25 -31 94 -69q67 -37 207 -37t207 37q69 38 94 69h199q-45 -82 -173 -152q-126 -69 -329 -69z" />
    <glyph glyph-name="Iogonek" unicode="&#x12e;" horiz-adv-x="1085" 
d="M205 0v1536h676v-1536h-676zM338 -207q0 -15 17 -22q22 -9 69 -9h457v-112h-484q-151 0 -195 35t-44 73q0 52 46 83q49 33 152 65l306 94h219l-381 -131q-48 -16 -125 -44q-37 -13 -37 -32z" />
    <glyph glyph-name="iogonek" unicode="&#x12f;" horiz-adv-x="1034" 
d="M829 1335h-624v201h624v-201zM205 0v1229h624v-1229h-624zM287 -207q0 -15 17 -22q22 -9 69 -9h456v-112h-483q-151 0 -195 35q-45 36 -45 73q0 51 47 83q49 33 152 65l305 94h219l-380 -131q-48 -16 -125 -44q-37 -13 -37 -32z" />
    <glyph glyph-name="Idotaccent" unicode="&#x130;" horiz-adv-x="1085" 
d="M205 0v1536h676v-1536h-676zM684 1663h-283v139h283v-139z" />
    <glyph glyph-name="dotlessi" unicode="&#x131;" horiz-adv-x="1034" 
d="M205 0v1229h624v-1229h-624z" />
    <glyph glyph-name="Kcommaaccent" unicode="&#x136;" horiz-adv-x="3174" 
d="M184 0v1536h676v-664h189q75 0 145 10q65 9 123 31q60 23 123 60q72 43 145 92l703 471h854l-1135 -754l1147 -782h-862l-717 485q-89 61 -154 98q-62 35 -118 55q-59 21 -114 25q-65 5 -140 5h-189v-668h-676zM1362 -350q40 61 54 97q16 40 16 114v67h184v-86
q0 -55 -19 -99q-18 -42 -63 -93h-172z" />
    <glyph glyph-name="kcommaaccent" unicode="&#x137;" horiz-adv-x="2820" 
d="M205 0v1536h624v-815h103q46 0 104 2q37 1 81 10q35 7 76 25q46 20 89 43l737 428h748l-991 -608l1003 -621h-790l-707 422q-45 29 -89 52q-36 19 -76 30q-35 10 -81 13q-44 3 -104 3h-103v-520h-624zM1186 -350q40 61 54 97q15 37 15 114v67h185v-86q0 -55 -19 -99
q-18 -42 -63 -93h-172z" />
    <glyph glyph-name="kra" unicode="&#x138;" horiz-adv-x="2820" 
d="M205 0v1229h624v-508h103q46 0 104 2q37 1 81 10q35 7 76 25q46 20 89 43l737 428h748l-991 -608l1003 -621h-790l-707 422q-45 29 -89 52q-36 19 -76 30q-35 10 -81 13q-44 3 -104 3h-103v-520h-624z" />
    <glyph glyph-name="Lacute" unicode="&#x139;" horiz-adv-x="2543" 
d="M184 0v1536h676v-1331h1602v-205h-2278zM532 1659v119l1092 90v-119z" />
    <glyph glyph-name="lacute" unicode="&#x13a;" horiz-adv-x="1034" 
d="M205 1536h624v-1536h-624v1536zM205 1659v119l1091 90v-119z" />
    <glyph glyph-name="Lcommaaccent" unicode="&#x13b;" horiz-adv-x="2543" 
d="M184 0v1536h676v-1331h1602v-205h-2278zM1251 -350q42 65 55 97q15 37 15 114v67h184v-86q0 -57 -18 -99q-17 -40 -64 -93h-172z" />
    <glyph glyph-name="lcommaaccent" unicode="&#x13c;" horiz-adv-x="1034" 
d="M205 1536h624v-1536h-624v1536zM354 -350q42 65 55 97q15 37 15 114v67h184v-86q0 -57 -18 -99q-17 -40 -64 -93h-172z" />
    <glyph glyph-name="Lcaron" unicode="&#x13d;" horiz-adv-x="2543" 
d="M184 0v1536h676v-1331h1602v-205h-2278zM1313 965q37 75 58 128t33 96q9 34 15 86q4 37 4 95v166h133v-164q0 -50 -5 -97q-5 -43 -19 -85q-18 -52 -38 -96q-45 -98 -60 -129h-121z" />
    <glyph glyph-name="lcaron" unicode="&#x13e;" horiz-adv-x="1208" 
d="M205 1536h624v-1536h-624v1536zM924 965q37 75 58 128t33 96q9 34 15 86q4 37 4 95v166h133v-164q0 -50 -5 -97q-5 -43 -19 -85q-18 -52 -38 -96q-31 -68 -61 -129h-120z" />
    <glyph glyph-name="Ldot" unicode="&#x13f;" horiz-adv-x="2543" 
d="M184 0v1536h676v-1331h1602v-205h-2278zM1913 864h-283v140h283v-140z" />
    <glyph glyph-name="ldot" unicode="&#x140;" horiz-adv-x="1318" 
d="M205 1536h624v-1536h-624v1536zM1257 762h-282v139h282v-139z" />
    <glyph glyph-name="Lslash" unicode="&#x141;" horiz-adv-x="2605" 
d="M246 0v412l-205 -68v154l205 67v971h676v-750l987 324v-154l-987 -323v-428h1601v-205h-2277z" />
    <glyph glyph-name="lslash" unicode="&#x142;" horiz-adv-x="1107" 
d="M41 508l201 129v899h624v-494l201 129v-143l-201 -129v-899h-624v494l-201 -129v143z" />
    <glyph glyph-name="Nacute" unicode="&#x143;" horiz-adv-x="3481" 
d="M184 0v1229q0 163 189 248q190 86 559 86q300 0 531 -57q232 -57 337 -222l672 -1040q18 -28 46 -47t60 -19q55 0 70 26q14 24 14 83v1249h676v-1243q0 -167 -198 -243q-199 -77 -588 -77q-279 0 -488 62q-206 61 -301 209l-673 1036q-22 34 -58 57q-33 21 -74 21
q-61 0 -80 -28q-18 -27 -18 -89v-1241h-676zM1538 1536v119l1092 90v-119z" />
    <glyph glyph-name="nacute" unicode="&#x144;" horiz-adv-x="2764" 
d="M184 0v1229h1712q188 0 323 -26q131 -25 212 -79q81 -53 115 -137q34 -83 34 -199v-788h-624v813q0 121 -66 166t-237 45h-844v-1024h-625zM975 1352v118l1091 91v-119z" />
    <glyph glyph-name="Ncommaaccent" unicode="&#x145;" horiz-adv-x="3522" 
d="M184 0v1229q0 163 189 248q190 86 559 86q300 0 531 -57q232 -57 337 -222l672 -1040q18 -28 46 -47t60 -19q55 0 70 26q14 24 14 83v1249h676v-1243q0 -167 -198 -243q-199 -77 -588 -77q-279 0 -488 62q-206 61 -301 209l-673 1036q-22 34 -58 57q-33 21 -74 21
q-61 0 -80 -28q-18 -27 -18 -89v-1241h-676zM1638 -350q42 65 55 97q15 37 15 114v67h184v-86q0 -57 -18 -99q-17 -40 -64 -93h-172z" />
    <glyph glyph-name="ncommaaccent" unicode="&#x146;" horiz-adv-x="2764" 
d="M184 0v1229h1712q188 0 323 -26q131 -25 212 -79q81 -53 115 -137q34 -83 34 -199v-788h-624v813q0 121 -66 166t-237 45h-844v-1024h-625zM1219 -350q40 61 54 97q15 37 15 114v67h185v-86q0 -55 -19 -99q-18 -42 -63 -93h-172z" />
    <glyph glyph-name="Ncaron" unicode="&#x147;" horiz-adv-x="3481" 
d="M184 0v1229q0 163 189 248q190 86 559 86q300 0 531 -57q232 -57 337 -222l672 -1040q18 -28 46 -47t60 -19q55 0 70 26q14 24 14 83v1249h676v-1243q0 -167 -198 -243q-199 -77 -588 -77q-279 0 -488 62q-206 61 -301 209l-673 1036q-22 34 -58 57q-33 21 -74 21
q-61 0 -80 -28q-18 -27 -18 -89v-1241h-676zM1989 1526l-621 90v119l621 -90l620 90v-119z" />
    <glyph glyph-name="ncaron" unicode="&#x148;" horiz-adv-x="2764" 
d="M184 0v1229h1712q188 0 323 -26q131 -25 212 -79q81 -53 115 -137q34 -83 34 -199v-788h-624v813q0 121 -66 166t-237 45h-844v-1024h-625zM1384 1341l-620 91v118l620 -90l621 90v-118z" />
    <glyph glyph-name="Eng" unicode="&#x14a;" horiz-adv-x="3522" 
d="M1683 -307v205h611h11h11l-1224 1382q-26 30 -61 55q-32 23 -73 23q-61 0 -80 -28q-18 -27 -18 -89v-1241h-676v1229q0 163 189 248q190 86 559 86q301 0 520 -66t348 -213l862 -975v1227h676v-1294q0 -131 -37 -233q-38 -105 -137 -173t-276 -106q-173 -37 -451 -37
h-754z" />
    <glyph glyph-name="eng" unicode="&#x14b;" horiz-adv-x="2764" 
d="M184 0v1229h1712q188 0 323 -26q131 -25 212 -79q81 -53 115 -137q34 -83 34 -199v-788q0 -78 -18 -135t-70 -95q-53 -39 -145 -58t-242 -19h-534v194h246q78 0 108 27q31 28 31 90v809q0 121 -66 166t-237 45h-844v-1024h-625z" />
    <glyph glyph-name="Omacron" unicode="&#x14c;" horiz-adv-x="3379" 
d="M2058 -27h-778q-338 0 -564 45q-224 45 -360 133q-132 86 -188 217q-55 129 -55 298v204q0 169 58 298t196 217q139 88 366 133q229 45 567 45h779q337 0 567 -45q229 -45 367 -133q137 -87 195 -217q59 -132 59 -298v-204q0 -166 -62 -298q-61 -129 -203 -217
q-144 -89 -373 -133q-233 -45 -571 -45zM2120 178q229 0 329 97q101 98 101 335v318q0 238 -99 334t-311 96h-901q-212 0 -311 -96t-99 -334v-318q0 -236 96 -335q94 -97 294 -97h901zM2181 1659h-983v127h983v-127z" />
    <glyph glyph-name="omacron" unicode="&#x14d;" horiz-adv-x="2834" 
d="M1724 -27h-614q-292 0 -486 36q-193 36 -308 107q-112 69 -158 176q-45 105 -45 243v159q0 138 45 243q46 107 158 176q115 71 308 107q188 35 486 35h614q299 0 487 -35q192 -36 307 -107q114 -70 159 -176q45 -105 45 -243v-159q0 -138 -45 -243q-45 -106 -159 -176
q-115 -71 -307 -107q-193 -36 -487 -36zM1104 168h627q178 0 251 76q74 77 74 241v260q0 163 -74 240q-73 76 -251 76h-627q-179 0 -252 -76q-74 -77 -74 -240v-260q0 -164 74 -241q73 -76 252 -76zM1909 1352h-983v127h983v-127z" />
    <glyph glyph-name="Obreve" unicode="&#x14e;" horiz-adv-x="3379" 
d="M2058 -27h-778q-338 0 -564 45q-224 45 -360 133q-132 86 -188 217q-55 129 -55 298v204q0 169 58 298t196 217q139 88 366 133q229 45 567 45h779q337 0 567 -45q229 -45 367 -133q137 -87 195 -217q59 -132 59 -298v-204q0 -166 -62 -298q-61 -129 -203 -217
q-144 -89 -373 -133q-233 -45 -571 -45zM2120 178q229 0 329 97q101 98 101 335v318q0 238 -99 334t-311 96h-901q-212 0 -311 -96t-99 -334v-318q0 -236 96 -335q94 -97 294 -97h901zM1692 1632q-203 0 -329 69q-128 70 -173 152h203q25 -31 94 -69q67 -37 207 -37t207 37
q69 38 94 69h198q-45 -82 -173 -152q-126 -69 -328 -69z" />
    <glyph glyph-name="obreve" unicode="&#x14f;" horiz-adv-x="2834" 
d="M1724 -27h-614q-292 0 -486 36q-193 36 -308 107q-112 69 -158 176q-45 105 -45 243v159q0 138 45 243q46 107 158 176q115 71 308 107q188 35 486 35h614q299 0 487 -35q192 -36 307 -107q114 -70 159 -176q45 -105 45 -243v-159q0 -138 -45 -243q-45 -106 -159 -176
q-115 -71 -307 -107q-193 -36 -487 -36zM1104 168h627q178 0 251 76q74 77 74 241v260q0 163 -74 240q-73 76 -251 76h-627q-179 0 -252 -76q-74 -77 -74 -240v-260q0 -164 74 -241q73 -76 252 -76zM1419 1325q-202 0 -328 69q-128 70 -173 152h202q25 -31 94 -69
q67 -37 207 -37t207 37q69 38 94 69h199q-45 -82 -173 -152q-126 -69 -329 -69z" />
    <glyph glyph-name="Ohungarumlaut" unicode="&#x150;" horiz-adv-x="3379" 
d="M2058 -27h-778q-338 0 -564 45q-224 45 -360 133q-132 86 -188 217q-55 129 -55 298v204q0 169 58 298t196 217q139 88 366 133q229 45 567 45h779q337 0 567 -45q229 -45 367 -133q137 -87 195 -217q59 -132 59 -298v-204q0 -166 -62 -298q-61 -129 -203 -217
q-144 -89 -373 -133q-233 -45 -571 -45zM2120 178q229 0 329 97q101 98 101 335v318q0 238 -99 334t-311 96h-901q-212 0 -311 -96t-99 -334v-318q0 -236 96 -335q94 -97 294 -97h901zM1903 1618v115l682 90v-115zM1165 1618v115l682 90v-115z" />
    <glyph glyph-name="ohungarumlaut" unicode="&#x151;" horiz-adv-x="2834" 
d="M1724 -27h-614q-292 0 -486 36q-193 36 -308 107q-112 69 -158 176q-45 105 -45 243v159q0 138 45 243q46 107 158 176q115 71 308 107q188 35 486 35h614q299 0 487 -35q192 -36 307 -107q114 -70 159 -176q45 -105 45 -243v-159q0 -138 -45 -243q-45 -106 -159 -176
q-115 -71 -307 -107q-193 -36 -487 -36zM1104 168h627q178 0 251 76q74 77 74 241v260q0 163 -74 240q-73 76 -251 76h-627q-179 0 -252 -76q-74 -77 -74 -240v-260q0 -164 74 -241q73 -76 252 -76zM1630 1311v114l682 91v-115zM893 1311v114l682 91v-115z" />
    <glyph glyph-name="OE" unicode="&#x152;" horiz-adv-x="5083" 
d="M113 870q0 164 58 287q58 124 196 209q135 83 366 127q227 43 567 43h3640v-205h-1950v-448h1950v-205h-1950v-473h1950v-205h-3660q-340 0 -564 43q-228 44 -360 127t-188 209q-55 123 -55 287v204zM1219 205h1095v1126h-1075q-213 0 -311 -91q-99 -92 -99 -312v-318
q0 -220 96 -313q95 -92 294 -92z" />
    <glyph glyph-name="oe" unicode="&#x153;" horiz-adv-x="4702" 
d="M3060 1255h512q277 0 469 -28q196 -29 316 -88q121 -60 177 -153q56 -94 56 -222v-227h-1860v-101q0 -122 103 -182q102 -59 356 -59h1392v-195h-1486q-285 0 -483 27q-200 27 -319 86q-123 61 -176 155q-55 98 -55 232v194q0 138 45 243q45 106 159 176q115 71 307 107
q188 35 487 35zM3521 1061h-467q-179 0 -251 -74q-73 -75 -73 -254v-10h1214v72q0 137 -97 201q-98 65 -326 65zM1724 -27h-614q-292 0 -486 36q-193 36 -308 107q-112 69 -158 176q-45 105 -45 243v159q0 138 45 243q46 107 158 176q115 71 308 107q188 35 486 35h614
q299 0 487 -35q192 -36 307 -107q114 -70 159 -176q45 -105 45 -243v-159q0 -138 -45 -243q-45 -106 -159 -176q-115 -71 -307 -107q-193 -36 -487 -36zM1104 168h627q178 0 251 76q74 77 74 241v260q0 163 -74 240q-73 76 -251 76h-627q-179 0 -252 -76q-74 -77 -74 -240
v-260q0 -164 74 -241q73 -76 252 -76z" />
    <glyph glyph-name="Racute" unicode="&#x154;" horiz-adv-x="3100" 
d="M860 1331v-1331h-676v1536h1872q275 0 455 -19q185 -20 296 -66q113 -47 160 -125q48 -79 48 -195v-74q0 -92 -37 -160q-39 -72 -121 -117q-83 -46 -226 -70t-350 -24h-213q-23 0 -38 -9t-15 -30q0 -17 13 -30q11 -11 32 -23l969 -594h-899l-918 614q-71 47 -105 83
q-30 32 -30 73q0 46 39 68q38 22 109 22h739q222 0 299 39q76 39 76 160v76q0 53 -16 93q-15 37 -56 60q-41 22 -117 33q-73 10 -194 10h-1096zM1143 1659v119l1091 90v-119z" />
    <glyph glyph-name="racute" unicode="&#x155;" horiz-adv-x="1753" 
d="M184 834q0 89 32 162t117 124q87 52 233 80q151 29 378 29h768v-195h-534q-204 0 -287 -47q-82 -46 -82 -164v-823h-625v834zM530 1331v119l1092 90v-119z" />
    <glyph glyph-name="Rcommaaccent" unicode="&#x156;" horiz-adv-x="3100" 
d="M860 1331v-1331h-676v1536h1872q275 0 455 -19q185 -20 296 -66q113 -47 160 -125q48 -79 48 -195v-74q0 -92 -37 -160q-39 -72 -121 -117q-83 -46 -226 -70t-350 -24h-213q-23 0 -38 -9t-15 -30q0 -17 13 -30q11 -11 32 -23l969 -594h-899l-918 614q-71 47 -105 83
q-30 32 -30 73q0 46 39 68q38 22 109 22h739q222 0 299 39q76 39 76 160v76q0 53 -16 93q-15 37 -56 60q-41 22 -117 33q-73 10 -194 10h-1096zM1243 -350q40 61 54 97q16 40 16 114v67h184v-86q0 -57 -18 -99q-17 -40 -64 -93h-172z" />
    <glyph glyph-name="rcommaaccent" unicode="&#x157;" horiz-adv-x="1753" 
d="M184 834q0 89 32 162t117 124q87 52 233 80q151 29 378 29h768v-195h-534q-204 0 -287 -47q-82 -46 -82 -164v-823h-625v834zM336 -350q40 61 54 97q16 40 16 114v67h184v-86q0 -55 -19 -99q-18 -42 -63 -93h-172z" />
    <glyph glyph-name="Rcaron" unicode="&#x158;" horiz-adv-x="3100" 
d="M860 1331v-1331h-676v1536h1872q275 0 455 -19q185 -20 296 -66q113 -47 160 -125q48 -79 48 -195v-74q0 -92 -37 -160q-39 -72 -121 -117q-83 -46 -226 -70t-350 -24h-213q-23 0 -38 -9t-15 -30q0 -17 13 -30q11 -11 32 -23l969 -594h-899l-918 614q-71 47 -105 83
q-30 32 -30 73q0 46 39 68q38 22 109 22h739q222 0 299 39q76 39 76 160v76q0 53 -16 93q-15 37 -56 60q-41 22 -117 33q-73 10 -194 10h-1096zM1552 1649l-620 90v119l620 -91l621 91v-119z" />
    <glyph glyph-name="rcaron" unicode="&#x159;" horiz-adv-x="1753" 
d="M184 834q0 89 32 162t117 124q87 52 233 80q151 29 378 29h768v-195h-534q-204 0 -287 -47q-82 -46 -82 -164v-823h-625v834zM940 1321l-621 90v119l621 -90l621 90v-119z" />
    <glyph glyph-name="Sacute" unicode="&#x15a;" horiz-adv-x="2949" 
d="M150 0v205h1871q125 0 178 43q54 43 54 137q0 83 -57 129q-58 47 -185 47h-1235q-361 0 -517 123q-157 124 -157 358q0 260 191 377t545 117h1947v-205h-1861q-114 0 -170 -40q-58 -41 -58 -132q0 -82 59 -126t163 -44h1320q329 0 469 -134t140 -345q0 -267 -188 -389
q-187 -121 -566 -121h-1943zM1210 1638v119l1092 90v-118z" />
    <glyph glyph-name="sacute" unicode="&#x15b;" horiz-adv-x="2527" 
d="M137 0v195h1594q66 0 103 22q38 23 38 92q0 64 -38 88q-39 25 -103 25h-1168q-224 0 -339 112q-113 110 -113 289q0 198 137 302t430 104h1698v-195h-1561q-71 0 -115 -21q-43 -21 -43 -89q0 -66 43 -90q45 -25 115 -25h1102q278 0 393 -107t115 -272q0 -211 -139 -320
q-140 -110 -449 -110h-1700zM856 1352v118l1092 91v-119z" />
    <glyph glyph-name="Scedilla" unicode="&#x15e;" horiz-adv-x="2949" 
d="M150 0v205h1871q125 0 178 43q54 43 54 137q0 83 -57 129q-58 47 -185 47h-1235q-361 0 -517 123q-157 124 -157 358q0 260 191 377t545 117h1947v-205h-1861q-114 0 -170 -40q-58 -41 -58 -132q0 -82 59 -126t163 -44h1320q329 0 469 -134t140 -345q0 -267 -188 -389
q-187 -121 -566 -121h-1943zM1018 -350l344 360h248l-344 -360h-248z" />
    <glyph glyph-name="scedilla" unicode="&#x15f;" horiz-adv-x="2527" 
d="M137 0v195h1594q66 0 103 22q38 23 38 92q0 64 -38 88q-39 25 -103 25h-1168q-224 0 -339 112q-113 110 -113 289q0 198 137 302t430 104h1698v-195h-1561q-71 0 -115 -21q-43 -21 -43 -89q0 -66 43 -90q45 -25 115 -25h1102q278 0 393 -107t115 -272q0 -211 -139 -320
q-140 -110 -449 -110h-1700zM807 -350l344 360h248l-344 -360h-248z" />
    <glyph glyph-name="Scaron" unicode="&#x160;" horiz-adv-x="2949" 
d="M150 0v205h1871q125 0 178 43q54 43 54 137q0 83 -57 129q-58 47 -185 47h-1235q-361 0 -517 123q-157 124 -157 358q0 260 191 377t545 117h1947v-205h-1861q-114 0 -170 -40q-58 -41 -58 -132q0 -82 59 -126t163 -44h1320q329 0 469 -134t140 -345q0 -267 -188 -389
q-187 -121 -566 -121h-1943zM1620 1628l-621 90v119l621 -90l621 90v-119z" />
    <glyph glyph-name="scaron" unicode="&#x161;" horiz-adv-x="2527" 
d="M137 0v195h1594q66 0 103 22q38 23 38 92q0 64 -38 88q-39 25 -103 25h-1168q-224 0 -339 112q-113 110 -113 289q0 198 137 302t430 104h1698v-195h-1561q-71 0 -115 -21q-43 -21 -43 -89q0 -66 43 -90q45 -25 115 -25h1102q278 0 393 -107t115 -272q0 -211 -139 -320
q-140 -110 -449 -110h-1700zM1266 1341l-621 91v118l621 -90l620 90v-118z" />
    <glyph glyph-name="Tcedilla" unicode="&#x162;" horiz-adv-x="2949" 
d="M1137 0v1331h-1106v205h2887v-205h-1106v-1331h-675zM1018 -350l344 360h248l-344 -360h-248z" />
    <glyph glyph-name="tcedilla" unicode="&#x163;" horiz-adv-x="1986" 
d="M31 1034v195h397v239h625v-239h852v-195h-852v-702q0 -78 50 -108q48 -29 167 -29h635v-195h-891q-306 0 -446 79t-140 251v704h-397zM741 -350l344 360h248l-344 -360h-248z" />
    <glyph glyph-name="Tcaron" unicode="&#x164;" horiz-adv-x="2949" 
d="M1137 0v1331h-1106v205h2887v-205h-1106v-1331h-675zM1477 1649l-621 90v119l621 -91l620 91v-119z" />
    <glyph glyph-name="tcaron" unicode="&#x165;" horiz-adv-x="1986" 
d="M31 1034v195h397v239h625v-239h852v-195h-852v-702q0 -78 50 -108q48 -29 167 -29h635v-195h-891q-306 0 -446 79t-140 251v704h-397zM1647 1329h-283v139h283v-139z" />
    <glyph glyph-name="Tbar" unicode="&#x166;" horiz-adv-x="2949" 
d="M502 666v143h635v522h-1106v205h2887v-205h-1106v-522h635v-143h-635v-666h-675v666h-635z" />
    <glyph glyph-name="tbar" unicode="&#x167;" horiz-adv-x="2355" 
d="M143 584v123h285v327h-397v195h397v239h625v-239h852v-195h-852v-327h508v-123h-508v-252q0 -78 50 -108q48 -29 167 -29h635v-195h-891q-306 0 -446 79t-140 251v254h-285z" />
    <glyph glyph-name="Utilde" unicode="&#x168;" horiz-adv-x="3317" 
d="M1290 -16q-316 0 -526 31q-209 31 -341 96q-128 63 -183 160q-56 98 -56 227v1038h676v-1053q0 -153 80 -224t293 -71h852q213 0 293 71t80 224v1053h675v-1038q0 -130 -55 -227t-183 -160q-132 -65 -341 -96q-210 -31 -526 -31h-738zM1841 1665l102 -11q27 -3 42 -3
q26 0 37 11q12 12 12 32v30h120v-79q0 -63 -46 -94t-121 -31q-22 0 -52 3q-9 1 -42.5 4.5t-59.5 6.5l-356 45l-102 11q-27 3 -42 3q-27 0 -38 -11t-11 -32v-30h-121v79q0 63 46 94t122 31q36 0 66 -3q18 -2 88 -11z" />
    <glyph glyph-name="utilde" unicode="&#x169;" horiz-adv-x="2764" 
d="M2580 1229v-1229h-1712q-187 0 -322 26q-133 26 -212 78q-80 53 -115 138t-35 198v789h625v-813q0 -122 65 -166q66 -45 238 -45h844v1024h624zM1565 1419l101 -11q27 -3 42 -3q27 0 38 11t11 32v31h121v-80q0 -62 -46 -93q-47 -32 -122 -32q-21 0 -51 3q-9 1 -43.5 4.5
t-59.5 6.5l-356 45l-101 12q-27 3 -42 3q-26 0 -38 -12q-11 -11 -11 -31v-31h-121v80q0 62 46 93q47 32 122 32q35 0 65 -3q11 -1 42 -5.5t46 -6.5z" />
    <glyph glyph-name="Umacron" unicode="&#x16a;" horiz-adv-x="3317" 
d="M1290 -16q-316 0 -526 31q-209 31 -341 96q-128 63 -183 160q-56 98 -56 227v1038h676v-1053q0 -153 80 -224t293 -71h852q213 0 293 71t80 224v1053h675v-1038q0 -130 -55 -227t-183 -160q-132 -65 -341 -96q-210 -31 -526 -31h-738zM2150 1556h-983v127h983v-127z" />
    <glyph glyph-name="umacron" unicode="&#x16b;" horiz-adv-x="2764" 
d="M2580 1229v-1229h-1712q-187 0 -322 26q-133 26 -212 78q-80 53 -115 138t-35 198v789h625v-813q0 -122 65 -166q66 -45 238 -45h844v1024h624zM1874 1311h-983v127h983v-127z" />
    <glyph glyph-name="Ubreve" unicode="&#x16c;" horiz-adv-x="3317" 
d="M1290 -16q-316 0 -526 31q-209 31 -341 96q-128 63 -183 160q-56 98 -56 227v1038h676v-1053q0 -153 80 -224t293 -71h852q213 0 293 71t80 224v1053h675v-1038q0 -130 -55 -227t-183 -160q-132 -65 -341 -96q-210 -31 -526 -31h-738zM1661 1530q-205 0 -329 68
q-127 69 -173 153h203q27 -33 94 -70q65 -36 207 -36t207 36q67 37 94 70h199q-46 -84 -173 -153q-124 -68 -329 -68z" />
    <glyph glyph-name="ubreve" unicode="&#x16d;" horiz-adv-x="2764" 
d="M2580 1229v-1229h-1712q-187 0 -322 26q-133 26 -212 78q-80 53 -115 138t-35 198v789h625v-813q0 -122 65 -166q66 -45 238 -45h844v1024h624zM1384 1284q-202 0 -328 69q-128 70 -173 152h202q24 -30 95 -69q67 -37 206 -37q140 0 207 37q71 39 95 69h198
q-45 -82 -173 -152q-126 -69 -329 -69z" />
    <glyph glyph-name="Uring" unicode="&#x16e;" horiz-adv-x="3317" 
d="M1290 -16q-316 0 -526 31q-209 31 -341 96q-128 63 -183 160q-56 98 -56 227v1038h676v-1053q0 -153 80 -224t293 -71h852q213 0 293 71t80 224v1053h675v-1038q0 -130 -55 -227t-183 -160q-132 -65 -341 -96q-210 -31 -526 -31h-738zM1188 1681q0 72 73 110t244 38h310
q173 0 244 -37q73 -38 73 -106q0 -71 -73 -109q-71 -37 -244 -37h-310q-172 0 -244 36q-73 36 -73 105zM2001 1683q0 21 -42 33q-45 13 -192 13h-215q-146 0 -191 -13q-42 -12 -42 -33q0 -19 42 -31t191 -12h215q150 0 192 12t42 31z" />
    <glyph glyph-name="uring" unicode="&#x16f;" horiz-adv-x="2764" 
d="M2580 1229v-1229h-1712q-187 0 -322 26q-133 26 -212 78q-80 53 -115 138t-35 198v789h625v-813q0 -122 65 -166q66 -45 238 -45h844v1024h624zM911 1436q0 71 73 109t245 38h309q174 0 245 -37q72 -38 72 -106q0 -72 -72 -109q-71 -37 -245 -37h-309q-173 0 -245 36
q-73 36 -73 106zM1724 1438q0 20 -42 32q-46 13 -191 13h-215q-146 0 -192 -13q-42 -12 -42 -32t42 -32q39 -11 192 -11h215q153 0 191 11q42 12 42 32z" />
    <glyph glyph-name="Uhungarumlaut" unicode="&#x170;" horiz-adv-x="3317" 
d="M1290 -16q-316 0 -526 31q-209 31 -341 96q-128 63 -183 160q-56 98 -56 227v1038h676v-1053q0 -153 80 -224t293 -71h852q213 0 293 71t80 224v1053h675v-1038q0 -130 -55 -227t-183 -160q-132 -65 -341 -96q-210 -31 -526 -31h-738zM1872 1516v114l682 90v-114z
M1135 1516v114l682 90v-114z" />
    <glyph glyph-name="uhungarumlaut" unicode="&#x171;" horiz-adv-x="2764" 
d="M2580 1229v-1229h-1712q-187 0 -322 26q-133 26 -212 78q-80 53 -115 138t-35 198v789h625v-813q0 -122 65 -166q66 -45 238 -45h844v1024h624zM1595 1270v114l682 91v-115zM858 1270v114l682 91v-115z" />
    <glyph glyph-name="Uogonek" unicode="&#x172;" horiz-adv-x="3317" 
d="M1290 -16q-316 0 -526 31q-209 31 -341 96q-128 63 -183 160q-56 98 -56 227v1038h676v-1053q0 -153 80 -224t293 -71h852q213 0 293 71t80 224v1053h675v-1038q0 -130 -55 -227t-183 -160q-132 -65 -341 -96q-210 -31 -526 -31h-738zM1444 -207q0 -15 17 -22
q22 -9 69 -9h457v-112h-484q-151 0 -195 35t-44 73q0 52 46 83q49 33 152 65l305 94h220l-381 -131q-48 -16 -125 -44q-37 -13 -37 -32z" />
    <glyph glyph-name="uogonek" unicode="&#x173;" horiz-adv-x="2764" 
d="M2580 1229v-1229h-1712q-187 0 -322 26q-133 26 -212 78q-80 53 -115 138t-35 198v789h625v-813q0 -122 65 -166q66 -45 238 -45h844v1024h624zM2038 -207q0 -15 17 -22q22 -9 69 -9h456v-112h-483q-151 0 -195 35t-44 73q0 52 46 83q49 33 152 65l305 94h219l-380 -131
q-48 -16 -125 -44q-37 -13 -37 -32z" />
    <glyph glyph-name="Wcircumflex" unicode="&#x174;" horiz-adv-x="4798" 
d="M717 1536l481 -1300q11 -32 31 -49t59 -17q36 0 57 15t33 48l394 1057q52 138 223 205q174 68 481 68q304 0 472 -74q166 -73 210 -191l377 -1054q15 -39 36 -57q20 -17 60 -17q35 0 53 18t31 50l510 1298h635l-506 -1210q-79 -188 -259 -270q-183 -83 -478 -83
q-167 0 -289 21q-123 21 -206 62q-84 41 -139 107q-55 65 -87 152l-365 953q-11 28 -25 42q-15 15 -48 15q-38 0 -51 -14q-12 -14 -23 -41l-367 -951q-69 -178 -241 -262t-500 -84q-313 0 -481 83q-166 82 -246 274l-508 1206h676zM2400 1868l621 -90v-119l-621 90l-620 -90
v119z" />
    <glyph glyph-name="wcircumflex" unicode="&#x175;" horiz-adv-x="4059" 
d="M664 1229l397 -1034q8 -19 18 -32t31 -13q25 0 37 13q11 13 16 32l232 819q39 136 203 188q167 53 432 53q278 0 452 -57t207 -180l223 -819q5 -18 17 -35q10 -14 32 -14q29 0 39 12q12 14 19 33l413 1034h607l-439 -981q-73 -166 -232 -220q-162 -55 -413 -55
q-268 0 -421 63q-151 62 -195 210l-225 788q-6 21 -27 33t-55 12q-35 0 -52 -13q-18 -14 -24 -34l-244 -790q-45 -143 -193 -206t-436 -63q-272 0 -423 61q-148 60 -214 210l-426 985h644zM2030 1561l620 -91v-118l-620 90l-621 -90v118z" />
    <glyph glyph-name="Ycircumflex" unicode="&#x176;" horiz-adv-x="3010" 
d="M1239 0v479l-1239 1057h836l786 -688q59 -51 102 -52q42 -1 103 52l768 688h416l-1137 -1047v-489h-635zM1763 1683l621 -90v-118l-621 90l-620 -90v118z" />
    <glyph glyph-name="ycircumflex" unicode="&#x177;" horiz-adv-x="2764" 
d="M1894 57q-88 -123 -168 -195q-80 -73 -188 -110q-102 -36 -269 -48q-147 -11 -409 -11h-776v188h709q141 0 222 7q86 7 145 27t97 56q40 38 78 97l37 55h-336q-78 0 -126 24q-46 23 -97 86l-793 996h693l690 -907q24 -33 53 -33q28 0 51 33l619 907h618zM1413 1499
l621 -90v-119l-621 90l-620 -90v119z" />
    <glyph glyph-name="Ydieresis" unicode="&#x178;" horiz-adv-x="3010" 
d="M1239 0v479l-1239 1057h836l786 -688q59 -51 102 -52q42 -1 103 52l768 688h416l-1137 -1047v-489h-635zM1102 1602h598v-127h-598v127zM1821 1602h598v-127h-598v127z" />
    <glyph glyph-name="Zacute" unicode="&#x179;" horiz-adv-x="2918" 
d="M2789 0h-2058q-354 0 -506 85q-153 85 -153 257q0 82 33 142q35 63 113 115q80 53 211 102q149 56 325 104l1276 358q48 15 79 33q31 19 31 57q0 42 -32 60t-97 18h-1911v205h1991q413 0 579 -78t166 -256q0 -149 -140 -253q-142 -106 -486 -201l-1362 -379
q-45 -12 -73 -34q-27 -21 -27 -52q0 -39 27 -59q26 -19 85 -19h1929v-205zM1042 1659v119l1092 90v-119z" />
    <glyph glyph-name="zacute" unicode="&#x17a;" horiz-adv-x="2486" 
d="M2388 0h-1991q-167 0 -238 52q-73 53 -73 138q0 81 61 142q62 62 234 131l1173 481q21 7 35 19q13 11 13 30q0 23 -18 32t-46 9h-1432v195h1942q168 0 261 -41q91 -40 91 -146q0 -84 -72 -145q-69 -59 -243 -133l-1167 -490q-28 -12 -39 -20q-15 -10 -15 -25
q0 -19 18 -27q17 -7 44 -7h1462v-195zM862 1352v118l1092 91v-119z" />
    <glyph glyph-name="Zdotaccent" unicode="&#x17b;" horiz-adv-x="2918" 
d="M2789 0h-2058q-354 0 -506 85q-153 85 -153 257q0 82 33 142q35 63 113 115q80 53 211 102q149 56 325 104l1276 358q48 15 79 33q31 19 31 57q0 42 -32 60t-97 18h-1911v205h1991q413 0 579 -78t166 -256q0 -149 -140 -253q-142 -106 -486 -201l-1362 -379
q-45 -12 -73 -34q-27 -21 -27 -52q0 -39 27 -59q26 -19 85 -19h1929v-205zM1591 1663h-282v139h282v-139z" />
    <glyph glyph-name="zdotaccent" unicode="&#x17c;" horiz-adv-x="2486" 
d="M2388 0h-1991q-167 0 -238 52q-73 53 -73 138q0 81 61 142q62 62 234 131l1173 481q21 7 35 19q13 11 13 30q0 23 -18 32t-46 9h-1432v195h1942q168 0 261 -41q91 -40 91 -146q0 -84 -72 -145q-69 -59 -243 -133l-1167 -490q-28 -12 -39 -20q-15 -10 -15 -25
q0 -19 18 -27q17 -7 44 -7h1462v-195zM1411 1356h-283v139h283v-139z" />
    <glyph glyph-name="Zcaron" unicode="&#x17d;" horiz-adv-x="2918" 
d="M2789 0h-2058q-354 0 -506 85q-153 85 -153 257q0 82 33 142q35 63 113 115q80 53 211 102q149 56 325 104l1276 358q48 15 79 33q31 19 31 57q0 42 -32 60t-97 18h-1911v205h1991q413 0 579 -78t166 -256q0 -149 -140 -253q-142 -106 -486 -201l-1362 -379
q-45 -12 -73 -34q-27 -21 -27 -52q0 -39 27 -59q26 -19 85 -19h1929v-205zM1452 1649l-621 90v119l621 -91l621 91v-119z" />
    <glyph glyph-name="zcaron" unicode="&#x17e;" horiz-adv-x="2486" 
d="M2388 0h-1991q-167 0 -238 52q-73 53 -73 138q0 81 61 142q62 62 234 131l1173 481q21 7 35 19q13 11 13 30q0 23 -18 32t-46 9h-1432v195h1942q168 0 261 -41q91 -40 91 -146q0 -84 -72 -145q-69 -59 -243 -133l-1167 -490q-28 -12 -39 -20q-15 -10 -15 -25
q0 -19 18 -27q17 -7 44 -7h1462v-195zM1272 1341l-621 91v118l621 -90l620 90v-118z" />
    <glyph glyph-name="Schwa" unicode="&#x18f;" horiz-adv-x="2957" 
d="M1786 0h-615q-287 0 -493 29q-205 29 -328 88q-125 60 -181 152q-56 91 -56 223v403h2056v174q0 122 -104 182t-355 60h-1597v225h1699q285 0 483 -27q200 -27 319 -86q123 -61 176 -155q55 -98 55 -232v-475q0 -137 -56 -243q-56 -107 -179 -176q-123 -70 -328 -106
q-204 -36 -496 -36zM1128 225h738q165 0 234 74t69 254v117h-1362v-158q0 -164 69 -225q70 -62 252 -62z" />
    <glyph glyph-name="Scommaaccent" unicode="&#x218;" horiz-adv-x="2949" 
d="M150 0v205h1871q125 0 178 43q54 43 54 137q0 83 -57 129q-58 47 -185 47h-1235q-361 0 -517 123q-157 124 -157 358q0 260 191 377t545 117h1947v-205h-1861q-114 0 -170 -40q-58 -41 -58 -132q0 -82 59 -126t163 -44h1320q329 0 469 -134t140 -345q0 -267 -188 -389
q-187 -121 -566 -121h-1943zM1311 -350q40 61 54 97q15 37 15 114v67h185v-86q0 -55 -19 -99q-18 -42 -63 -93h-172z" />
    <glyph glyph-name="scommaaccent" unicode="&#x219;" horiz-adv-x="2527" 
d="M137 0v195h1594q66 0 103 22q38 23 38 92q0 64 -38 88q-39 25 -103 25h-1168q-224 0 -339 112q-113 110 -113 289q0 198 137 302t430 104h1698v-195h-1561q-71 0 -115 -21q-43 -21 -43 -89q0 -66 43 -90q45 -25 115 -25h1102q278 0 393 -107t115 -272q0 -211 -139 -320
q-140 -110 -449 -110h-1700zM1100 -350q40 61 54 97q15 37 15 114v67h185v-86q0 -55 -19 -99q-18 -42 -63 -93h-172z" />
    <glyph glyph-name="Tcommaaccent" unicode="&#x21a;" horiz-adv-x="2949" 
d="M1137 0v1331h-1106v205h2887v-205h-1106v-1331h-675zM1311 -350q40 61 54 97q15 37 15 114v67h185v-86q0 -55 -19 -99q-18 -42 -63 -93h-172z" />
    <glyph glyph-name="tcommaaccent" unicode="&#x21b;" horiz-adv-x="1986" 
d="M31 1034v195h397v239h625v-239h852v-195h-852v-702q0 -78 50 -108q48 -29 167 -29h635v-195h-891q-306 0 -446 79t-140 251v704h-397zM1034 -350q42 65 55 97q15 37 15 114v67h184v-86q0 -57 -18 -99q-17 -40 -64 -93h-172z" />
    <glyph glyph-name="ipa:schwa" unicode="&#x259;" horiz-adv-x="2752" 
d="M1642 -27h-512q-270 0 -468 29q-197 29 -317 88q-121 60 -177 153q-55 92 -55 222v227h1859v101q0 122 -103 182q-102 59 -356 59h-1392v195h1487q284 0 482 -27q200 -27 319 -86q124 -61 177 -155q54 -96 54 -232v-194q0 -138 -45 -243q-45 -106 -159 -176
q-115 -71 -307 -107q-193 -36 -487 -36zM1182 168h467q179 0 251 74t72 254v10h-1214v-72q0 -138 97 -202t327 -64z" />
    <glyph glyph-name="circumflex" unicode="&#x2c6;" horiz-adv-x="1447" 
d="M725 1561l621 -91v-118l-621 90l-621 -90v118z" />
    <glyph glyph-name="caron" unicode="&#x2c7;" horiz-adv-x="1447" 
d="M725 1341l-621 91v118l621 -90l621 90v-118z" />
    <glyph glyph-name="breve" unicode="&#x2d8;" horiz-adv-x="1488" 
d="M745 1325q-202 0 -328 69q-128 70 -173 152h202q24 -30 95 -69q67 -37 207 -37q139 0 206 37q71 39 95 69h198q-45 -82 -173 -152q-126 -69 -329 -69z" />
    <glyph glyph-name="dotaccent" unicode="&#x2d9;" horiz-adv-x="1044" 
d="M664 1356h-283v139h283v-139z" />
    <glyph glyph-name="ring" unicode="&#x2da;" horiz-adv-x="1488" 
d="M272 1477q0 71 73 109t245 38h309q174 0 245 -37q73 -38 73 -106q0 -71 -73 -109q-71 -37 -245 -37h-309q-173 0 -245 36q-73 37 -73 106zM1085 1479q0 20 -42 32q-45 13 -191 13h-215q-147 0 -192 -13q-42 -12 -42 -32t42 -32q38 -11 192 -11h215q152 0 191 11
q42 12 42 32z" />
    <glyph glyph-name="ogonek" unicode="&#x2db;" horiz-adv-x="667" 
d="M-33 -207q0 -15 18 -22q22 -9 68 -9h457v-112h-483q-152 0 -196 35t-44 73q0 52 46 83q48 32 153 65l305 94h219l-381 -131q-48 -16 -125 -44q-37 -13 -37 -32z" />
    <glyph glyph-name="tilde" unicode="&#x2dc;" horiz-adv-x="1761" 
d="M1063 1460l101 -11q27 -3 42 -3q27 0 38 11t11 32v31h121v-80q0 -62 -46 -93q-47 -32 -122 -32q-21 0 -51 3q-9 1 -42.5 4.5t-59.5 6.5l-357 45l-101 11q-36 4 -42 4q-26 0 -38 -12q-11 -11 -11 -31v-31h-121v80q0 62 46 93q47 32 122 32q35 0 65 -3q9 -1 22 -3
t32.5 -4.5t34.5 -4.5z" />
    <glyph glyph-name="hungarumlaut" unicode="&#x2dd;" horiz-adv-x="1044" 
d="M735 1413v115l682 90v-115zM-2 1413v115l682 90v-115z" />
    <glyph glyph-name="thinspace" unicode="&#x2009;" horiz-adv-x="430" 
 />
    <glyph glyph-name="endash" unicode="&#x2013;" horiz-adv-x="1437" 
d="M61 471v287h1315v-287h-1315z" />
    <glyph glyph-name="emdash" unicode="&#x2014;" horiz-adv-x="2052" 
d="M61 471v287h1930v-287h-1930z" />
    <glyph glyph-name="quoteleft" unicode="&#x2018;" horiz-adv-x="835" 
d="M752 1536q-101 -107 -137 -202q-35 -92 -35 -204v-165h-451v143q0 128 74 228q74 99 221 200h328z" />
    <glyph glyph-name="quoteright" unicode="&#x2019;" horiz-adv-x="835" 
d="M84 965q100 106 136 201q36 94 36 204v166h451v-143q0 -129 -74 -229q-72 -97 -221 -199h-328z" />
    <glyph glyph-name="quotesinglbase" unicode="&#x201a;" horiz-adv-x="835" 
d="M84 -367q99 105 136 202q36 95 36 204v166h451v-144q0 -128 -74 -228q-74 -99 -221 -200h-328z" />
    <glyph glyph-name="quotedblleft" unicode="&#x201c;" horiz-adv-x="1308" 
d="M745 1536q-99 -105 -136 -202q-36 -94 -36 -204v-165h-450v143q0 128 74 228q74 99 221 200h327zM1278 1536q-99 -105 -136 -202q-36 -94 -36 -204v-165h-451v143q0 128 74 228q74 99 221 200h328z" />
    <glyph glyph-name="quotedblright" unicode="&#x201d;" horiz-adv-x="1308" 
d="M563 965q100 106 136 201q36 94 36 204v166h451v-143q0 -129 -74 -229q-72 -97 -221 -199h-328zM31 965q100 106 136 201q36 94 36 204v166h450v-143q0 -131 -73 -229q-71 -96 -222 -199h-327z" />
    <glyph glyph-name="quotedblbase" unicode="&#x201e;" horiz-adv-x="1308" 
d="M563 -367q99 105 136 202q36 94 36 204v166h451v-144q0 -128 -74 -228q-74 -99 -221 -200h-328zM31 -367q99 105 136 202q36 94 36 204v166h450v-144q0 -130 -73 -228t-222 -200h-327z" />
    <glyph glyph-name="dagger" unicode="&#x2020;" horiz-adv-x="1853" 
d="M41 963v266h582v307h624v-307h580v-266h-580v-963h-624v963h-582z" />
    <glyph glyph-name="daggerdbl" unicode="&#x2021;" horiz-adv-x="1867" 
d="M41 307v266h582v390h-582v266h582v307h624v-307h580v-266h-580v-390h580v-266h-580v-307h-624v307h-582z" />
    <glyph glyph-name="bullet" unicode="&#x2022;" horiz-adv-x="1036" 
d="M205 614q0 155 79 235q80 81 234 81q158 0 236 -81q77 -80 77 -235q0 -154 -77 -235q-78 -82 -236 -82q-155 0 -234 82t-79 235z" />
    <glyph glyph-name="ellipsis" unicode="&#x2026;" horiz-adv-x="2160" 
d="M102 0v420h564v-420h-564zM799 0v420h563v-420h-563zM1495 0v420h563v-420h-563z" />
    <glyph glyph-name="perthousand" unicode="&#x2030;" horiz-adv-x="4550" 
d="M205 1139v116q0 141 95 227q94 85 232 85h709q130 0 224 -85q96 -87 96 -227v-116q0 -141 -96 -229q-95 -87 -224 -87h-709q-138 0 -232 87q-95 87 -95 229zM2064 920h-387l768 616h410zM623 1247v-112q0 -53 22 -82q23 -31 74 -31h325q55 0 77 31t22 82v112q0 53 -22 88
q-21 33 -77 33h-325q-51 0 -74 -33q-22 -32 -22 -88zM2982 299v117q0 140 95 226q94 85 233 85h716q131 0 225 -85q95 -86 95 -226v-117q0 -141 -95 -228t-225 -87h-716q-138 0 -233 87t-95 228zM1507 299v117q0 139 96 226q94 85 232 85h717q130 0 224 -85q95 -86 95 -226
v-117q0 -141 -95 -228q-94 -87 -224 -87h-717q-137 0 -232 87q-96 88 -96 228zM973 616h387l-768 -616h-410zM3400 408v-113q0 -53 22 -82q23 -31 74 -31h334q55 0 77 31q21 30 21 82v113q0 55 -21 88q-20 32 -77 32h-334q-52 0 -74 -32t-22 -88zM1925 408v-113
q0 -51 23 -82t73 -31h334q55 0 77 31t22 82v113q0 53 -22 88q-20 32 -77 32h-334q-51 0 -73 -32q-23 -34 -23 -88z" />
    <glyph glyph-name="guilsinglleft" unicode="&#x2039;" horiz-adv-x="1353" 
d="M1272 1126l-686 -464l686 -457h-559l-492 305q-37 22 -67 61q-31 40 -31 91q0 50 32 91q29 38 66 60l492 313h559z" />
    <glyph glyph-name="guilsinglright" unicode="&#x203a;" horiz-adv-x="1353" 
d="M1133 510l-492 -305h-559l686 457l-686 464h559l492 -313q37 -22 66 -60q32 -41 32 -91q0 -51 -31 -91q-30 -39 -67 -61z" />
    <glyph glyph-name="Euro" unicode="&#x20ac;" horiz-adv-x="3379" 
d="M41 506v205h502v116h-502v205h518q57 254 335 379q279 125 851 125h1409v-205h-1409q-135 0 -218 -14q-92 -16 -144 -49q-54 -34 -81 -92q-29 -61 -36 -144h1560v-205h-1566v-116h1566v-205h-1560q7 -84 37 -145q28 -58 85 -92q56 -34 148 -49t229 -15h1389v-205h-1409
q-287 0 -509 31q-214 30 -355 93t-219 159t-105 223h-516z" />
    <glyph glyph-name="manat" unicode="&#x20bc;" horiz-adv-x="3031" 
d="M1290 1331h123v205h205v-205h123q310 0 526 -32q212 -31 341 -95q127 -63 183 -161t56 -226v-817h-676v831q0 154 -80 225q-79 70 -293 70h-180v-921h-205v921h-180q-214 0 -293 -70q-80 -71 -80 -225v-831h-676v817q0 128 56 226t183 161q129 64 341 95q216 32 526 32z
" />
    <glyph glyph-name="ruble" unicode="&#x20bd;" horiz-adv-x="3004" 
d="M-102 307v195h286v143h-286v195h286v696h1749q295 0 479 -19q187 -19 300 -68q109 -47 155 -131q45 -82 45 -208v-53q0 -107 -45 -186q-44 -78 -154 -128q-108 -49 -299 -73q-197 -25 -477 -25h-1077v-143h965v-195h-965v-307h-676v307h-286zM860 1331v-491h1096
q130 0 190 42t60 156v97q0 109 -60 153q-59 43 -190 43h-1096z" />
    <glyph glyph-name="numero" unicode="&#x2116;" horiz-adv-x="5773" 
d="M4755 571h-327q-234 0 -404 25q-163 24 -263 80t-143 147q-44 93 -44 228v36q0 135 44 228q43 91 143 147t263 80q170 25 404 25h327q234 0 404 -25q163 -24 263 -80t143 -147q44 -93 44 -228v-36q0 -135 -44 -228q-43 -91 -143 -147t-263 -80q-170 -25 -404 -25zM184 0
v1229q0 163 189 248q190 86 559 86q300 0 531 -57q232 -57 337 -222l672 -1040q18 -28 46 -47t60 -19q55 0 70 26q14 24 14 83v1249h676v-1243q0 -167 -198 -243q-199 -77 -588 -77q-279 0 -488 62q-206 61 -301 209l-673 1036q-22 34 -58 57q-33 21 -74 21q-61 0 -80 -28
q-18 -27 -18 -89v-1241h-676zM4483 745h217q161 0 223 56t62 200v138q0 142 -62 198t-223 56h-217q-158 0 -222 -56q-63 -55 -63 -198v-138q0 -145 63 -200q64 -56 222 -56zM3668 225v205h1847v-205h-1847z" />
    <glyph glyph-name="trademark" unicode="&#x2122;" horiz-adv-x="3573" 
d="M1446 770v623q0 77 104 119q105 42 314 42q177 0 292 -32q117 -33 138 -105l131 -467q4 -16 16 -22t33 -6q18 0 28 8q9 7 13 22l133 465q21 72 127 105q103 32 289 32q196 0 302 -41q105 -41 105 -120v-623h-366v576q0 29 -10 42t-41 13q-30 0 -42 -13q-13 -15 -20 -40
l-141 -455q-23 -75 -127 -106q-103 -31 -264 -31q-157 0 -259 30q-101 30 -124 105l-148 457q-7 23 -19 38t-42 15q-29 0 -43 -11q-15 -12 -15 -42v-578h-364zM496 770v608h-476v158h1332v-158h-471v-608h-385z" />
    <glyph glyph-name="onethird" unicode="&#x2153;" horiz-adv-x="2959" 
d="M1964 879h-367l809 657h390zM252 877v151h407v330q0 10 -8 18t-28 8h-371v152h563q111 0 155 -26t44 -89v-393h350v-151h-1112zM1602 264v131h614q67 0 96 16q27 15 27 40v20q0 26 -26 43q-25 16 -95 16h-616v129h698q253 0 370 -35q119 -36 119 -126v-21q0 -59 -50 -94
q-49 -34 -156 -49q107 -12 156 -42q50 -30 50 -89v-41q0 -93 -119 -127q-122 -35 -370 -35h-698v127h616q70 0 95 13q26 14 26 38v33q0 23 -27 38t-96 15h-614zM995 657h367l-809 -657h-389z" />
    <glyph glyph-name="arrowleft" unicode="&#x2190;" horiz-adv-x="2793" 
d="M1763 1536l-1155 -604h2145v-328h-2135l1145 -606h-520l-1077 563q-66 34 -105 81q-41 49 -41 116t41 114t105 82l1077 582h520z" />
    <glyph glyph-name="arrowup" unicode="&#x2191;" horiz-adv-x="2930" 
d="M1825 0h-717v1157l-1067 -536v286l1116 539q95 45 162 78q65 32 145 32q85 0 150 -33q53 -27 162 -79l1114 -537v-286l-1065 538v-1159z" />
    <glyph glyph-name="arrowright" unicode="&#x2192;" horiz-adv-x="2793" 
d="M41 602v328h2134l-1145 606h520l1078 -563q64 -33 104 -81q41 -49 41 -116t-41 -114q-42 -48 -104 -82l-1078 -582h-520l1155 604h-2144z" />
    <glyph glyph-name="arrowdown" unicode="&#x2193;" horiz-adv-x="2930" 
d="M1825 1536v-1159l1065 538v-286l-1114 -537q-109 -52 -162 -79q-65 -33 -150 -33q-80 0 -145 32q-67 33 -162 78l-1116 539v286l1067 -536v1157h717z" />
    <glyph glyph-name="arrowNW" unicode="&#x2196;" horiz-adv-x="1966" 
d="M1356 0l-948 948v-948h-224v1182q0 178 90 266q89 88 269 88h1218v-203h-927l948 -948z" />
    <glyph glyph-name="arrowNE" unicode="&#x2197;" horiz-adv-x="1966" 
d="M610 0l-426 385l949 948h-928v203h1218q180 0 269 -88q90 -89 90 -266v-1182h-223v948z" />
    <glyph glyph-name="arrowSE" unicode="&#x2198;" horiz-adv-x="1966" 
d="M205 203h928l-949 948l426 385l949 -948v948h223v-1182q0 -178 -90 -266q-89 -88 -269 -88h-1218v203z" />
    <glyph glyph-name="arrowSW" unicode="&#x2199;" horiz-adv-x="1966" 
d="M1761 203v-203h-1218q-180 0 -269 88q-90 89 -90 266v1182h224v-948l948 948l426 -385l-948 -948h927z" />
    <glyph glyph-name="minus" unicode="&#x2212;" horiz-adv-x="1724" 
d="M205 653v232h1315v-232h-1315z" />
    <glyph glyph-name="squareblack" unicode="&#x25a0;" horiz-adv-x="1372" 
d="M1186 270h-998v998h998v-998z" />
    <glyph glyph-name="triangleupblack" unicode="&#x25b2;" horiz-adv-x="1415" 
d="M176 381l531 919l532 -919h-1063z" />
    <glyph glyph-name="trianglerightblack" unicode="&#x25b6;" horiz-adv-x="1249" 
d="M176 1300l920 -530l-920 -532v1062z" />
    <glyph glyph-name="triangledownblack" unicode="&#x25bc;" horiz-adv-x="1415" 
d="M176 1196h1063l-532 -920z" />
    <glyph glyph-name="triangleleftblack" unicode="&#x25c0;" horiz-adv-x="1249" 
d="M1073 1300v-1062l-919 532z" />
    <glyph glyph-name="circleblack" unicode="&#x25cf;" horiz-adv-x="1480" 
d="M739 233q-115 0 -216 40q-100 40 -176 111q-76 72 -119 169q-44 100 -44 213q0 114 44 214q43 98 119 171q77 74 176 113q103 41 216 41t216 -41q100 -40 178 -113q75 -70 119 -171q44 -100 44 -214q0 -113 -44 -213t-119 -169q-77 -71 -178 -111t-216 -40z" />
    <glyph glyph-name="commaaccent" unicode="&#xf6c3;" horiz-adv-x="802" 
d="M258 -350q40 61 54 97q16 40 16 114v67h184v-86q0 -57 -18 -99q-17 -40 -64 -93h-172z" />
    <glyph glyph-name="period.thin" horiz-adv-x="440" 
d="M102 0v379h236v-379h-236z" />
    <glyph glyph-name="comma.thin" horiz-adv-x="434" 
d="M10 -406q51 106 69 202q17 89 17 204v379h236v-356q0 -130 -36 -229t-110 -200h-176z" />
    <glyph glyph-name="semicolon.thin" horiz-adv-x="434" 
d="M96 850v379h236v-379h-236zM10 -406q51 106 69 202q17 89 17 204v379h236v-356q0 -130 -36 -229t-110 -200h-176z" />
    <glyph glyph-name="colon.thin" horiz-adv-x="440" 
d="M102 850v379h236v-379h-236zM102 0v379h236v-379h-236z" />
    <glyph glyph-name="ellipsis.thin" horiz-adv-x="1669" 
d="M102 0v379h236v-379h-236zM717 0v379h235v-379h-235zM1331 0v379h236v-379h-236z" />
    <glyph glyph-name="quoteleft.thin" horiz-adv-x="479" 
d="M418 1532q-58 -92 -95 -181q-36 -85 -36 -225v-165h-164v184q0 117 39 212q40 97 102 175h154z" />
    <glyph glyph-name="quoteright.thin" horiz-adv-x="479" 
d="M61 965q61 97 96 181q36 86 36 224v166h163v-184q0 -118 -39 -212q-40 -97 -102 -175h-154z" />
    <glyph glyph-name="quotedblleft.thin" horiz-adv-x="765" 
d="M705 1536q-61 -97 -96 -181q-36 -85 -36 -225v-165h-163v184q0 117 39 212q40 97 102 175h154zM418 1536q-58 -92 -95 -181q-36 -85 -36 -225v-165h-164v184q0 117 39 212q40 97 102 175h154z" />
    <glyph glyph-name="quotedblright.thin" horiz-adv-x="765" 
d="M61 965q61 97 96 181q36 86 36 224v166h163v-184q0 -118 -39 -212q-40 -97 -102 -175h-154zM348 965q58 92 95 181q36 86 36 224v166h164v-184q0 -118 -39 -212q-40 -97 -102 -175h-154z" />
    <glyph glyph-name="quotesinglbase.thin" horiz-adv-x="479" 
d="M61 -205q61 97 96 181q36 86 36 225v166h163v-185q0 -118 -39 -212q-40 -97 -102 -175h-154z" />
    <glyph glyph-name="quotedblbase.thin" horiz-adv-x="765" 
d="M61 -307q61 97 96 181q36 85 36 224v166h163v-184q0 -118 -39 -212q-40 -97 -102 -175h-154zM348 -307q58 92 95 181q36 86 36 224v166h164v-184q0 -118 -39 -212q-40 -97 -102 -175h-154z" />
    <glyph glyph-name="guilsinglleft.thin" horiz-adv-x="1148" 
d="M1067 1126l-723 -464l723 -457h-354l-496 305q-38 24 -66 62q-28 39 -28 90q0 50 29 90q29 39 65 61l496 313h354z" />
    <glyph glyph-name="guilsinglright.thin" horiz-adv-x="1148" 
d="M932 510l-496 -305h-354l723 457l-723 464h354l496 -313q36 -22 65 -61q29 -40 29 -90q0 -51 -28 -90q-28 -38 -66 -62z" />
    <glyph glyph-name="guillemotleft.thin" horiz-adv-x="1804" 
d="M1067 1126l-723 -464l723 -457h-354l-496 305q-38 24 -66 62q-28 39 -28 90q0 50 29 90q29 39 65 61l496 313h354zM1722 1126l-723 -464l723 -457h-354l-496 305q-38 24 -66 62q-28 39 -28 90q0 50 29 90q29 39 65 61l496 313h354z" />
    <glyph glyph-name="guillemotright.thin" horiz-adv-x="1804" 
d="M1587 510l-495 -305h-355l723 457l-723 464h355l495 -313q38 -23 66 -61t28 -90t-27 -90q-27 -37 -67 -62zM932 510l-496 -305h-354l723 457l-723 464h354l496 -313q36 -22 65 -61q29 -40 29 -90q0 -51 -28 -90q-28 -38 -66 -62z" />
    <glyph glyph-name="slash.thin" horiz-adv-x="1351" 
d="M1085 1536h246l-1065 -1884h-246z" />
    <glyph glyph-name="backslash.thin" horiz-adv-x="1351" 
d="M266 1536l1065 -1884h-246l-1065 1884h246z" />
    <glyph glyph-name="bar.thin" horiz-adv-x="634" 
d="M205 1536h225v-1761h-225v1761z" />
    <glyph glyph-name="brokenbar.thin" horiz-adv-x="675" 
d="M205 756v780h225v-780h-225zM430 -225h-225v780h225v-780z" />
    <glyph glyph-name="parenleft.thin" horiz-adv-x="997" 
d="M205 12v1166q0 93 35 161q35 69 92 112q58 44 132 65q71 20 157 20h233v-195h-264q-77 0 -108 -35t-31 -130v-1164q0 -92 31 -129t108 -37h264v-194h-233q-82 0 -157 21q-72 20 -132 66q-58 44 -92 111q-35 68 -35 162z" />
    <glyph glyph-name="parenright.thin" horiz-adv-x="997" 
d="M793 12q0 -94 -35 -162q-34 -67 -92 -111q-60 -46 -132 -66q-75 -21 -157 -21h-234v194h265q76 0 107 37q32 38 32 129v1164q0 93 -32 130q-31 35 -107 35h-265v195h234q86 0 157 -20q74 -21 132 -65q57 -43 92 -112q35 -68 35 -161v-1166z" />
    <glyph glyph-name="bracketleft.thin" horiz-adv-x="997" 
d="M205 -348v1884h649v-195h-403v-1495h403v-194h-649z" />
    <glyph glyph-name="bracketright.thin" horiz-adv-x="997" 
d="M793 -348h-650v194h404v1495h-404v195h650v-1884z" />
    <glyph glyph-name="braceleft.thin" horiz-adv-x="1280" 
d="M471 598v-8q97 -15 159 -90t62 -181v-370q0 -45 29 -74t74 -29h342v-194h-275q-179 0 -288 86q-107 85 -107 272v273q0 89 -50 147q-49 57 -155 57h-119v213h119q105 0 155 58t50 147v273q0 187 107 272q109 86 288 86h275v-195h-342q-46 0 -74 -28q-29 -29 -29 -74v-391
q0 -105 -62 -170t-159 -80z" />
    <glyph glyph-name="braceright.thin" horiz-adv-x="1280" 
d="M809 598q-97 15 -159 80t-62 170v391q0 45 -29 74q-28 28 -74 28h-342v195h275q179 0 288 -86q107 -85 107 -272v-273q0 -89 50 -147t155 -58h119v-213h-119q-105 0 -155 -57q-50 -58 -50 -147v-273q0 -187 -107 -272q-109 -86 -288 -86h-275v194h342q45 0 74 29t29 74
v370q0 106 62 181t159 90v8z" />
    <glyph glyph-name="twothird" horiz-adv-x="2959" 
d="M1964 879h-367l809 657h390zM1378 1028v-151h-1214v127q0 70 51 126q52 56 180 80l557 107q28 5 45 13q19 10 19 24q0 18 -19 24q-18 6 -51 6h-764v152h910q166 0 233 -43q68 -44 68 -125q0 -72 -55 -119q-53 -46 -167 -67l-497 -86q-47 -7 -73 -20q-23 -12 -23 -29v-19
h800zM1602 264v131h614q67 0 96 16q27 15 27 40v20q0 26 -26 43q-25 16 -95 16h-616v129h698q253 0 370 -35q119 -36 119 -126v-21q0 -59 -50 -94q-49 -34 -156 -49q107 -12 156 -42q50 -30 50 -89v-41q0 -93 -119 -127q-122 -35 -370 -35h-698v127h616q70 0 95 13
q26 14 26 38v33q0 23 -27 38t-96 15h-614zM995 657h367l-809 -657h-389z" />
    <glyph glyph-name="threequarter" horiz-adv-x="2959" 
d="M1964 879h-367l809 657h390zM227 1141v131h615q69 0 96 15t27 40v21q0 26 -26 43q-25 16 -95 16h-617v129h699q249 0 369 -36t120 -126v-20q0 -59 -50 -94t-157 -50q108 -12 157 -42q50 -30 50 -89v-41q0 -92 -120 -127q-118 -34 -369 -34h-699v127h617q70 0 95 13
q26 14 26 38v32q0 23 -27 38q-29 16 -96 16h-615zM1479 106q-88 0 -125 34t-37 85q0 31 20 61q20 31 78 64l400 228q103 59 198 78q91 18 232 18h36q146 0 248 -30q103 -30 103 -95v-309h164v-134h-164v-106h-367v106h-786zM995 657h367l-809 -657h-389zM1757 240h508v274
q0 12 -9 20q-8 7 -32 7q-19 0 -32 -5q-2 -1 -23 -14l-418 -235q-10 -5 -19 -14q-6 -6 -6 -13q0 -8 8 -14t23 -6z" />
    <glyph glyph-name="caron.alt" horiz-adv-x="456" 
d="M84 965q37 75 58 128t33 96q9 34 15 86q5 47 5 95v166h133v-164q0 -50 -5 -97q-4 -39 -20 -85q-18 -52 -38 -96q-45 -98 -60 -129h-121z" />
    <glyph glyph-name="zero.tnum" horiz-adv-x="3256" 
d="M1853 -27h-491q-338 0 -564 45q-224 45 -360 133q-132 86 -188 217q-55 129 -55 298v204q0 169 58 298t196 217q139 88 366 133q229 45 567 45h492q338 0 567 -45t367 -133q137 -87 195 -217q59 -132 59 -298v-204q0 -166 -62 -298q-61 -130 -202 -217
q-143 -88 -374 -133q-232 -45 -571 -45zM911 610q0 -192 62 -292t190 -128l733 1168h-575q-212 0 -311 -96t-99 -334v-318zM1915 178q230 0 330 97t100 335v318q0 188 -61 286q-61 99 -193 129l-731 -1165h555z" />
    <glyph glyph-name="one.tnum" 
d="M252 0v205h1124v1059q0 33 -20 50t-66 17h-1038v205h1339q261 0 361 -61t100 -209v-1061h993v-205h-2793z" />
    <glyph glyph-name="two.tnum" horiz-adv-x="3295" 
d="M2927 205v-205h-2589v299q0 167 127 282q126 114 420 191l1288 328q62 16 108 44q43 27 43 79q0 61 -42 85q-40 23 -119 23h-1803v205h1901q383 0 541 -92q157 -91 157 -268q0 -170 -126 -264q-125 -94 -384 -160l-1253 -318q-119 -29 -170 -61q-53 -33 -53 -84v-84h1954
z" />
    <glyph glyph-name="three.tnum" horiz-adv-x="3295" 
d="M614 684v205h1266q166 0 226 42q61 43 61 107v150q0 71 -60 107t-219 36h-1478v205h1335q585 0 861 -85q278 -86 278 -294v-47q0 -139 -118 -214t-368 -103q247 -30 368 -106q118 -75 118 -214v-94q0 -208 -278 -294q-276 -85 -861 -85h-1335v205h1478q159 0 219 36
t60 107v187q0 64 -61 107q-60 42 -226 42h-1266z" />
    <glyph glyph-name="four.tnum" horiz-adv-x="3295" 
d="M502 303q-181 0 -259 56q-79 57 -79 149q0 58 48 113q47 54 138 112l971 608q100 63 197 109q94 45 186 68t199 34q110 11 233 11h41q299 0 436 -69t137 -216v-766h381v-209h-381v-303h-614v303h-1634zM866 512h1270v774q0 33 -20 49q-22 17 -74 17q-40 0 -73 -10
q-31 -9 -58 -29l-1065 -692q-32 -23 -44 -33q-14 -12 -14 -31q0 -21 18 -33t60 -12z" />
    <glyph glyph-name="five.tnum" 
d="M1794 899q536 0 820 -83q282 -82 282 -302v-108q0 -122 -75 -204q-76 -84 -216 -133q-145 -51 -349 -73q-213 -23 -470 -23h-1426v205h1463q236 0 327 47t91 137v148q0 41 -19 77q-17 33 -65 58q-49 25 -129 37q-82 12 -209 12h-1459v842h2515v-205h-1890v-432h809z" />
    <glyph glyph-name="six.tnum" 
d="M2017 899q288 0 478 -19q196 -20 316 -66q122 -47 173 -122q53 -77 53 -188v-109q0 -115 -51 -198q-50 -81 -174 -131t-332 -71q-218 -22 -522 -22h-557q-319 0 -535 34q-221 35 -353 106q-135 73 -194 185t-59 269v297q0 163 55 288t192 211t365 129q232 44 576 44h1542
v-205h-1481q-183 0 -298 -23q-121 -24 -189 -73q-69 -50 -98 -122q-29 -73 -29 -171v-43h1122zM1442 178h545q124 0 201 13q80 14 124 37q45 24 63 60q17 34 17 81v139q0 86 -83 136t-318 50h-1096v-182q0 -199 121 -266q122 -68 426 -68z" />
    <glyph glyph-name="seven.tnum" 
d="M1575 0h-782l1318 1225q30 26 37 35q13 16 13 30q0 20 -19 31q-17 10 -61 10h-1702v205h2216q179 0 252 -44q71 -43 71 -140q0 -62 -46 -123q-48 -63 -128 -139z" />
    <glyph glyph-name="eight.tnum" 
d="M315 1188q0 92 41 163q40 70 139 117q102 49 262 72q172 25 410 25h944q256 0 433 -25q165 -23 267 -72q97 -46 135 -117t38 -163v-82q0 -57 -23 -108q-24 -52 -78 -92q-57 -42 -153 -75q-90 -31 -244 -53q318 -39 445 -124t127 -208v-86q0 -89 -36 -161
q-35 -71 -131 -121q-93 -49 -262 -76q-167 -27 -427 -27h-1106q-260 0 -427 27q-169 27 -262 76q-97 51 -132 121t-35 161v86q0 123 127 208t444 124q-151 22 -242 53q-94 32 -152 75q-56 41 -79 92t-23 108v82zM2308 1174q0 99 -53 143q-52 43 -189 43h-833
q-137 0 -189 -43q-53 -44 -53 -143v-115q0 -101 51 -144q50 -43 187 -43h842q136 0 186 43q51 43 51 144v115zM2382 508q0 90 -60 135t-243 45h-860q-184 0 -244 -45t-60 -135v-154q0 -42 13 -78q12 -33 48 -54q37 -22 99 -32q60 -10 164 -10h819q104 0 164 10q62 10 99 32
t49 54q12 33 12 78v154z" />
    <glyph glyph-name="nine.tnum" 
d="M1280 635q-288 0 -478 19q-196 20 -316 66q-122 47 -173 122q-53 77 -53 188v109q0 118 51 199q51 80 174 130q124 50 332 71q218 22 522 22h557q319 0 535 -34q221 -35 353 -106q135 -73 194 -185t59 -269v-297q0 -163 -55 -288t-192 -211t-365 -129q-232 -44 -576 -44
h-1542v205h1481q183 0 298 23q121 24 189 73q71 51 99 122t28 171v43h-1122zM1307 840h1095v182q0 199 -121 266q-122 68 -426 68h-544q-120 0 -202 -14q-83 -14 -124 -36q-44 -23 -62 -60q-18 -36 -18 -81v-139q0 -86 83 -136t319 -50z" />
    <glyph glyph-name="space.tnum" horiz-adv-x="1648" 
 />
    <glyph glyph-name="Euro.tnum" 
d="M92 506v205h502v116h-502v205h518q57 254 335 379q279 125 851 125h1409v-205h-1409q-135 0 -218 -14q-90 -15 -143 -49q-55 -35 -82 -92q-29 -61 -36 -144h1560v-205h-1566v-116h1566v-205h-1560q7 -84 37 -145q28 -58 85 -92q56 -34 148 -49q91 -15 230 -15h1388v-205
h-1409q-287 0 -509 31q-214 30 -355 93t-219 159t-105 223h-516z" />
    <glyph glyph-name="dollar.tnum" 
d="M324 0v205h1136v356h-510q-361 0 -517 123q-157 124 -157 358q0 260 191 377t545 117h448v205h379v-205h1120v-205h-1120v-342h574q329 0 469 -134q139 -133 139 -345q0 -267 -188 -389q-187 -121 -566 -121h-428v-205h-379v205h-1136zM1092 989h368v342h-362
q-114 0 -170 -40q-58 -41 -58 -132q0 -82 59 -126t163 -44zM2185 561h-346v-356h356q125 0 178 43q54 43 54 137q0 83 -56 129q-58 47 -186 47z" />
    <glyph glyph-name="cent.tnum" 
d="M1774 1536h378v-307h607v-195h-607v-839h607v-195h-607v-307h-378v307h-240q-272 0 -463 30q-190 30 -308 91q-119 62 -171 160q-53 100 -53 233v201q0 133 53 233q52 98 171 160q118 61 308 91q191 30 463 30h240v307zM1493 1034q-157 0 -222 -62q-67 -64 -67 -227v-260
q0 -164 67 -228q65 -62 222 -62h281v839h-281z" />
    <glyph glyph-name="sterling.tnum" 
d="M125 0v205h457v430h-457v205h457v30q0 169 64 294t207 208t373 123q234 41 558 41h1388v-205h-1388q-159 0 -249 -20q-95 -21 -147 -70q-53 -50 -71 -133q-19 -89 -19 -211v-57h1567v-205h-1567v-430h1874v-205h-3047z" />
    <glyph glyph-name="yen.tnum" 
d="M256 301v205h1096l-138 117h-958v204h719l-832 709h836l786 -688q59 -50 103 -52q41 -1 102 52l768 688h416l-768 -709h655v-204h-878l-127 -117h1005v-205h-1024v-301h-635v301h-1126z" />
    <glyph glyph-name="ruble.tnum" 
d="M141 307v195h287v143h-287v195h287v696h1749q294 0 478 -19q187 -19 300 -68q111 -48 156 -131q45 -82 45 -208v-53q0 -107 -45 -186q-44 -78 -155 -128q-108 -49 -299 -73q-197 -25 -476 -25h-1077v-143h964v-195h-964v-307h-676v307h-287zM1104 1331v-491h1096
q130 0 190 42q59 41 59 156v97q0 110 -59 153t-190 43h-1096z" />
    <glyph glyph-name="manat.tnum" 
d="M1423 1331h123v205h205v-205h123q310 0 526 -32q212 -31 341 -95q128 -63 184 -161q55 -97 55 -226v-817h-676v831q0 154 -80 225q-79 70 -293 70h-180v-921h-205v921h-180q-214 0 -293 -70q-80 -71 -80 -225v-831h-676v817q0 128 56 226t183 161q129 64 341 95
q216 32 526 32z" />
    <glyph glyph-name="percent.tnum" 
d="M326 1139v116q0 141 95 227q94 85 232 85h709q130 0 224 -85q95 -86 95 -227v-116q0 -142 -95 -229q-94 -87 -224 -87h-709q-137 0 -232 87t-95 229zM2185 920h-387l768 616h410zM743 1247v-112q0 -51 23 -82t74 -31h325q55 0 77 31t22 82v112q0 53 -22 88q-21 33 -77 33
h-325q-51 0 -74 -33q-23 -34 -23 -88zM1628 299v117q0 140 95 226q94 85 233 85h717q130 0 224 -85q95 -86 95 -226v-117q0 -141 -95 -228t-224 -87h-717q-138 0 -233 87t-95 228zM1094 616h387l-768 -616h-410zM2046 408v-113q0 -53 22 -82q23 -31 74 -31h334q55 0 77 31
q21 30 21 82v113q0 55 -21 88q-20 32 -77 32h-334q-52 0 -74 -32t-22 -88z" />
    <glyph glyph-name="plus.tnum" 
d="M905 653v232h580v422h327v-422h580v-232h-580v-424h-327v424h-580z" />
    <glyph glyph-name="minus.tnum" 
d="M991 653v232h1315v-232h-1315z" />
    <glyph glyph-name="plusminus.tnum" 
d="M905 817v232h580v340h327v-340h580v-232h-580v-342h-327v342h-580zM991 80v231h1315v-231h-1315z" />
    <glyph glyph-name="multiply.tnum" 
d="M1077 1300l572 -393l571 393l129 -192l-496 -342l496 -340l-137 -188l-563 387l-564 -387l-137 188l496 340l-496 342z" />
    <glyph glyph-name="divide.tnum" 
d="M1470 1051v297h359v-297h-359zM950 651v232h1397v-232h-1397zM1470 186v297h359v-297h-359z" />
    <glyph glyph-name="equal.tnum" 
d="M991 889v231h1315v-231h-1315zM991 410v231h1315v-231h-1315z" />
    <glyph glyph-name="less.tnum" 
d="M2314 498v-250l-1128 319q-80 21 -142 69q-63 48 -63 134q0 87 59 131q62 46 146 70l1128 319v-250l-1026 -270z" />
    <glyph glyph-name="greater.tnum" 
d="M2109 567l-1128 -319v250l1026 272l-1026 270v250l1128 -319q84 -24 146 -70q59 -44 59 -131q0 -86 -63 -134q-62 -48 -142 -69z" />
    <glyph glyph-name="period.tnum" horiz-adv-x="1648" 
d="M584 0v420h563v-420h-563z" />
    <glyph glyph-name="comma.tnum" horiz-adv-x="1648" 
d="M408 -307q38 76 63 137q24 57 39 105q14 45 19 97q6 64 6 107v342h563v-360q0 -126 -54 -223q-48 -86 -133 -205h-503z" />
    <glyph glyph-name="colon.tnum" horiz-adv-x="1648" 
d="M584 0v420h563v-420h-563z" />
    <glyph glyph-name="semicolon.tnum" horiz-adv-x="1648" 
d="M449 -307q38 76 63 137q24 57 39 105q14 45 19 97q5 53 5 107v342h564v-360q0 -126 -54 -223q-48 -86 -133 -205h-503z" />
    <glyph glyph-name="numbersign.tnum" horiz-adv-x="3256" 
d="M1016 1577h563l-90 -348h512l90 348h563l-90 -348h418v-213h-473l-113 -436h457v-211h-512l-96 -369h-564l97 369h-512l-97 -369h-563l96 369h-430v211h486l112 436h-469v213h525zM1321 580h512l113 436h-512z" />
    <glyph glyph-name="slash.tnum" horiz-adv-x="1648" 
d="M1008 1536h573l-942 -1884h-573z" />
    <glyph glyph-name="c.long" horiz-adv-x="2414" 
d="M1067 1034q-157 0 -222 -62q-67 -64 -67 -227v-260q0 -164 67 -228q65 -62 222 -62h1266v-195h-1225q-273 0 -463 30t-308 91q-119 62 -171 160q-53 100 -53 233v201q0 133 53 233q52 98 171 160q118 61 308 91q191 30 463 30h1778v-195h-1819z" />
    <glyph glyph-name="f.long" horiz-adv-x="1576" 
d="M428 0v1034h-397v195h397q1 79 38 138q35 57 120 95q86 38 227 56q144 18 356 18h705v-178h-674q-82 0 -115 -30q-32 -29 -32 -93v-6h985v-195h-985v-1034h-625z" />
    <glyph glyph-name="k.alt1" horiz-adv-x="2699" 
d="M184 1229h625v-826l1259 826h562l-1522 -1022h1509v-207h-2433v1229z" />
    <glyph glyph-name="r.long" horiz-adv-x="1282" 
d="M184 834q0 89 32 162t117 124q87 52 233 80q151 29 378 29h768v-195h-534q-204 0 -287 -47q-82 -46 -82 -164v-823h-625v834z" />
    <glyph glyph-name="s.long1" horiz-adv-x="2334" 
d="M137 0v190h1567q71 0 110 25q37 24 37 96q0 57 -36 83q-39 28 -99 28h-1153q-224 0 -339 112q-113 110 -113 289q0 198 137 302t430 104h2087v-191h-1950q-71 0 -114 -21q-44 -21 -44 -91q0 -57 39 -87t109 -30h1091q279 0 394 -107q114 -106 114 -272q0 -211 -139 -320
q-140 -110 -448 -110h-1680z" />
    <glyph glyph-name="s.long2" horiz-adv-x="2527" 
d="M-375 0v190h2099q71 0 110 25q38 24 38 96q0 56 -37 83q-39 28 -98 28h-1174q-224 0 -339 112q-113 110 -113 289q0 198 137 302t430 104h1698v-191h-1561q-71 0 -114 -21q-44 -21 -44 -91q0 -57 39 -87t109 -30h1112q278 0 393 -107t115 -272q0 -211 -139 -320
q-140 -110 -449 -110h-2212z" />
    <glyph glyph-name="t.long" horiz-adv-x="1843" 
d="M31 1034v195h397v239h625v-239h1466v-195h-1466v-702q0 -78 50 -108q48 -29 167 -29h471v-195h-727q-306 0 -446 79t-140 251v704h-397z" />
    <glyph glyph-name="w.alt1" horiz-adv-x="4208" 
d="M2417 1229v-1024h983v1024h624v-1229h-3156q-187 0 -322 26q-133 26 -212 78q-80 53 -115 138t-35 198v789h625v-813q0 -122 65 -166q66 -45 238 -45h680v1024h625z" />
    <glyph glyph-name="x.alt1" horiz-adv-x="2908" 
d="M684 1034h-571v195h929q154 0 257 -54q104 -54 155 -165q51 111 155 165q103 54 257 54h930v-195h-572q-163 0 -232 -62q-71 -63 -71 -227v-260q0 -165 71 -228q69 -62 232 -62h572v-195h-930q-154 0 -257 54q-104 54 -155 165q-51 -111 -155 -165q-103 -54 -257 -54
h-929v195h571q163 0 232 62q71 63 71 228v260q0 164 -71 227q-69 62 -232 62z" />
    <glyph glyph-name="x.long" horiz-adv-x="3082" 
d="M684 1034h-571v195h929q154 0 257 -54q104 -54 155 -165q51 111 155 165q103 54 257 54h1421v-195h-1063q-163 0 -232 -62q-71 -63 -71 -227v-260q0 -165 71 -228q69 -62 232 -62h653v-195h-1011q-154 0 -257 54q-104 54 -155 165q-51 -111 -155 -165q-103 -54 -257 -54
h-929v195h571q163 0 232 62q71 63 71 228v260q0 164 -71 227q-69 62 -232 62z" />
    <glyph glyph-name="y.alt1" horiz-adv-x="2582" 
d="M590 1229l1194 -838v838h614v-764q0 -109 -62 -193q-64 -87 -161 -146q-100 -60 -221 -93q-123 -33 -242 -33h-1638v195h1411h8h10l-1462 1034h549z" />
    <glyph glyph-name="A.alt1" horiz-adv-x="3192" 
d="M20 0l1063 1104q126 132 242 220q113 86 237 132q128 48 280 64q151 16 374 16h793v-1536h-635v414h-1219l-389 -414h-746zM1847 1147l-479 -508h1006v692h-97q-61 0 -112 -3q-55 -3 -100 -20q-48 -18 -101 -56q-57 -41 -117 -105z" />
    <glyph glyph-name="A.alt2" horiz-adv-x="3192" 
d="M3172 0h-745l-389 414h-1219v-414h-635v1536h793q223 0 374 -16q152 -16 280 -64q125 -46 237 -132q112 -85 241 -220zM819 1331v-692h1006l-479 508q-60 64 -117 105q-52 37 -102 56q-45 17 -99 20q-51 3 -113 3h-96z" />
    <glyph glyph-name="A.alt3" horiz-adv-x="2957" 
d="M1921 1536q256 0 429 -25q166 -24 260 -74t128 -126q35 -78 35 -178v-1133h-2179q-275 0 -383 72q-109 73 -109 198q0 121 92 201q94 82 248 152l1549 708h-1880v205h1810zM1126 195h971v915l-979 -483q-153 -78 -204 -132q-54 -57 -54 -126q0 -81 66 -128
q65 -46 200 -46z" />
    <glyph glyph-name="C.long" horiz-adv-x="2799" 
d="M2615 205v-205h-1300q-336 0 -570 41q-230 40 -371 123t-201 208q-60 126 -60 294v204q0 169 64 294t207 208t373 123q234 41 558 41h1792v-205h-1792q-159 0 -249 -20q-95 -21 -147 -70q-53 -50 -71 -133q-19 -89 -19 -211v-256q0 -122 19 -211q18 -83 73 -134
q55 -50 154 -71q96 -20 260 -20h1280z" />
    <glyph glyph-name="D.alt1" horiz-adv-x="3291" 
d="M-410 1331v205h2386q324 0 558 -41q230 -40 373 -123t207 -208t64 -294v-204q0 -168 -60 -294q-60 -125 -201 -208t-371 -123q-234 -41 -570 -41h-1730v1065h676v-860h1054q159 0 249 20q95 21 148 71q52 49 70 134q19 89 19 211v256q0 122 -19 211q-18 84 -70 133
q-51 49 -148 70q-90 20 -249 20h-2386z" />
    <glyph glyph-name="D.alt2" horiz-adv-x="3229" 
d="M184 1331v205h1731q324 0 558 -41q230 -40 373 -123t207 -208t64 -294v-204q0 -168 -60 -294q-60 -125 -201 -208q-141 -82 -372 -123q-234 -41 -569 -41h-1731v1065h676v-860h1055q159 0 249 20q94 21 147 71t71 134t18 211v256q0 127 -18 211q-18 83 -71 133
q-52 49 -147 70q-90 20 -249 20h-1731z" />
    <glyph glyph-name="E.alt1" horiz-adv-x="2949" 
d="M2820 205v-205h-1505q-336 0 -570 41q-230 40 -371 123t-201 208q-60 126 -60 294v204q0 169 64 294t207 208t373 123q234 41 558 41h1485v-205h-1485q-159 0 -249 -20q-95 -21 -147 -70q-53 -50 -71 -133q-19 -89 -19 -211v-14h1971v-205h-1971v-37q0 -122 19 -211
q18 -83 73 -134q55 -50 154 -71q96 -20 260 -20h1485z" />
    <glyph glyph-name="E.open" horiz-adv-x="2906" 
d="M184 1331v205h2585v-205h-2585zM184 307v576h2585v-205h-1909v-473h1909v-205h-2277q-136 0 -222 86t-86 221z" />
    <glyph glyph-name="F.alt1" horiz-adv-x="2727" 
d="M901 0h-717v870q0 167 65 294q64 125 207 208t372 123q234 41 558 41h1280v-205h-1280q-158 0 -248 -20q-97 -21 -148 -70q-52 -49 -70 -133q-19 -89 -19 -211v-55h1765v-205h-1765v-637z" />
    <glyph glyph-name="F.open" horiz-adv-x="2646" 
d="M184 1331v205h2401v-205h-2401zM184 0v883h2401v-205h-1725v-678h-676z" />
    <glyph glyph-name="G.alt1" horiz-adv-x="3072" 
d="M2228 715q145 74 273 89q130 15 226 -10t154 -86q56 -59 56 -139v-569h-584v524l-627 -329q-151 -78 -184 -94q-85 -42 -170 -69q-91 -29 -175 -43q-98 -16 -200 -16q-190 0 -359 31q-160 29 -280 97q-116 66 -181 171q-64 104 -64 250v363q0 148 61 269q62 122 191 206
t333 130q203 46 490 46h1730v-205h-1730q-219 0 -309 -91q-91 -93 -91 -277v-433q0 -184 65 -258q64 -73 261 -73q72 0 123 12q49 12 96 35q43 22 95 53q44 27 120 68z" />
    <glyph glyph-name="H.connect" horiz-adv-x="3256" 
d="M184 0v1536h676v-645h1536v399q0 136 82 191t266 55h658v-203h-240q-39 0 -64 -25q-26 -26 -26 -65v-1243h-676v666h-1536v-666h-676z" />
    <glyph glyph-name="K.alt1" horiz-adv-x="3098" 
d="M184 1536h676v-1116l1546 1116h643l-1787 -1329h1734v-207h-2812v1536z" />
    <glyph glyph-name="L.alt1" horiz-adv-x="2727" 
d="M860 1536v-897q0 -122 19 -211q18 -84 70 -133q51 -49 148 -70q90 -20 249 -20h1320v-205h-1280q-324 0 -558 41q-229 40 -372 123t-207 208q-65 127 -65 294v870h676z" />
    <glyph glyph-name="M.alt1" horiz-adv-x="4464" 
d="M102 0l226 1235q29 158 196 243t545 85q315 0 520 -66q206 -66 252 -209l328 -1009q7 -23 29 -42q21 -18 59 -18q41 0 59 20q20 22 27 44l330 1003q50 148 232 212q184 65 509 65q350 0 522 -84t201 -244l225 -1235h-655l-205 1229q-7 53 -28 82q-19 26 -78 26
q-58 0 -81 -23q-24 -24 -42 -75l-344 -985q-45 -133 -230 -207q-186 -74 -467 -74q-276 0 -455 73q-178 72 -223 202l-348 993q-16 41 -40 68q-25 28 -85 28q-57 0 -84 -24q-26 -23 -34 -82l-205 -1231h-656z" />
    <glyph glyph-name="M.alt2" horiz-adv-x="4638" 
d="M20 0l609 1106q144 262 347 359q205 98 544 98q144 0 281 -18q142 -19 241 -57q103 -40 167 -105q62 -63 62 -156v-928q0 -39 19 -60q18 -20 57 -20q40 0 61 15q19 14 37 49l422 823q69 136 142 226q75 93 165 141q93 50 224 70q132 20 313 20q170 0 308 -21
q141 -22 235 -61q94 -40 148 -103q52 -61 52 -143v-1235h-675v1229q0 54 -21 81t-65 27q-43 0 -67 -24t-48 -74l-443 -866q-53 -106 -123 -182t-169 -124q-101 -49 -234 -71q-138 -23 -315 -23q-327 0 -513 84t-186 314v870q0 43 -20 69q-21 27 -59 27q-46 0 -71 -26
q-24 -25 -52 -80l-656 -1231h-717z" />
    <glyph glyph-name="M.alt3" horiz-adv-x="4362" 
d="M184 0v1536h3171q425 0 624 -113t199 -327v-1096h-676v1120q0 121 -47 166q-46 45 -156 45h-780v-1331h-676v1331h-983v-1331h-676z" />
    <glyph glyph-name="N.alt1" horiz-adv-x="3225" 
d="M184 0v1536h2034q426 0 625 -113q198 -113 198 -327v-1096h-676v1120q0 121 -47 166q-46 45 -155 45h-1303v-1331h-676z" />
    <glyph glyph-name="N.connect" horiz-adv-x="3522" 
d="M184 0v1229q0 163 189 248q190 86 559 86q300 0 531 -57q232 -57 337 -222l672 -1040q18 -28 46 -47t60 -19q55 0 70 26q14 24 14 83v1003q0 136 82 191t267 55h636v-203h-219q-39 0 -64 -25q-26 -26 -26 -65v-950q0 -167 -198 -243q-199 -77 -588 -77q-279 0 -488 62
q-206 61 -301 209l-673 1036q-22 34 -58 57q-33 21 -74 21q-61 0 -80 -28q-18 -27 -18 -89v-1241h-676z" />
    <glyph glyph-name="P.alt1" horiz-adv-x="2861" 
d="M-492 1536h2282q294 0 478 -19q187 -19 300 -68q111 -48 156 -131q45 -82 45 -208v-94q0 -106 -45 -186q-44 -78 -155 -128q-108 -49 -299 -73q-197 -25 -476 -25h-872v-604h-676v530q0 143 111 206t401 63h1054q131 0 191 42q59 41 59 156v138q0 110 -59 153t-191 43
h-2304v205z" />
    <glyph glyph-name="P.alt2" horiz-adv-x="2861" 
d="M246 1536h1544q294 0 478 -19q187 -19 300 -68q111 -48 156 -131q45 -82 45 -208v-94q0 -106 -45 -186q-44 -78 -155 -128q-108 -49 -299 -73q-197 -25 -476 -25h-872v-604h-676v530q0 143 111 206t401 63h1054q131 0 191 42q59 41 59 156v138q0 110 -59 153t-191 43
h-1566v205z" />
    <glyph glyph-name="R.alt1" horiz-adv-x="2220" 
d="M-410 1331v205h1606q275 0 455 -19q185 -20 296 -66q112 -47 159 -125q48 -79 48 -196v-73q0 -94 -36 -160q-39 -72 -121 -117q-82 -46 -227 -70q-142 -24 -349 -24h-233q-24 0 -39 -9q-14 -8 -14 -30q0 -18 12 -30q10 -10 33 -23l968 -594h-899l-979 614q-78 49 -106 82
q-29 34 -29 74q0 46 39 68q38 22 109 22h821q222 0 299 39q76 39 76 160v76q0 53 -16 93q-15 37 -56 60q-41 22 -117 33q-73 10 -194 10h-1506z" />
    <glyph glyph-name="R.alt2" horiz-adv-x="2932" 
d="M983 717q-32 0 -47 -24q-14 -22 -14 -85v-608h-643v811q0 57 38 83q40 28 109 28h1395q224 0 299 28t75 150v55q0 55 -15 90q-15 34 -56 54q-42 20 -117 26q-77 6 -195 6h-2201v205h2302q269 0 454 -15q183 -15 296 -56q114 -41 160 -111q48 -72 48 -183v-53
q0 -98 -37 -166q-38 -70 -120 -114q-85 -46 -227 -68q-139 -22 -349 -22h-110q-22 0 -39 -10q-15 -9 -15 -29q0 -18 13 -29q13 -12 32 -25l908 -655h-899l-895 639q-16 12 -89 60q-27 18 -61 18z" />
    <glyph glyph-name="R.alt3" horiz-adv-x="2932" 
d="M983 717q-32 0 -47 -24q-14 -22 -14 -85v-608h-643v811q0 57 38 83q40 28 109 28h1395q224 0 299 28t75 150v55q0 55 -15 90q-15 34 -56 54q-42 20 -117 26q-77 6 -195 6h-1533v205h1634q269 0 454 -15q183 -15 296 -56q114 -41 160 -111q48 -72 48 -183v-53
q0 -98 -37 -166q-38 -70 -120 -114q-85 -46 -227 -68q-139 -22 -349 -22h-110q-22 0 -39 -10q-15 -9 -15 -29q0 -18 13 -29q13 -12 32 -25l908 -655h-899l-895 639q-16 12 -89 60q-27 18 -61 18z" />
    <glyph glyph-name="S.alt1" horiz-adv-x="2699" 
d="M1481 332q-105 -178 -236 -255t-305 -77h-899v205h426q126 0 196 43q69 43 146 166l475 790q105 178 236 255t305 77h833v-205h-360q-126 0 -197 -43q-72 -43 -145 -166z" />
    <glyph glyph-name="S.long1" horiz-adv-x="2990" 
d="M129 0v205h1913q124 0 177 43q54 43 54 137q0 83 -56 129q-58 47 -185 47h-1276q-361 0 -517 123q-157 124 -157 358q0 260 190 377t545 117h2398v-205h-2312q-114 0 -170 -40q-57 -41 -57 -132q0 -83 58 -126q59 -44 163 -44h1362q329 0 469 -134q139 -133 139 -345
q0 -268 -187 -389t-566 -121h-1985z" />
    <glyph glyph-name="S.long2" horiz-adv-x="2826" 
d="M-403 0v205h2322q124 0 177 43q54 43 54 137q0 83 -56 129q-58 47 -185 47h-1071q-361 0 -517 123q-157 124 -157 358q0 260 190 377q191 117 545 117h1784v-205h-1698q-114 0 -170 -40q-57 -41 -57 -132q0 -83 58 -126q59 -44 163 -44h1157q329 0 469 -134
q139 -133 139 -345q0 -268 -187 -389t-566 -121h-2394z" />
    <glyph glyph-name="U.alt1" horiz-adv-x="3225" 
d="M3041 1536v-1536h-2033q-426 0 -625 113t-199 327v1096h676v-1120q0 -121 47 -166t156 -45h1302v1331h676z" />
    <glyph glyph-name="U.connect" horiz-adv-x="3317" 
d="M3133 1243v-756q0 -129 -55 -226q-56 -98 -183 -161q-129 -64 -341 -95q-216 -32 -526 -32h-738q-310 0 -526 32q-212 31 -341 95q-127 63 -183 161t-56 226v1049h676v-1063q0 -153 80 -224t293 -71h852q213 0 293 71t80 224v838q0 111 92 168t235 57h678v-203h-239
q-40 0 -65 -25q-26 -26 -26 -65z" />
    <glyph glyph-name="V.alt1" horiz-adv-x="3131" 
d="M3070 1536l-1063 -1104q-133 -139 -233 -224q-98 -83 -212 -131q-112 -47 -263 -62q-150 -15 -384 -15h-731v1536h676v-1331h55q63 0 106 4q52 5 94 21q45 17 96 56q57 43 114 103l1081 1147h664z" />
    <glyph glyph-name="W.alt1" horiz-adv-x="4536" 
d="M4516 1536l-608 -1106q-143 -261 -348 -359t-543 -98q-145 0 -282 18q-142 19 -241 57q-102 39 -166 105q-63 65 -63 156v928q0 41 -18 60q-18 20 -58 20t-61 -15q-19 -14 -37 -49l-422 -823q-70 -139 -141 -226q-75 -92 -166 -141q-93 -50 -223 -70q-132 -20 -314 -20
q-170 0 -308 21q-140 21 -234 61q-95 40 -149 103q-52 61 -52 143v1235h676v-1229q0 -55 20 -81q21 -27 66 -27q42 0 66 24t48 74l443 866q52 104 124 182q70 76 169 124q101 49 233 71q138 23 316 23q327 0 513 -84q185 -84 185 -314v-870q0 -43 20 -69q21 -27 60 -27
q45 0 70 26q26 28 53 80l655 1231h717z" />
    <glyph glyph-name="W.alt2" horiz-adv-x="4362" 
d="M2519 1536v-1331h983v1331h676v-1536h-3170q-426 0 -625 113t-199 327v1096h676v-1120q0 -121 47 -166t156 -45h780v1331h676z" />
    <glyph glyph-name="X.alt1" horiz-adv-x="3796" 
d="M102 205h809q164 0 260 20q100 21 155 71q55 51 73 134q18 84 18 211v256q0 127 -18 211q-18 83 -71 133q-52 49 -147 70q-90 20 -249 20h-809v205h932q331 0 537 -66q207 -66 306 -198q99 131 307 198q205 66 537 66h932v-205h-809q-159 0 -249 -20q-95 -21 -147 -70
q-53 -50 -71 -133q-18 -84 -18 -211v-256q0 -127 18 -211q18 -83 73 -134q55 -50 155 -71q96 -20 260 -20h809v-205h-953q-335 0 -539 63t-305 193q-102 -131 -304 -193q-204 -63 -539 -63h-953v205z" />
    <glyph glyph-name="Y.alt1" horiz-adv-x="2951" 
d="M2154 315q-60 -96 -131 -158q-74 -65 -162 -98q-93 -35 -210 -47q-119 -12 -273 -12h-1300v205h829l-866 1331h707l774 -1257l737 1257h651z" />
    <glyph glyph-name="Y.alt2" horiz-adv-x="2670" 
d="M98 0v205h1319l-1376 1331h803l1151 -1141v1141h491v-987q0 -126 -26 -224q-27 -102 -89 -173t-165 -112q-101 -40 -252 -40h-1856z" />
    <glyph glyph-name="Y.alt3" horiz-adv-x="3012" 
d="M184 0v205h1723q131 0 188 60t57 186h-1456q-286 0 -399 135q-113 136 -113 352v598h676v-635q0 -124 58 -185t188 -61h1046v881h676v-1008q0 -116 -30 -215q-30 -98 -103 -168t-190 -107q-120 -38 -291 -38h-2030z" />
    <glyph glyph-name="ccedilla.long" horiz-adv-x="2414" 
d="M1067 1034q-157 0 -222 -62q-67 -64 -67 -227v-260q0 -164 67 -228q65 -62 222 -62h1266v-195h-1225q-273 0 -463 30t-308 91q-119 62 -171 160q-53 100 -53 233v201q0 133 53 233q52 98 171 160q118 61 308 91q191 30 463 30h1778v-195h-1819zM956 -350l344 360h248
l-344 -360h-248z" />
    <glyph glyph-name="cacute.long" horiz-adv-x="2414" 
d="M1067 1034q-157 0 -222 -62q-67 -64 -67 -227v-260q0 -164 67 -228q65 -62 222 -62h1266v-195h-1225q-273 0 -463 30t-308 91q-119 62 -171 160q-53 100 -53 233v201q0 133 53 233q52 98 171 160q118 61 308 91q191 30 463 30h1778v-195h-1819zM1006 1352v118l1091 91
v-119z" />
    <glyph glyph-name="cdotaccent.long" horiz-adv-x="2414" 
d="M1067 1034q-157 0 -222 -62q-67 -64 -67 -227v-260q0 -164 67 -228q65 -62 222 -62h1266v-195h-1225q-273 0 -463 30t-308 91q-119 62 -171 160q-53 100 -53 233v201q0 133 53 233q52 98 171 160q118 61 308 91q191 30 463 30h1778v-195h-1819zM1554 1356h-282v139h282
v-139z" />
    <glyph glyph-name="ccaron.long" horiz-adv-x="2414" 
d="M1067 1034q-157 0 -222 -62q-67 -64 -67 -227v-260q0 -164 67 -228q65 -62 222 -62h1266v-195h-1225q-273 0 -463 30t-308 91q-119 62 -171 160q-53 100 -53 233v201q0 133 53 233q52 98 171 160q118 61 308 91q191 30 463 30h1778v-195h-1819zM1415 1341l-620 91v118
l620 -90l621 90v-118z" />
    <glyph glyph-name="kcommaaccent.alt1" horiz-adv-x="2699" 
d="M184 1229h625v-826l1259 826h562l-1522 -1022h1509v-207h-2433v1229zM1186 -350q40 61 54 97q15 37 15 114v67h185v-86q0 -55 -19 -99q-18 -42 -63 -93h-172z" />
    <glyph glyph-name="racute.long" horiz-adv-x="1282" 
d="M184 834q0 89 32 162t117 124q87 52 233 80q151 29 378 29h768v-195h-534q-204 0 -287 -47q-82 -46 -82 -164v-823h-625v834zM643 1352v118l1092 91v-119z" />
    <glyph glyph-name="rcommaaccent.long" horiz-adv-x="1282" 
d="M184 834q0 89 32 162t117 124q87 52 233 80q151 29 378 29h768v-195h-534q-204 0 -287 -47q-82 -46 -82 -164v-823h-625v834zM319 -350q42 65 55 97q15 37 15 114v67h184v-86q0 -57 -18 -99t-63 -93h-173z" />
    <glyph glyph-name="rcaron.long" horiz-adv-x="1282" 
d="M184 834q0 89 32 162t117 124q87 52 233 80q151 29 378 29h768v-195h-534q-204 0 -287 -47q-82 -46 -82 -164v-823h-625v834zM1053 1341l-621 91v118l621 -90l620 90v-118z" />
    <glyph glyph-name="sacute.long1" horiz-adv-x="2334" 
d="M137 0v190h1567q71 0 110 25q37 24 37 96q0 57 -36 83q-39 28 -99 28h-1153q-224 0 -339 112q-113 110 -113 289q0 198 137 302t430 104h2087v-191h-1950q-71 0 -114 -21q-44 -21 -44 -91q0 -57 39 -87t109 -30h1091q279 0 394 -107q114 -106 114 -272q0 -211 -139 -320
q-140 -110 -448 -110h-1680zM862 1352v118l1092 91v-119z" />
    <glyph glyph-name="scedilla.long1" horiz-adv-x="2334" 
d="M137 0v190h1567q71 0 110 25q37 24 37 96q0 57 -36 83q-39 28 -99 28h-1153q-224 0 -339 112q-113 110 -113 289q0 198 137 302t430 104h2087v-191h-1950q-71 0 -114 -21q-44 -21 -44 -91q0 -57 39 -87t109 -30h1091q279 0 394 -107q114 -106 114 -272q0 -211 -139 -320
q-140 -110 -448 -110h-1680zM711 -350l344 360h248l-345 -360h-247z" />
    <glyph glyph-name="scommaaccent.long1" horiz-adv-x="2334" 
d="M137 0v190h1567q71 0 110 25q37 24 37 96q0 57 -36 83q-39 28 -99 28h-1153q-224 0 -339 112q-113 110 -113 289q0 198 137 302t430 104h2087v-191h-1950q-71 0 -114 -21q-44 -21 -44 -91q0 -57 39 -87t109 -30h1091q279 0 394 -107q114 -106 114 -272q0 -211 -139 -320
q-140 -110 -448 -110h-1680zM1106 -350q40 61 54 97q16 40 16 114v67h184v-86q0 -55 -19 -99q-18 -42 -63 -93h-172z" />
    <glyph glyph-name="scaron.long1" horiz-adv-x="2334" 
d="M137 0v190h1567q71 0 110 25q37 24 37 96q0 57 -36 83q-39 28 -99 28h-1153q-224 0 -339 112q-113 110 -113 289q0 198 137 302t430 104h2087v-191h-1950q-71 0 -114 -21q-44 -21 -44 -91q0 -57 39 -87t109 -30h1091q279 0 394 -107q114 -106 114 -272q0 -211 -139 -320
q-140 -110 -448 -110h-1680zM1272 1341l-621 91v118l621 -90l620 90v-118z" />
    <glyph glyph-name="sacute.long2" horiz-adv-x="2527" 
d="M-375 0v190h2099q71 0 110 25q38 24 38 96q0 56 -37 83q-39 28 -98 28h-1174q-224 0 -339 112q-113 110 -113 289q0 198 137 302t430 104h1698v-191h-1561q-71 0 -114 -21q-44 -21 -44 -91q0 -57 39 -87t109 -30h1112q278 0 393 -107t115 -272q0 -211 -139 -320
q-140 -110 -449 -110h-2212zM958 1352v118l1092 91v-119z" />
    <glyph glyph-name="scedilla.long2" horiz-adv-x="2527" 
d="M-375 0v190h2099q71 0 110 25q38 24 38 96q0 56 -37 83q-39 28 -98 28h-1174q-224 0 -339 112q-113 110 -113 289q0 198 137 302t430 104h1698v-191h-1561q-71 0 -114 -21q-44 -21 -44 -91q0 -57 39 -87t109 -30h1112q278 0 393 -107t115 -272q0 -211 -139 -320
q-140 -110 -449 -110h-2212zM807 -350l344 360h248l-344 -360h-248z" />
    <glyph glyph-name="scommaaccent.long2" horiz-adv-x="2527" 
d="M-375 0v190h2099q71 0 110 25q38 24 38 96q0 56 -37 83q-39 28 -98 28h-1174q-224 0 -339 112q-113 110 -113 289q0 198 137 302t430 104h1698v-191h-1561q-71 0 -114 -21q-44 -21 -44 -91q0 -57 39 -87t109 -30h1112q278 0 393 -107t115 -272q0 -211 -139 -320
q-140 -110 -449 -110h-2212zM1100 -350q40 61 54 97q15 37 15 114v67h185v-86q0 -55 -19 -99q-18 -42 -63 -93h-172z" />
    <glyph glyph-name="scaron.long2" horiz-adv-x="2527" 
d="M-375 0v190h2099q71 0 110 25q38 24 38 96q0 56 -37 83q-39 28 -98 28h-1174q-224 0 -339 112q-113 110 -113 289q0 198 137 302t430 104h1698v-191h-1561q-71 0 -114 -21q-44 -21 -44 -91q0 -57 39 -87t109 -30h1112q278 0 393 -107t115 -272q0 -211 -139 -320
q-140 -110 -449 -110h-2212zM1368 1341l-620 91v118l620 -90l621 90v-118z" />
    <glyph glyph-name="tcedilla.long" horiz-adv-x="1843" 
d="M31 1034v195h397v239h625v-239h1466v-195h-1466v-702q0 -78 50 -108q48 -29 167 -29h471v-195h-727q-306 0 -446 79t-140 251v704h-397zM465 -350l344 360h248l-344 -360h-248z" />
    <glyph glyph-name="tcommaaccent.long" horiz-adv-x="1843" 
d="M31 1034v195h397v239h625v-239h1466v-195h-1466v-702q0 -78 50 -108q48 -29 167 -29h471v-195h-727q-306 0 -446 79t-140 251v704h-397zM758 -350q40 61 54 97q15 37 15 114v67h185v-86q0 -55 -19 -99q-18 -42 -63 -93h-172z" />
    <glyph glyph-name="tcaron.long" horiz-adv-x="1843" 
d="M31 1034v195h397v239h625v-239h1466v-195h-1466v-702q0 -78 50 -108q48 -29 167 -29h471v-195h-727q-306 0 -446 79t-140 251v704h-397zM1647 1329h-283v139h283v-139z" />
    <glyph glyph-name="tbar.long" horiz-adv-x="1843" 
d="M143 584v123h285v327h-397v195h397v239h625v-239h1466v-195h-1466v-327h508v-123h-508v-252q0 -78 50 -108q48 -29 167 -29h471v-195h-727q-306 0 -446 79t-140 251v254h-285z" />
    <glyph glyph-name="wcircumflex.alt1" horiz-adv-x="4208" 
d="M2417 1229v-1024h983v1024h624v-1229h-3156q-187 0 -322 26q-133 26 -212 78q-80 53 -115 138t-35 198v789h625v-813q0 -122 65 -166q66 -45 238 -45h680v1024h625zM2105 1561l621 -91v-118l-621 90l-620 -90v118z" />
    <glyph glyph-name="yacute.alt1" horiz-adv-x="2582" 
d="M590 1229l1194 -838v838h614v-764q0 -109 -62 -193q-64 -87 -161 -146q-100 -60 -221 -93q-123 -33 -242 -33h-1638v195h1411h8h10l-1462 1034h549zM883 1352v118l1091 91v-119z" />
    <glyph glyph-name="ydieresis.alt1" horiz-adv-x="2582" 
d="M590 1229l1194 -838v838h614v-764q0 -109 -62 -193q-64 -87 -161 -146q-100 -60 -221 -93q-123 -33 -242 -33h-1638v195h1411h8h10l-1462 1034h549zM633 1479h598v-127h-598v127zM1352 1479h598v-127h-598v127z" />
    <glyph glyph-name="ycircumflex.alt1" horiz-adv-x="2582" 
d="M590 1229l1194 -838v838h614v-764q0 -109 -62 -193q-64 -87 -161 -146q-100 -60 -221 -93q-123 -33 -242 -33h-1638v195h1411h8h10l-1462 1034h549zM1292 1561l621 -91v-118l-621 90l-620 -90v118z" />
    <glyph glyph-name="Agrave.alt1" horiz-adv-x="3192" 
d="M20 0l1063 1104q126 132 242 220q113 86 237 132q128 48 280 64q151 16 374 16h793v-1536h-635v414h-1219l-389 -414h-746zM1847 1147l-479 -508h1006v692h-97q-61 0 -112 -3q-55 -3 -100 -20q-48 -18 -101 -56q-57 -41 -117 -105zM3009 1657l-1092 90v119l1092 -90v-119
z" />
    <glyph glyph-name="Aacute.alt1" horiz-adv-x="3192" 
d="M20 0l1063 1104q126 132 242 220q113 86 237 132q128 48 280 64q151 16 374 16h793v-1536h-635v414h-1219l-389 -414h-746zM1847 1147l-479 -508h1006v692h-97q-61 0 -112 -3q-55 -3 -100 -20q-48 -18 -101 -56q-57 -41 -117 -105zM1917 1657v119l1092 90v-119z" />
    <glyph glyph-name="Acircumflex.alt1" horiz-adv-x="3192" 
d="M20 0l1063 1104q126 132 242 220q113 86 237 132q128 48 280 64q151 16 374 16h793v-1536h-635v414h-1219l-389 -414h-746zM1847 1147l-479 -508h1006v692h-97q-61 0 -112 -3q-55 -3 -100 -20q-48 -18 -101 -56q-57 -41 -117 -105zM2388 1866l621 -90v-119l-621 90
l-621 -90v119z" />
    <glyph glyph-name="Atilde.alt1" horiz-adv-x="3192" 
d="M20 0l1063 1104q126 132 242 220q113 86 237 132q128 48 280 64q151 16 374 16h793v-1536h-635v414h-1219l-389 -414h-746zM1847 1147l-479 -508h1006v692h-97q-61 0 -112 -3q-55 -3 -100 -20q-48 -18 -101 -56q-57 -41 -117 -105zM2695 1767l102 -11q27 -3 42 -3
q26 0 37 11q12 12 12 32v31h121v-80q0 -61 -47 -93t-121 -32q-22 0 -52 3q-9 1 -42.5 4.5t-59.5 6.5l-356 45l-102 12q-27 3 -42 3q-26 0 -38 -12q-11 -11 -11 -31v-31h-121v80q0 62 46 93q47 32 122 32q36 0 66 -3q11 -1 42 -5.5t46 -6.5z" />
    <glyph glyph-name="Adieresis.alt1" horiz-adv-x="3192" 
d="M20 0l1063 1104q126 132 242 220q113 86 237 132q128 48 280 64q151 16 374 16h793v-1536h-635v414h-1219l-389 -414h-746zM1847 1147l-479 -508h1006v692h-97q-61 0 -112 -3q-55 -3 -100 -20q-48 -18 -101 -56q-57 -41 -117 -105zM1692 1786h598v-127h-598v127z
M2410 1786h599v-127h-599v127z" />
    <glyph glyph-name="Aring.alt1" horiz-adv-x="3192" 
d="M20 0l1063 1104q126 132 242 220q113 86 237 132q128 48 280 64q151 16 374 16h793v-1536h-635v414h-1219l-389 -414h-746zM1847 1147l-479 -508h1006v692h-97q-61 0 -112 -3q-55 -3 -100 -20q-48 -18 -101 -56q-57 -41 -117 -105zM2064 1782q0 71 73 109t245 38h309
q174 0 245 -37q73 -38 73 -106q0 -71 -73 -109q-71 -37 -245 -37h-309q-173 0 -245 36q-73 36 -73 106zM2877 1784q0 21 -42 33t-191 12h-215q-150 0 -192 -12t-42 -33q0 -20 42 -32q38 -11 192 -11h215q152 0 191 11q42 12 42 32z" />
    <glyph glyph-name="Amacron.alt1" horiz-adv-x="3192" 
d="M20 0l1063 1104q126 132 242 220q113 86 237 132q128 48 280 64q151 16 374 16h793v-1536h-635v414h-1219l-389 -414h-746zM1847 1147l-479 -508h1006v692h-97q-61 0 -112 -3q-55 -3 -100 -20q-48 -18 -101 -56q-57 -41 -117 -105zM3009 1657h-984v127h984v-127z" />
    <glyph glyph-name="Abreve.alt1" horiz-adv-x="3192" 
d="M20 0l1063 1104q126 132 242 220q113 86 237 132q128 48 280 64q151 16 374 16h793v-1536h-635v414h-1219l-389 -414h-746zM1847 1147l-479 -508h1006v692h-97q-61 0 -112 -3q-55 -3 -100 -20q-48 -18 -101 -56q-57 -41 -117 -105zM2507 1630q-203 0 -329 69
q-128 70 -173 152h203q25 -31 94 -69q67 -37 207 -37t207 37q69 38 94 69h199q-45 -81 -174 -152q-126 -69 -328 -69z" />
    <glyph glyph-name="Aogonek.alt1" horiz-adv-x="3192" 
d="M20 0l1063 1104q126 132 242 220q113 86 237 132q128 48 280 64q151 16 374 16h793v-1536h-635v414h-1219l-389 -414h-746zM1847 1147l-479 -508h1006v692h-97q-61 0 -112 -3q-55 -3 -100 -20q-48 -18 -101 -56q-57 -41 -117 -105zM2468 -207q0 -15 17 -22q22 -9 69 -9
h457v-112h-484q-151 0 -195 35t-44 73q0 52 46 83q49 33 152 65l305 94h220l-381 -131q-48 -16 -125 -44q-37 -13 -37 -32z" />
    <glyph glyph-name="Agrave.alt2" horiz-adv-x="3192" 
d="M3172 0h-745l-389 414h-1219v-414h-635v1536h793q223 0 374 -16q152 -16 280 -64q125 -46 237 -132q112 -85 241 -220zM819 1331v-692h1006l-479 508q-60 64 -117 105q-52 37 -102 56q-45 17 -99 20q-51 3 -113 3h-96zM1276 1659l-1092 90v119l1092 -90v-119z" />
    <glyph glyph-name="Aacute.alt2" horiz-adv-x="3192" 
d="M3172 0h-745l-389 414h-1219v-414h-635v1536h793q223 0 374 -16q152 -16 280 -64q125 -46 237 -132q112 -85 241 -220zM819 1331v-692h1006l-479 508q-60 64 -117 105q-52 37 -102 56q-45 17 -99 20q-51 3 -113 3h-96zM184 1659v119l1092 90v-119z" />
    <glyph glyph-name="Acircumflex.alt2" horiz-adv-x="3192" 
d="M3172 0h-745l-389 414h-1219v-414h-635v1536h793q223 0 374 -16q152 -16 280 -64q125 -46 237 -132q112 -85 241 -220zM819 1331v-692h1006l-479 508q-60 64 -117 105q-52 37 -102 56q-45 17 -99 20q-51 3 -113 3h-96zM805 1868l620 -90v-119l-620 90l-621 -90v119z" />
    <glyph glyph-name="Atilde.alt2" horiz-adv-x="3192" 
d="M3172 0h-745l-389 414h-1219v-414h-635v1536h793q223 0 374 -16q152 -16 280 -64q125 -46 237 -132q112 -85 241 -220zM819 1331v-692h1006l-479 508q-60 64 -117 105q-52 37 -102 56q-45 17 -99 20q-51 3 -113 3h-96zM862 1767l102 -11q27 -3 42 -3q26 0 37 11
q12 12 12 32v31h121v-80q0 -61 -47 -93t-121 -32q-22 0 -52 3q-9 1 -42.5 4.5t-59.5 6.5l-356 45l-102 12q-27 3 -42 3q-26 0 -38 -12q-11 -11 -11 -31v-31h-121v80q0 62 46 93q47 32 122 32q36 0 66 -3q11 -1 42 -5.5t46 -6.5z" />
    <glyph glyph-name="Adieresis.alt2" horiz-adv-x="3192" 
d="M3172 0h-745l-389 414h-1219v-414h-635v1536h793q223 0 374 -16q152 -16 280 -64q125 -46 237 -132q112 -85 241 -220zM819 1331v-692h1006l-479 508q-60 64 -117 105q-52 37 -102 56q-45 17 -99 20q-51 3 -113 3h-96zM184 1786h598v-127h-598v127zM903 1786h598v-127
h-598v127z" />
    <glyph glyph-name="Aring.alt2" horiz-adv-x="3192" 
d="M3172 0h-745l-389 414h-1219v-414h-635v1536h793q223 0 374 -16q152 -16 280 -64q125 -46 237 -132q112 -85 241 -220zM819 1331v-692h1006l-479 508q-60 64 -117 105q-52 37 -102 56q-45 17 -99 20q-51 3 -113 3h-96zM184 1784q0 71 73 109t245 38h309q174 0 245 -37
q72 -38 72 -106q0 -72 -72 -109q-71 -37 -245 -37h-309q-173 0 -245 36q-73 36 -73 106zM997 1786q0 21 -42 33t-191 12h-215q-150 0 -192 -12t-42 -33q0 -20 42 -32q39 -11 192 -11h215q152 0 191 11q42 12 42 32z" />
    <glyph glyph-name="Amacron.alt2" horiz-adv-x="3192" 
d="M3172 0h-745l-389 414h-1219v-414h-635v1536h793q223 0 374 -16q152 -16 280 -64q125 -46 237 -132q112 -85 241 -220zM819 1331v-692h1006l-479 508q-60 64 -117 105q-52 37 -102 56q-45 17 -99 20q-51 3 -113 3h-96zM1167 1659h-983v127h983v-127z" />
    <glyph glyph-name="Abreve.alt2" horiz-adv-x="3192" 
d="M3172 0h-745l-389 414h-1219v-414h-635v1536h793q223 0 374 -16q152 -16 280 -64q125 -46 237 -132q112 -85 241 -220zM819 1331v-692h1006l-479 508q-60 64 -117 105q-52 37 -102 56q-45 17 -99 20q-51 3 -113 3h-96zM686 1632q-203 0 -329 69q-128 70 -173 152h203
q25 -31 94 -69q67 -37 207 -37t207 37q69 38 94 69h199q-45 -82 -173 -152q-126 -69 -329 -69z" />
    <glyph glyph-name="Aogonek.alt2" horiz-adv-x="3192" 
d="M3172 0h-745l-389 414h-1219v-414h-635v1536h793q223 0 374 -16q152 -16 280 -64q125 -46 237 -132q112 -85 241 -220zM819 1331v-692h1006l-479 508q-60 64 -117 105q-52 37 -102 56q-45 17 -99 20q-51 3 -113 3h-96zM2623 -207q0 -15 18 -22q22 -9 69 -9h456v-112h-483
q-152 0 -196 35t-44 73q0 52 46 83q48 32 153 65l305 94h219l-381 -131q-48 -16 -125 -44q-37 -13 -37 -32z" />
    <glyph glyph-name="Agrave.alt3" horiz-adv-x="3008" 
d="M1921 1536q256 0 429 -25q166 -24 260 -74t128 -126q35 -78 35 -178v-1133h-2179q-275 0 -383 72q-109 73 -109 198q0 121 92 201q94 82 248 152l1549 708h-1880v205h1810zM1126 195h971v915l-979 -483q-153 -78 -204 -132q-54 -57 -54 -126q0 -81 66 -128
q65 -46 200 -46zM1921 1659l-1092 90v119l1092 -90v-119z" />
    <glyph glyph-name="Aacute.alt3" horiz-adv-x="3008" 
d="M1921 1536q256 0 429 -25q166 -24 260 -74t128 -126q35 -78 35 -178v-1133h-2179q-275 0 -383 72q-109 73 -109 198q0 121 92 201q94 82 248 152l1549 708h-1880v205h1810zM1126 195h971v915l-979 -483q-153 -78 -204 -132q-54 -57 -54 -126q0 -81 66 -128
q65 -46 200 -46zM1096 1659v119l1091 90v-119z" />
    <glyph glyph-name="Acircumflex.alt3" horiz-adv-x="3008" 
d="M1921 1536q256 0 429 -25q166 -24 260 -74t128 -126q35 -78 35 -178v-1133h-2179q-275 0 -383 72q-109 73 -109 198q0 121 92 201q94 82 248 152l1549 708h-1880v205h1810zM1126 195h971v915l-979 -483q-153 -78 -204 -132q-54 -57 -54 -126q0 -81 66 -128
q65 -46 200 -46zM1505 1868l621 -90v-119l-621 90l-620 -90v119z" />
    <glyph glyph-name="Atilde.alt3" horiz-adv-x="3008" 
d="M1921 1536q256 0 429 -25q166 -24 260 -74t128 -126q35 -78 35 -178v-1133h-2179q-275 0 -383 72q-109 73 -109 198q0 121 92 201q94 82 248 152l1549 708h-1880v205h1810zM1126 195h971v915l-979 -483q-153 -78 -204 -132q-54 -57 -54 -126q0 -81 66 -128
q65 -46 200 -46zM1688 1767l101 -11q27 -3 42 -3q27 0 38 11t11 32v31h121v-80q0 -62 -46 -93q-47 -32 -122 -32q-21 0 -51 3q-9 1 -43.5 4.5t-59.5 6.5l-356 45l-101 12q-27 3 -42 3q-26 0 -38 -12q-11 -11 -11 -31v-31h-121v80q0 62 46 93q47 32 122 32q35 0 65 -3
q11 -1 42 -5.5t46 -6.5z" />
    <glyph glyph-name="Adieresis.alt3" horiz-adv-x="3008" 
d="M1921 1536q256 0 429 -25q166 -24 260 -74t128 -126q35 -78 35 -178v-1133h-2179q-275 0 -383 72q-109 73 -109 198q0 121 92 201q94 82 248 152l1549 708h-1880v205h1810zM1126 195h971v915l-979 -483q-153 -78 -204 -132q-54 -57 -54 -126q0 -81 66 -128
q65 -46 200 -46zM846 1786h598v-127h-598v127zM1565 1786h598v-127h-598v127z" />
    <glyph glyph-name="Aring.alt3" horiz-adv-x="3008" 
d="M1921 1536q256 0 429 -25q166 -24 260 -74t128 -126q35 -78 35 -178v-1133h-2179q-275 0 -383 72q-109 73 -109 198q0 121 92 201q94 82 248 152l1549 708h-1880v205h1810zM1126 195h971v915l-979 -483q-153 -78 -204 -132q-54 -57 -54 -126q0 -81 66 -128
q65 -46 200 -46zM1032 1784q0 71 73 109t245 38h309q174 0 245 -37q72 -38 72 -106q0 -72 -72 -109q-71 -37 -245 -37h-309q-173 0 -245 36q-73 36 -73 106zM1845 1786q0 21 -42 33t-191 12h-215q-150 0 -192 -12t-42 -33q0 -20 42 -32q38 -11 192 -11h215q152 0 191 11
q42 12 42 32z" />
    <glyph glyph-name="Amacron.alt3" horiz-adv-x="3008" 
d="M1921 1536q256 0 429 -25q166 -24 260 -74t128 -126q35 -78 35 -178v-1133h-2179q-275 0 -383 72q-109 73 -109 198q0 121 92 201q94 82 248 152l1549 708h-1880v205h1810zM1126 195h971v915l-979 -483q-153 -78 -204 -132q-54 -57 -54 -126q0 -81 66 -128
q65 -46 200 -46zM1997 1659h-983v127h983v-127z" />
    <glyph glyph-name="Abreve.alt3" horiz-adv-x="3008" 
d="M1921 1536q256 0 429 -25q166 -24 260 -74t128 -126q35 -78 35 -178v-1133h-2179q-275 0 -383 72q-109 73 -109 198q0 121 92 201q94 82 248 152l1549 708h-1880v205h1810zM1126 195h971v915l-979 -483q-153 -78 -204 -132q-54 -57 -54 -126q0 -81 66 -128
q65 -46 200 -46zM1505 1632q-202 0 -328 69q-128 70 -173 152h202q25 -31 94 -69q67 -37 207 -37t207 37q69 38 94 69h199q-45 -82 -173 -152q-126 -69 -329 -69z" />
    <glyph glyph-name="Aogonek.alt3" horiz-adv-x="3008" 
d="M1921 1536q256 0 429 -25q166 -24 260 -74t128 -126q35 -78 35 -178v-1133h-2179q-275 0 -383 72q-109 73 -109 198q0 121 92 201q94 82 248 152l1549 708h-1880v205h1810zM1126 195h971v915l-979 -483q-153 -78 -204 -132q-54 -57 -54 -126q0 -81 66 -128
q65 -46 200 -46zM2277 -207q0 -15 18 -22q22 -9 68 -9h457v-112h-483q-152 0 -196 35t-44 73q0 52 46 83q48 32 153 65l305 94h219l-381 -131q-48 -16 -125 -44q-37 -13 -37 -32z" />
    <glyph glyph-name="Ccedilla.long" horiz-adv-x="2799" 
d="M2615 205v-205h-1300q-336 0 -570 41q-230 40 -371 123t-201 208q-60 126 -60 294v204q0 169 64 294t207 208t373 123q234 41 558 41h1792v-205h-1792q-159 0 -249 -20q-95 -21 -147 -70q-53 -50 -71 -133q-19 -89 -19 -211v-256q0 -122 19 -211q18 -83 73 -134
q55 -50 154 -71q96 -20 260 -20h1280zM1264 -350l344 360h247l-344 -360h-247z" />
    <glyph glyph-name="Cacute.long" horiz-adv-x="2799" 
d="M2615 205v-205h-1300q-336 0 -570 41q-230 40 -371 123t-201 208q-60 126 -60 294v204q0 169 64 294t207 208t373 123q234 41 558 41h1792v-205h-1792q-159 0 -249 -20q-95 -21 -147 -70q-53 -50 -71 -133q-19 -89 -19 -211v-256q0 -122 19 -211q18 -83 73 -134
q55 -50 154 -71q96 -20 260 -20h1280zM1313 1659v119l1091 90v-119z" />
    <glyph glyph-name="Cdotaccent.long" horiz-adv-x="2799" 
d="M2615 205v-205h-1300q-336 0 -570 41q-230 40 -371 123t-201 208q-60 126 -60 294v204q0 169 64 294t207 208t373 123q234 41 558 41h1792v-205h-1792q-159 0 -249 -20q-95 -21 -147 -70q-53 -50 -71 -133q-19 -89 -19 -211v-256q0 -122 19 -211q18 -83 73 -134
q55 -50 154 -71q96 -20 260 -20h1280zM1862 1663h-283v139h283v-139z" />
    <glyph glyph-name="Ccaron.long" horiz-adv-x="2799" 
d="M2615 205v-205h-1300q-336 0 -570 41q-230 40 -371 123t-201 208q-60 126 -60 294v204q0 169 64 294t207 208t373 123q234 41 558 41h1792v-205h-1792q-159 0 -249 -20q-95 -21 -147 -70q-53 -50 -71 -133q-19 -89 -19 -211v-256q0 -122 19 -211q18 -83 73 -134
q55 -50 154 -71q96 -20 260 -20h1280zM1722 1649l-620 90v119l620 -91l621 91v-119z" />
    <glyph glyph-name="Dcaron.alt1" horiz-adv-x="3373" 
d="M-410 1331v205h2386q324 0 558 -41q230 -40 373 -123t207 -208t64 -294v-204q0 -168 -60 -294q-60 -125 -201 -208t-371 -123q-234 -41 -570 -41h-1730v1065h676v-860h1054q159 0 249 20q95 21 148 71q52 49 70 134q19 89 19 211v256q0 122 -19 211q-18 84 -70 133
q-51 49 -148 70q-90 20 -249 20h-2386zM1649 1649l-621 90v119l621 -91l620 91v-119z" />
    <glyph glyph-name="Dcroat.alt1" horiz-adv-x="3373" 
d="M41 645v143h205v277h676v-277h1048v-143h-1048v-440h1054q159 0 249 20q95 21 148 71q52 49 70 134q19 89 19 211v256q0 122 -19 211q-18 84 -70 133q-51 49 -148 70q-90 20 -249 20h-2386v205h2386q324 0 558 -41q230 -40 373 -123t207 -208t64 -294v-204
q0 -168 -60 -294q-60 -125 -201 -208t-371 -123q-234 -41 -570 -41h-1730v645h-205z" />
    <glyph glyph-name="Dcaron.alt2" horiz-adv-x="3229" 
d="M184 1331v205h1731q324 0 558 -41q230 -40 373 -123t207 -208t64 -294v-204q0 -168 -60 -294q-60 -125 -201 -208q-141 -82 -372 -123q-234 -41 -569 -41h-1731v1065h676v-860h1055q159 0 249 20q94 21 147 71t71 134t18 211v256q0 127 -18 211q-18 83 -71 133
q-52 49 -147 70q-90 20 -249 20h-1731zM1505 1649l-620 90v119l620 -91l621 91v-119z" />
    <glyph glyph-name="Dcroat.alt2" horiz-adv-x="3229" 
d="M41 645v143h143v277h676v-277h1110v-143h-1110v-440h1055q159 0 249 20q94 21 147 71t71 134t18 211v256q0 127 -18 211q-18 83 -71 133q-52 49 -147 70q-90 20 -249 20h-1731v205h1731q324 0 558 -41q230 -40 373 -123t207 -208t64 -294v-204q0 -168 -60 -294
q-60 -125 -201 -208q-141 -82 -372 -123q-234 -41 -569 -41h-1731v645h-143z" />
    <glyph glyph-name="Egrave.alt1" horiz-adv-x="2949" 
d="M2820 205v-205h-1505q-336 0 -570 41q-230 40 -371 123t-201 208q-60 126 -60 294v204q0 169 64 294t207 208t373 123q234 41 558 41h1485v-205h-1485q-159 0 -249 -20q-95 -21 -147 -70q-53 -50 -71 -133q-19 -89 -19 -211v-14h1971v-205h-1971v-37q0 -122 19 -211
q18 -83 73 -134q55 -50 154 -71q96 -20 260 -20h1485zM2189 1659l-1091 90v119l1091 -90v-119z" />
    <glyph glyph-name="Eacute.alt1" horiz-adv-x="2949" 
d="M2820 205v-205h-1505q-336 0 -570 41q-230 40 -371 123t-201 208q-60 126 -60 294v204q0 169 64 294t207 208t373 123q234 41 558 41h1485v-205h-1485q-159 0 -249 -20q-95 -21 -147 -70q-53 -50 -71 -133q-19 -89 -19 -211v-14h1971v-205h-1971v-37q0 -122 19 -211
q18 -83 73 -134q55 -50 154 -71q96 -20 260 -20h1485zM1364 1659v119l1092 90v-119z" />
    <glyph glyph-name="Ecircumflex.alt1" horiz-adv-x="2949" 
d="M2820 205v-205h-1505q-336 0 -570 41q-230 40 -371 123t-201 208q-60 126 -60 294v204q0 169 64 294t207 208t373 123q234 41 558 41h1485v-205h-1485q-159 0 -249 -20q-95 -21 -147 -70q-53 -50 -71 -133q-19 -89 -19 -211v-14h1971v-205h-1971v-37q0 -122 19 -211
q18 -83 73 -134q55 -50 154 -71q96 -20 260 -20h1485zM1772 1868l620 -90v-119l-620 90l-621 -90v119z" />
    <glyph glyph-name="Edieresis.alt1" horiz-adv-x="2949" 
d="M2820 205v-205h-1505q-336 0 -570 41q-230 40 -371 123t-201 208q-60 126 -60 294v204q0 169 64 294t207 208t373 123q234 41 558 41h1485v-205h-1485q-159 0 -249 -20q-95 -21 -147 -70q-53 -50 -71 -133q-19 -89 -19 -211v-14h1971v-205h-1971v-37q0 -122 19 -211
q18 -83 73 -134q55 -50 154 -71q96 -20 260 -20h1485zM1112 1786h598v-127h-598v127zM1831 1786h598v-127h-598v127z" />
    <glyph glyph-name="Emacron.alt1" horiz-adv-x="2949" 
d="M2820 205v-205h-1505q-336 0 -570 41q-230 40 -371 123t-201 208q-60 126 -60 294v204q0 169 64 294t207 208t373 123q234 41 558 41h1485v-205h-1485q-159 0 -249 -20q-95 -21 -147 -70q-53 -50 -71 -133q-19 -89 -19 -211v-14h1971v-205h-1971v-37q0 -122 19 -211
q18 -83 73 -134q55 -50 154 -71q96 -20 260 -20h1485zM2263 1659h-983v127h983v-127z" />
    <glyph glyph-name="Ebreve.alt1" horiz-adv-x="2949" 
d="M2820 205v-205h-1505q-336 0 -570 41q-230 40 -371 123t-201 208q-60 126 -60 294v204q0 169 64 294t207 208t373 123q234 41 558 41h1485v-205h-1485q-159 0 -249 -20q-95 -21 -147 -70q-53 -50 -71 -133q-19 -89 -19 -211v-14h1971v-205h-1971v-37q0 -122 19 -211
q18 -83 73 -134q55 -50 154 -71q96 -20 260 -20h1485zM1774 1632q-203 0 -329 69q-128 70 -173 152h203q25 -31 94 -69q67 -37 207 -37q139 0 206 37q71 39 95 69h198q-45 -82 -173 -152q-126 -69 -328 -69z" />
    <glyph glyph-name="Edotaccent.alt1" horiz-adv-x="2949" 
d="M2820 205v-205h-1505q-336 0 -570 41q-230 40 -371 123t-201 208q-60 126 -60 294v204q0 169 64 294t207 208t373 123q234 41 558 41h1485v-205h-1485q-159 0 -249 -20q-95 -21 -147 -70q-53 -50 -71 -133q-19 -89 -19 -211v-14h1971v-205h-1971v-37q0 -122 19 -211
q18 -83 73 -134q55 -50 154 -71q96 -20 260 -20h1485zM1913 1663h-283v139h283v-139z" />
    <glyph glyph-name="Eogonek.alt1" horiz-adv-x="2949" 
d="M2820 205v-205h-1505q-336 0 -570 41q-230 40 -371 123t-201 208q-60 126 -60 294v204q0 169 64 294t207 208t373 123q234 41 558 41h1485v-205h-1485q-159 0 -249 -20q-95 -21 -147 -70q-53 -50 -71 -133q-19 -89 -19 -211v-14h1971v-205h-1971v-37q0 -122 19 -211
q18 -83 73 -134q55 -50 154 -71q96 -20 260 -20h1485zM2273 -207q0 -15 18 -22q22 -9 68 -9h457v-112h-483q-152 0 -196 35t-44 73q0 52 46 83q48 32 153 65l305 94h219l-381 -131q-48 -16 -125 -44q-37 -13 -37 -32z" />
    <glyph glyph-name="Ecaron.alt1" horiz-adv-x="2949" 
d="M2820 205v-205h-1505q-336 0 -570 41q-230 40 -371 123t-201 208q-60 126 -60 294v204q0 169 64 294t207 208t373 123q234 41 558 41h1485v-205h-1485q-159 0 -249 -20q-95 -21 -147 -70q-53 -50 -71 -133q-19 -89 -19 -211v-14h1971v-205h-1971v-37q0 -122 19 -211
q18 -83 73 -134q55 -50 154 -71q96 -20 260 -20h1485zM1774 1649l-621 90v119l621 -91l620 91v-119z" />
    <glyph glyph-name="Egrave.open" horiz-adv-x="2906" 
d="M184 1331v205h2585v-205h-2585zM184 307v576h2585v-205h-1909v-473h1909v-205h-2277q-136 0 -222 86t-86 221zM1933 1659l-1091 90v119l1091 -90v-119z" />
    <glyph glyph-name="Eacute.open" horiz-adv-x="2906" 
d="M184 1331v205h2585v-205h-2585zM184 307v576h2585v-205h-1909v-473h1909v-205h-2277q-136 0 -222 86t-86 221zM1108 1659v119l1092 90v-119z" />
    <glyph glyph-name="Ecircumflex.open" horiz-adv-x="2906" 
d="M184 1331v205h2585v-205h-2585zM184 307v576h2585v-205h-1909v-473h1909v-205h-2277q-136 0 -222 86t-86 221zM1516 1868l620 -90v-119l-620 90l-621 -90v119z" />
    <glyph glyph-name="Edieresis.open" horiz-adv-x="2906" 
d="M184 1331v205h2585v-205h-2585zM184 307v576h2585v-205h-1909v-473h1909v-205h-2277q-136 0 -222 86t-86 221zM856 1786h598v-127h-598v127zM1575 1786h598v-127h-598v127z" />
    <glyph glyph-name="Emacron.open" horiz-adv-x="2906" 
d="M184 1331v205h2585v-205h-2585zM184 307v576h2585v-205h-1909v-473h1909v-205h-2277q-136 0 -222 86t-86 221zM2007 1659h-983v127h983v-127z" />
    <glyph glyph-name="Ebreve.open" horiz-adv-x="2906" 
d="M184 1331v205h2585v-205h-2585zM184 307v576h2585v-205h-1909v-473h1909v-205h-2277q-136 0 -222 86t-86 221zM1518 1632q-203 0 -329 69q-128 70 -173 152h203q25 -31 94 -69q67 -37 207 -37q139 0 206 37q71 39 95 69h198q-45 -82 -173 -152q-126 -69 -328 -69z" />
    <glyph glyph-name="Edotaccent.open" horiz-adv-x="2906" 
d="M184 1331v205h2585v-205h-2585zM184 307v576h2585v-205h-1909v-473h1909v-205h-2277q-136 0 -222 86t-86 221zM1657 1663h-283v139h283v-139z" />
    <glyph glyph-name="Eogonek.open" horiz-adv-x="2906" 
d="M184 1331v205h2585v-205h-2585zM184 307v576h2585v-205h-1909v-473h1909v-205h-2277q-136 0 -222 86t-86 221zM2222 -207q0 -15 17 -22q22 -9 69 -9h457v-112h-484q-151 0 -195 35t-44 73q0 52 46 83q48 32 153 65l305 94h219l-381 -131q-48 -16 -125 -44
q-37 -13 -37 -32z" />
    <glyph glyph-name="Ecaron.open" horiz-adv-x="2906" 
d="M184 1331v205h2585v-205h-2585zM184 307v576h2585v-205h-1909v-473h1909v-205h-2277q-136 0 -222 86t-86 221zM1518 1649l-621 90v119l621 -91l620 91v-119z" />
    <glyph glyph-name="Gbreve.alt1" horiz-adv-x="3072" 
d="M2228 715q145 74 273 89q130 15 226 -10t154 -86q56 -59 56 -139v-569h-584v524l-627 -329q-151 -78 -184 -94q-85 -42 -170 -69q-91 -29 -175 -43q-98 -16 -200 -16q-190 0 -359 31q-160 29 -280 97q-116 66 -181 171q-64 104 -64 250v363q0 148 61 269q62 122 191 206
t333 130q203 46 490 46h1730v-205h-1730q-219 0 -309 -91q-91 -93 -91 -277v-433q0 -184 65 -258q64 -73 261 -73q72 0 123 12q49 12 96 35q43 22 95 53q44 27 120 68zM1743 1632q-203 0 -329 69q-128 70 -173 152h203q25 -31 94 -69q67 -37 207 -37t207 37q69 38 94 69h199
q-45 -82 -173 -152q-126 -69 -329 -69z" />
    <glyph glyph-name="Gdotaccent.alt1" horiz-adv-x="3072" 
d="M2228 715q145 74 273 89q130 15 226 -10t154 -86q56 -59 56 -139v-569h-584v524l-627 -329q-151 -78 -184 -94q-85 -42 -170 -69q-91 -29 -175 -43q-98 -16 -200 -16q-190 0 -359 31q-160 29 -280 97q-116 66 -181 171q-64 104 -64 250v363q0 148 61 269q62 122 191 206
t333 130q203 46 490 46h1730v-205h-1730q-219 0 -309 -91q-91 -93 -91 -277v-433q0 -184 65 -258q64 -73 261 -73q72 0 123 12q49 12 96 35q43 22 95 53q44 27 120 68zM1882 1663h-283v139h283v-139z" />
    <glyph glyph-name="Gcommaaccent.alt1" horiz-adv-x="3072" 
d="M2228 715q145 74 273 89q130 15 226 -10t154 -86q56 -59 56 -139v-569h-584v524l-627 -329q-151 -78 -184 -94q-85 -42 -170 -69q-91 -29 -175 -43q-98 -16 -200 -16q-190 0 -359 31q-160 29 -280 97q-116 66 -181 171q-64 104 -64 250v363q0 148 61 269q62 122 191 206
t333 130q203 46 490 46h1730v-205h-1730q-219 0 -309 -91q-91 -93 -91 -277v-433q0 -184 65 -258q64 -73 261 -73q72 0 123 12q49 12 96 35q43 22 95 53q44 27 120 68zM1761 -350q42 65 55 97q15 37 15 114v67h184v-86q0 -57 -18 -99q-17 -40 -64 -93h-172z" />
    <glyph glyph-name="Hbar.connect" horiz-adv-x="3256" 
d="M184 0v1055h-237v143h237v338h676v-338h1536v92q0 136 82 191t266 55h658v-203h-240q-39 0 -64 -25q-26 -26 -26 -65v-45h238v-143h-238v-1055h-676v666h-1536v-666h-676zM860 891h1536v164h-1536v-164z" />
    <glyph glyph-name="Kcommaaccent.alt1" horiz-adv-x="3098" 
d="M184 1536h676v-1116l1546 1116h643l-1787 -1329h1734v-207h-2812v1536zM1509 -350q42 65 55 97q15 37 15 114v67h184v-86q0 -57 -18 -99q-17 -40 -64 -93h-172z" />
    <glyph glyph-name="Lacute.alt1" horiz-adv-x="2727" 
d="M860 1536v-897q0 -122 19 -211q18 -84 70 -133q51 -49 148 -70q90 -20 249 -20h1320v-205h-1280q-324 0 -558 41q-229 40 -372 123t-207 208q-65 127 -65 294v870h676zM184 1659v119l1092 90v-119z" />
    <glyph glyph-name="Lcommaaccent.alt1" horiz-adv-x="2727" 
d="M860 1536v-897q0 -122 19 -211q18 -84 70 -133q51 -49 148 -70q90 -20 249 -20h1320v-205h-1280q-324 0 -558 41q-229 40 -372 123t-207 208q-65 127 -65 294v870h676zM1405 -350q40 61 54 97q16 40 16 114v67h184v-86q0 -55 -19 -99q-18 -42 -63 -93h-172z" />
    <glyph glyph-name="Lcaron.alt1" horiz-adv-x="2727" 
d="M860 1536v-897q0 -122 19 -211q18 -84 70 -133q51 -49 148 -70q90 -20 249 -20h1320v-205h-1280q-324 0 -558 41q-229 40 -372 123t-207 208q-65 127 -65 294v870h676zM1243 963q42 86 59 128q18 44 32 96q11 40 16 86q4 37 4 95v166h133v-164q0 -50 -5 -97
q-4 -39 -20 -85q-18 -52 -38 -96q-45 -98 -60 -129h-121z" />
    <glyph glyph-name="Ldot.alt1" horiz-adv-x="2727" 
d="M860 1536v-897q0 -122 19 -211q18 -84 70 -133q51 -49 148 -70q90 -20 249 -20h1320v-205h-1280q-324 0 -558 41q-229 40 -372 123t-207 208q-65 127 -65 294v870h676zM1913 864h-283v140h283v-140z" />
    <glyph glyph-name="Lslash.alt1" horiz-adv-x="2768" 
d="M41 498l190 63q0 7 -1.5 24t-2.5 27q-2 36 -2 54v870h676v-756l1008 330v-154l-1008 -329q0 -121 20 -204q19 -80 72 -130q52 -49 148 -69q92 -19 245 -19h1321v-205h-1280q-523 0 -798 103q-277 104 -361 315l-227 -74v154z" />
    <glyph glyph-name="Ntilde.alt1" horiz-adv-x="3225" 
d="M184 0v1536h2034q426 0 625 -113q198 -113 198 -327v-1096h-676v1120q0 121 -47 166q-46 45 -155 45h-1303v-1331h-676zM1796 1767l101 -11q27 -3 42 -3q27 0 38 11q12 12 12 32v31h120v-80q0 -62 -46 -93q-47 -32 -121 -32q-22 0 -52 3q-9 1 -42.5 4.5t-59.5 6.5
l-356 45l-102 12q-27 3 -42 3q-26 0 -38 -12q-11 -11 -11 -31v-31h-121v80q0 62 46 93q47 32 122 32q36 0 66 -3q11 -1 42 -5.5t46 -6.5z" />
    <glyph glyph-name="Nacute.alt1" horiz-adv-x="3225" 
d="M184 0v1536h2034q426 0 625 -113q198 -113 198 -327v-1096h-676v1120q0 121 -47 166q-46 45 -155 45h-1303v-1331h-676zM1204 1659v119l1092 90v-119z" />
    <glyph glyph-name="Ncommaaccent.alt1" horiz-adv-x="3225" 
d="M184 0v1536h2034q426 0 625 -113q198 -113 198 -327v-1096h-676v1120q0 121 -47 166q-46 45 -155 45h-1303v-1331h-676zM1491 -350q40 61 54 97q16 40 16 114v67h184v-86q0 -55 -19 -99q-18 -42 -63 -93h-172z" />
    <glyph glyph-name="Ncaron.alt1" horiz-adv-x="3225" 
d="M184 0v1536h2034q426 0 625 -113q198 -113 198 -327v-1096h-676v1120q0 121 -47 166q-46 45 -155 45h-1303v-1331h-676zM1614 1649l-621 90v119l621 -91l620 91v-119z" />
    <glyph glyph-name="Ntilde.connect" horiz-adv-x="3522" 
d="M184 0v1229q0 163 189 248q190 86 559 86q300 0 531 -57q232 -57 337 -222l672 -1040q18 -28 46 -47t60 -19q55 0 70 26q14 24 14 83v1003q0 136 82 191t267 55h636v-203h-219q-39 0 -64 -25q-26 -26 -26 -65v-950q0 -167 -198 -243q-199 -77 -588 -77q-279 0 -488 62
q-206 61 -301 209l-673 1036q-22 34 -58 57q-33 21 -74 21q-61 0 -80 -28q-18 -27 -18 -89v-1241h-676zM2386 1624l101 -11q27 -3 42 -3q27 0 38 11t11 32v30h121v-79q0 -63 -46 -94t-122 -31q-21 0 -51 3q-9 1 -42.5 4.5t-59.5 6.5l-357 45l-101 11q-27 3 -42 3
q-27 0 -38 -11t-11 -32v-30h-121v80q0 62 46 93t122 31q36 0 66 -3q18 -2 88 -11z" />
    <glyph glyph-name="Nacute.connect" horiz-adv-x="3522" 
d="M184 0v1229q0 163 189 248q190 86 559 86q300 0 531 -57q232 -57 337 -222l672 -1040q18 -28 46 -47t60 -19q55 0 70 26q14 24 14 83v1003q0 136 82 191t267 55h636v-203h-219q-39 0 -64 -25q-26 -26 -26 -65v-950q0 -167 -198 -243q-199 -77 -588 -77q-279 0 -488 62
q-206 61 -301 209l-673 1036q-22 34 -58 57q-33 21 -74 21q-61 0 -80 -28q-18 -27 -18 -89v-1241h-676zM1518 1597v119l1091 90v-118z" />
    <glyph glyph-name="Ncommaaccent.connect" horiz-adv-x="3522" 
d="M184 0v1229q0 163 189 248q190 86 559 86q300 0 531 -57q232 -57 337 -222l672 -1040q18 -28 46 -47t60 -19q55 0 70 26q14 24 14 83v1003q0 136 82 191t267 55h636v-203h-219q-39 0 -64 -25q-26 -26 -26 -65v-950q0 -167 -198 -243q-199 -77 -588 -77q-279 0 -488 62
q-206 61 -301 209l-673 1036q-22 34 -58 57q-33 21 -74 21q-61 0 -80 -28q-18 -27 -18 -89v-1241h-676zM1638 -350q42 65 55 97q15 37 15 114v67h184v-86q0 -57 -18 -99q-17 -40 -64 -93h-172z" />
    <glyph glyph-name="Ncaron.connect" horiz-adv-x="3522" 
d="M184 0v1229q0 163 189 248q190 86 559 86q300 0 531 -57q232 -57 337 -222l672 -1040q18 -28 46 -47t60 -19q55 0 70 26q14 24 14 83v1003q0 136 82 191t267 55h636v-203h-219q-39 0 -64 -25q-26 -26 -26 -65v-950q0 -167 -198 -243q-199 -77 -588 -77q-279 0 -488 62
q-206 61 -301 209l-673 1036q-22 34 -58 57q-33 21 -74 21q-61 0 -80 -28q-18 -27 -18 -89v-1241h-676zM1927 1587l-620 90v119l620 -90l621 90v-119z" />
    <glyph glyph-name="Racute.alt1" horiz-adv-x="2220" 
d="M-410 1331v205h1606q275 0 455 -19q185 -20 296 -66q112 -47 159 -125q48 -79 48 -196v-73q0 -94 -36 -160q-39 -72 -121 -117q-82 -46 -227 -70q-142 -24 -349 -24h-233q-24 0 -39 -9q-14 -8 -14 -30q0 -18 12 -30q10 -10 33 -23l968 -594h-899l-979 614q-78 49 -106 82
q-29 34 -29 74q0 46 39 68q38 22 109 22h821q222 0 299 39q76 39 76 160v76q0 53 -16 93q-15 37 -56 60q-41 22 -117 33q-73 10 -194 10h-1506zM600 1659v119l1092 90v-119z" />
    <glyph glyph-name="Rcommaaccent.alt1" horiz-adv-x="2220" 
d="M-410 1331v205h1606q275 0 455 -19q185 -20 296 -66q112 -47 159 -125q48 -79 48 -196v-73q0 -94 -36 -160q-39 -72 -121 -117q-82 -46 -227 -70q-142 -24 -349 -24h-233q-24 0 -39 -9q-14 -8 -14 -30q0 -18 12 -30q10 -10 33 -23l968 -594h-899l-979 614q-78 49 -106 82
q-29 34 -29 74q0 46 39 68q38 22 109 22h821q222 0 299 39q76 39 76 160v76q0 53 -16 93q-15 37 -56 60q-41 22 -117 33q-73 10 -194 10h-1506zM373 -350q40 61 54 97q15 37 15 114v67h185v-86q0 -55 -19 -99q-18 -42 -63 -93h-172z" />
    <glyph glyph-name="Rcaron.alt1" horiz-adv-x="2220" 
d="M-410 1331v205h1606q275 0 455 -19q185 -20 296 -66q112 -47 159 -125q48 -79 48 -196v-73q0 -94 -36 -160q-39 -72 -121 -117q-82 -46 -227 -70q-142 -24 -349 -24h-233q-24 0 -39 -9q-14 -8 -14 -30q0 -18 12 -30q10 -10 33 -23l968 -594h-899l-979 614q-78 49 -106 82
q-29 34 -29 74q0 46 39 68q38 22 109 22h821q222 0 299 39q76 39 76 160v76q0 53 -16 93q-15 37 -56 60q-41 22 -117 33q-73 10 -194 10h-1506zM1010 1649l-621 90v119l621 -91l620 91v-119z" />
    <glyph glyph-name="Racute.alt2" horiz-adv-x="2932" 
d="M983 717q-32 0 -47 -24q-14 -22 -14 -85v-608h-643v811q0 57 38 83q40 28 109 28h1395q224 0 299 28t75 150v55q0 55 -15 90q-15 34 -56 54q-42 20 -117 26q-77 6 -195 6h-2201v205h2302q269 0 454 -15q183 -15 296 -56q114 -41 160 -111q48 -72 48 -183v-53
q0 -98 -37 -166q-38 -70 -120 -114q-85 -46 -227 -68q-139 -22 -349 -22h-110q-22 0 -39 -10q-15 -9 -15 -29q0 -18 13 -29q13 -12 32 -25l908 -655h-899l-895 639q-16 12 -89 60q-27 18 -61 18zM1059 1659v119l1091 90v-119z" />
    <glyph glyph-name="Rcommaaccent.alt2" horiz-adv-x="2932" 
d="M983 717q-32 0 -47 -24q-14 -22 -14 -85v-608h-643v811q0 57 38 83q40 28 109 28h1395q224 0 299 28t75 150v55q0 55 -15 90q-15 34 -56 54q-42 20 -117 26q-77 6 -195 6h-2201v205h2302q269 0 454 -15q183 -15 296 -56q114 -41 160 -111q48 -72 48 -183v-53
q0 -98 -37 -166q-38 -70 -120 -114q-85 -46 -227 -68q-139 -22 -349 -22h-110q-22 0 -39 -10q-15 -9 -15 -29q0 -18 13 -29q13 -12 32 -25l908 -655h-899l-895 639q-16 12 -89 60q-27 18 -61 18zM1303 -350q40 61 54 97q15 37 15 114v67h184v-86q0 -57 -18 -99t-63 -93h-172
z" />
    <glyph glyph-name="Rcaron.alt2" horiz-adv-x="2932" 
d="M983 717q-32 0 -47 -24q-14 -22 -14 -85v-608h-643v811q0 57 38 83q40 28 109 28h1395q224 0 299 28t75 150v55q0 55 -15 90q-15 34 -56 54q-42 20 -117 26q-77 6 -195 6h-2201v205h2302q269 0 454 -15q183 -15 296 -56q114 -41 160 -111q48 -72 48 -183v-53
q0 -98 -37 -166q-38 -70 -120 -114q-85 -46 -227 -68q-139 -22 -349 -22h-110q-22 0 -39 -10q-15 -9 -15 -29q0 -18 13 -29q13 -12 32 -25l908 -655h-899l-895 639q-16 12 -89 60q-27 18 -61 18zM1468 1649l-620 90v119l620 -91l621 91v-119z" />
    <glyph glyph-name="Racute.alt3" horiz-adv-x="2932" 
d="M983 717q-32 0 -47 -24q-14 -22 -14 -85v-608h-643v811q0 57 38 83q40 28 109 28h1395q224 0 299 28t75 150v55q0 55 -15 90q-15 34 -56 54q-42 20 -117 26q-77 6 -195 6h-1533v205h1634q269 0 454 -15q183 -15 296 -56q114 -41 160 -111q48 -72 48 -183v-53
q0 -98 -37 -166q-38 -70 -120 -114q-85 -46 -227 -68q-139 -22 -349 -22h-110q-22 0 -39 -10q-15 -9 -15 -29q0 -18 13 -29q13 -12 32 -25l908 -655h-899l-895 639q-16 12 -89 60q-27 18 -61 18zM1059 1659v119l1091 90v-119z" />
    <glyph glyph-name="Rcommaaccent.alt3" horiz-adv-x="2932" 
d="M983 717q-32 0 -47 -24q-14 -22 -14 -85v-608h-643v811q0 57 38 83q40 28 109 28h1395q224 0 299 28t75 150v55q0 55 -15 90q-15 34 -56 54q-42 20 -117 26q-77 6 -195 6h-1533v205h1634q269 0 454 -15q183 -15 296 -56q114 -41 160 -111q48 -72 48 -183v-53
q0 -98 -37 -166q-38 -70 -120 -114q-85 -46 -227 -68q-139 -22 -349 -22h-110q-22 0 -39 -10q-15 -9 -15 -29q0 -18 13 -29q13 -12 32 -25l908 -655h-899l-895 639q-16 12 -89 60q-27 18 -61 18zM1303 -350q40 61 54 97q15 37 15 114v67h184v-86q0 -57 -18 -99t-63 -93h-172
z" />
    <glyph glyph-name="Rcaron.alt3" horiz-adv-x="2932" 
d="M983 717q-32 0 -47 -24q-14 -22 -14 -85v-608h-643v811q0 57 38 83q40 28 109 28h1395q224 0 299 28t75 150v55q0 55 -15 90q-15 34 -56 54q-42 20 -117 26q-77 6 -195 6h-1533v205h1634q269 0 454 -15q183 -15 296 -56q114 -41 160 -111q48 -72 48 -183v-53
q0 -98 -37 -166q-38 -70 -120 -114q-85 -46 -227 -68q-139 -22 -349 -22h-110q-22 0 -39 -10q-15 -9 -15 -29q0 -18 13 -29q13 -12 32 -25l908 -655h-899l-895 639q-16 12 -89 60q-27 18 -61 18zM1468 1649l-620 90v119l620 -91l621 91v-119z" />
    <glyph glyph-name="Sacute.alt1" horiz-adv-x="2699" 
d="M1481 332q-105 -178 -236 -255t-305 -77h-899v205h426q126 0 196 43q69 43 146 166l475 790q105 178 236 255t305 77h833v-205h-360q-126 0 -197 -43q-72 -43 -145 -166zM1567 1659v119l1091 90v-119z" />
    <glyph glyph-name="Scedilla.alt1" horiz-adv-x="2699" 
d="M1481 332q-105 -178 -236 -255t-305 -77h-899v205h426q126 0 196 43q69 43 146 166l475 790q105 178 236 255t305 77h833v-205h-360q-126 0 -197 -43q-72 -43 -145 -166zM238 -350l344 360h247l-344 -360h-247z" />
    <glyph glyph-name="Scommaaccent.alt1" horiz-adv-x="2699" 
d="M1481 332q-105 -178 -236 -255t-305 -77h-899v205h426q126 0 196 43q69 43 146 166l475 790q105 178 236 255t305 77h833v-205h-360q-126 0 -197 -43q-72 -43 -145 -166zM530 -350q42 65 55 97q15 37 15 114v67h184v-86q0 -57 -18 -99q-17 -40 -64 -93h-172z" />
    <glyph glyph-name="Scaron.alt1" horiz-adv-x="2699" 
d="M1481 332q-105 -178 -236 -255t-305 -77h-899v205h426q126 0 196 43q69 43 146 166l475 790q105 178 236 255t305 77h833v-205h-360q-126 0 -197 -43q-72 -43 -145 -166zM2038 1649l-621 90v119l621 -91l620 91v-119z" />
    <glyph glyph-name="Sacute.long1" horiz-adv-x="2990" 
d="M129 0v205h1913q124 0 177 43q54 43 54 137q0 83 -56 129q-58 47 -185 47h-1276q-361 0 -517 123q-157 124 -157 358q0 260 190 377t545 117h2398v-205h-2312q-114 0 -170 -40q-57 -41 -57 -132q0 -83 58 -126q59 -44 163 -44h1362q329 0 469 -134q139 -133 139 -345
q0 -268 -187 -389t-566 -121h-1985zM1190 1659v119l1091 90v-119z" />
    <glyph glyph-name="Scedilla.long1" horiz-adv-x="2990" 
d="M129 0v205h1913q124 0 177 43q54 43 54 137q0 83 -56 129q-58 47 -185 47h-1276q-361 0 -517 123q-157 124 -157 358q0 260 190 377t545 117h2398v-205h-2312q-114 0 -170 -40q-57 -41 -57 -132q0 -83 58 -126q59 -44 163 -44h1362q329 0 469 -134q139 -133 139 -345
q0 -268 -187 -389t-566 -121h-1985zM1038 -350l344 360h248l-344 -360h-248z" />
    <glyph glyph-name="Scommaaccent.long1" horiz-adv-x="2990" 
d="M129 0v205h1913q124 0 177 43q54 43 54 137q0 83 -56 129q-58 47 -185 47h-1276q-361 0 -517 123q-157 124 -157 358q0 260 190 377t545 117h2398v-205h-2312q-114 0 -170 -40q-57 -41 -57 -132q0 -83 58 -126q59 -44 163 -44h1362q329 0 469 -134q139 -133 139 -345
q0 -268 -187 -389t-566 -121h-1985zM1331 -350q40 61 54 97q16 40 16 114v67h184v-86q0 -57 -18 -99q-17 -40 -64 -93h-172z" />
    <glyph glyph-name="Scaron.long1" horiz-adv-x="2990" 
d="M129 0v205h1913q124 0 177 43q54 43 54 137q0 83 -56 129q-58 47 -185 47h-1276q-361 0 -517 123q-157 124 -157 358q0 260 190 377t545 117h2398v-205h-2312q-114 0 -170 -40q-57 -41 -57 -132q0 -83 58 -126q59 -44 163 -44h1362q329 0 469 -134q139 -133 139 -345
q0 -268 -187 -389t-566 -121h-1985zM1599 1649l-620 90v119l620 -91l621 91v-119z" />
    <glyph glyph-name="Sacute.long2" horiz-adv-x="2826" 
d="M-403 0v205h2322q124 0 177 43q54 43 54 137q0 83 -56 129q-58 47 -185 47h-1071q-361 0 -517 123q-157 124 -157 358q0 260 190 377q191 117 545 117h1784v-205h-1698q-114 0 -170 -40q-57 -41 -57 -132q0 -83 58 -126q59 -44 163 -44h1157q329 0 469 -134
q139 -133 139 -345q0 -268 -187 -389t-566 -121h-2394zM1169 1659v119l1092 90v-119z" />
    <glyph glyph-name="Scedilla.long2" horiz-adv-x="2826" 
d="M-403 0v205h2322q124 0 177 43q54 43 54 137q0 83 -56 129q-58 47 -185 47h-1071q-361 0 -517 123q-157 124 -157 358q0 260 190 377q191 117 545 117h1784v-205h-1698q-114 0 -170 -40q-57 -41 -57 -132q0 -83 58 -126q59 -44 163 -44h1157q329 0 469 -134
q139 -133 139 -345q0 -268 -187 -389t-566 -121h-2394zM956 -350l344 360h248l-344 -360h-248z" />
    <glyph glyph-name="Scommaaccent.long2" horiz-adv-x="2826" 
d="M-403 0v205h2322q124 0 177 43q54 43 54 137q0 83 -56 129q-58 47 -185 47h-1071q-361 0 -517 123q-157 124 -157 358q0 260 190 377q191 117 545 117h1784v-205h-1698q-114 0 -170 -40q-57 -41 -57 -132q0 -83 58 -126q59 -44 163 -44h1157q329 0 469 -134
q139 -133 139 -345q0 -268 -187 -389t-566 -121h-2394zM1249 -350q42 65 55 97q15 37 15 114v67h184v-86q0 -57 -18 -99q-17 -40 -64 -93h-172z" />
    <glyph glyph-name="Scaron.long2" horiz-adv-x="2826" 
d="M-403 0v205h2322q124 0 177 43q54 43 54 137q0 83 -56 129q-58 47 -185 47h-1071q-361 0 -517 123q-157 124 -157 358q0 260 190 377q191 117 545 117h1784v-205h-1698q-114 0 -170 -40q-57 -41 -57 -132q0 -83 58 -126q59 -44 163 -44h1157q329 0 469 -134
q139 -133 139 -345q0 -268 -187 -389t-566 -121h-2394zM1579 1649l-621 90v119l621 -91l621 91v-119z" />
    <glyph glyph-name="Ugrave.alt1" horiz-adv-x="3225" 
d="M3041 1536v-1536h-2033q-426 0 -625 113t-199 327v1096h676v-1120q0 -121 47 -166t156 -45h1302v1331h676zM2030 1556l-1092 91v118l1092 -90v-119z" />
    <glyph glyph-name="Uacute.alt1" horiz-adv-x="3225" 
d="M3041 1536v-1536h-2033q-426 0 -625 113t-199 327v1096h676v-1120q0 -121 47 -166t156 -45h1302v1331h676zM1204 1556v119l1092 90v-118z" />
    <glyph glyph-name="Ucircumflex.alt1" horiz-adv-x="3225" 
d="M3041 1536v-1536h-2033q-426 0 -625 113t-199 327v1096h676v-1120q0 -121 47 -166t156 -45h1302v1331h676zM1612 1765l620 -90v-119l-620 91l-621 -91v119z" />
    <glyph glyph-name="Udieresis.alt1" horiz-adv-x="3225" 
d="M3041 1536v-1536h-2033q-426 0 -625 113t-199 327v1096h676v-1120q0 -121 47 -166t156 -45h1302v1331h676zM952 1683h598v-127h-598v127zM1671 1683h598v-127h-598v127z" />
    <glyph glyph-name="Utilde.alt1" horiz-adv-x="3225" 
d="M3041 1536v-1536h-2033q-426 0 -625 113t-199 327v1096h676v-1120q0 -121 47 -166t156 -45h1302v1331h676zM1794 1665l101 -11q27 -3 42 -3q27 0 38 11q12 12 12 32v30h120v-79q0 -63 -46 -94t-122 -31q-21 0 -51 3q-9 1 -42.5 4.5t-59.5 6.5l-356 45l-102 11
q-27 3 -42 3q-27 0 -38 -11t-11 -32v-30h-121v79q0 63 46 94t122 31q36 0 66 -3q18 -2 88 -11z" />
    <glyph glyph-name="Umacron.alt1" horiz-adv-x="3225" 
d="M3041 1536v-1536h-2033q-426 0 -625 113t-199 327v1096h676v-1120q0 -121 47 -166t156 -45h1302v1331h676zM2103 1556h-983v127h983v-127z" />
    <glyph glyph-name="Ubreve.alt1" horiz-adv-x="3225" 
d="M3041 1536v-1536h-2033q-426 0 -625 113t-199 327v1096h676v-1120q0 -121 47 -166t156 -45h1302v1331h676zM1614 1530q-205 0 -329 68q-127 69 -173 153h203q27 -33 94 -70q65 -36 207 -36t207 36q67 37 94 70h199q-46 -84 -173 -153q-124 -68 -329 -68z" />
    <glyph glyph-name="Uring.alt1" horiz-adv-x="3225" 
d="M3041 1536v-1536h-2033q-426 0 -625 113t-199 327v1096h676v-1120q0 -121 47 -166t156 -45h1302v1331h676zM1139 1681q0 73 72 110q73 38 245 38h309q174 0 245 -37q73 -38 73 -106q0 -71 -73 -109q-71 -37 -245 -37h-309q-173 0 -245 36t-72 105zM1952 1683q0 21 -42 33
q-45 13 -192 13h-215q-145 0 -191 -13q-42 -12 -42 -33q0 -19 42 -31t191 -12h215q150 0 192 12t42 31z" />
    <glyph glyph-name="Uhungarumlaut.alt1" horiz-adv-x="3225" 
d="M3041 1536v-1536h-2033q-426 0 -625 113t-199 327v1096h676v-1120q0 -121 47 -166t156 -45h1302v1331h676zM1825 1516v114l682 90v-114zM1087 1516v114l682 90v-114z" />
    <glyph glyph-name="Uogonek.alt1" horiz-adv-x="3225" 
d="M3041 1536v-1536h-2033q-426 0 -625 113t-199 327v1096h676v-1120q0 -121 47 -166t156 -45h1302v1331h676zM2499 -207q0 -15 17 -22q22 -9 69 -9h456v-112h-483q-152 0 -196 35t-44 73q0 52 46 83q48 32 153 65l305 94h219l-381 -131q-48 -16 -125 -44q-36 -13 -36 -32z
" />
    <glyph glyph-name="Ugrave.connect" horiz-adv-x="3317" 
d="M3133 1243v-756q0 -129 -55 -226q-56 -98 -183 -161q-129 -64 -341 -95q-216 -32 -526 -32h-738q-310 0 -526 32q-212 31 -341 95q-127 63 -183 161t-56 226v1049h676v-1063q0 -153 80 -224t293 -71h852q213 0 293 71t80 224v838q0 111 92 168t235 57h678v-203h-239
q-40 0 -65 -25q-26 -26 -26 -65zM2077 1556l-1092 91v118l1092 -90v-119z" />
    <glyph glyph-name="Uacute.connect" horiz-adv-x="3317" 
d="M3133 1243v-756q0 -129 -55 -226q-56 -98 -183 -161q-129 -64 -341 -95q-216 -32 -526 -32h-738q-310 0 -526 32q-212 31 -341 95q-127 63 -183 161t-56 226v1049h676v-1063q0 -153 80 -224t293 -71h852q213 0 293 71t80 224v838q0 111 92 168t235 57h678v-203h-239
q-40 0 -65 -25q-26 -26 -26 -65zM1251 1556v119l1092 90v-118z" />
    <glyph glyph-name="Ucircumflex.connect" horiz-adv-x="3317" 
d="M3133 1243v-756q0 -129 -55 -226q-56 -98 -183 -161q-129 -64 -341 -95q-216 -32 -526 -32h-738q-310 0 -526 32q-212 31 -341 95q-127 63 -183 161t-56 226v1049h676v-1063q0 -153 80 -224t293 -71h852q213 0 293 71t80 224v838q0 111 92 168t235 57h678v-203h-239
q-40 0 -65 -25q-26 -26 -26 -65zM1659 1765l620 -90v-119l-620 91l-621 -91v119z" />
    <glyph glyph-name="Udieresis.connect" horiz-adv-x="3317" 
d="M3133 1243v-756q0 -129 -55 -226q-56 -98 -183 -161q-129 -64 -341 -95q-216 -32 -526 -32h-738q-310 0 -526 32q-212 31 -341 95q-127 63 -183 161t-56 226v1049h676v-1063q0 -153 80 -224t293 -71h852q213 0 293 71t80 224v838q0 111 92 168t235 57h678v-203h-239
q-40 0 -65 -25q-26 -26 -26 -65zM999 1683h598v-127h-598v127zM1718 1683h598v-127h-598v127z" />
    <glyph glyph-name="Utilde.connect" horiz-adv-x="3317" 
d="M3133 1243v-756q0 -129 -55 -226q-56 -98 -183 -161q-129 -64 -341 -95q-216 -32 -526 -32h-738q-310 0 -526 32q-212 31 -341 95q-127 63 -183 161t-56 226v1049h676v-1063q0 -153 80 -224t293 -71h852q213 0 293 71t80 224v838q0 111 92 168t235 57h678v-203h-239
q-40 0 -65 -25q-26 -26 -26 -65zM1841 1665l102 -11q27 -3 42 -3q26 0 37 11q12 12 12 32v30h120v-79q0 -63 -46 -94t-121 -31q-22 0 -52 3q-9 1 -42.5 4.5t-59.5 6.5l-356 45l-102 11q-27 3 -42 3q-27 0 -38 -11t-11 -32v-30h-121v79q0 63 46 94t122 31q36 0 66 -3
q18 -2 88 -11z" />
    <glyph glyph-name="Umacron.connect" horiz-adv-x="3317" 
d="M3133 1243v-756q0 -129 -55 -226q-56 -98 -183 -161q-129 -64 -341 -95q-216 -32 -526 -32h-738q-310 0 -526 32q-212 31 -341 95q-127 63 -183 161t-56 226v1049h676v-1063q0 -153 80 -224t293 -71h852q213 0 293 71t80 224v838q0 111 92 168t235 57h678v-203h-239
q-40 0 -65 -25q-26 -26 -26 -65zM2150 1556h-983v127h983v-127z" />
    <glyph glyph-name="Ubreve.connect" horiz-adv-x="3317" 
d="M3133 1243v-756q0 -129 -55 -226q-56 -98 -183 -161q-129 -64 -341 -95q-216 -32 -526 -32h-738q-310 0 -526 32q-212 31 -341 95q-127 63 -183 161t-56 226v1049h676v-1063q0 -153 80 -224t293 -71h852q213 0 293 71t80 224v838q0 111 92 168t235 57h678v-203h-239
q-40 0 -65 -25q-26 -26 -26 -65zM1661 1530q-205 0 -329 68q-127 69 -173 153h203q27 -33 94 -70q65 -36 207 -36t207 36q67 37 94 70h199q-46 -84 -173 -153q-124 -68 -329 -68z" />
    <glyph glyph-name="Uring.connect" horiz-adv-x="3317" 
d="M3133 1243v-756q0 -129 -55 -226q-56 -98 -183 -161q-129 -64 -341 -95q-216 -32 -526 -32h-738q-310 0 -526 32q-212 31 -341 95q-127 63 -183 161t-56 226v1049h676v-1063q0 -153 80 -224t293 -71h852q213 0 293 71t80 224v838q0 111 92 168t235 57h678v-203h-239
q-40 0 -65 -25q-26 -26 -26 -65zM1186 1681q0 73 72 110q73 38 245 38h309q174 0 245 -37q73 -38 73 -106q0 -71 -73 -109q-71 -37 -245 -37h-309q-173 0 -245 36t-72 105zM1999 1683q0 21 -42 33q-46 13 -192 13h-215q-146 0 -191 -13q-42 -12 -42 -33q0 -19 42 -31
t191 -12h215q150 0 192 12t42 31z" />
    <glyph glyph-name="Uhungarumlaut.connect" horiz-adv-x="3317" 
d="M3133 1243v-756q0 -129 -55 -226q-56 -98 -183 -161q-129 -64 -341 -95q-216 -32 -526 -32h-738q-310 0 -526 32q-212 31 -341 95q-127 63 -183 161t-56 226v1049h676v-1063q0 -153 80 -224t293 -71h852q213 0 293 71t80 224v838q0 111 92 168t235 57h678v-203h-239
q-40 0 -65 -25q-26 -26 -26 -65zM1872 1516v114l682 90v-114zM1135 1516v114l682 90v-114z" />
    <glyph glyph-name="Uogonek.connect" horiz-adv-x="3317" 
d="M3133 1243v-756q0 -129 -55 -226q-56 -98 -183 -161q-129 -64 -341 -95q-216 -32 -526 -32h-738q-310 0 -526 32q-212 31 -341 95q-127 63 -183 161t-56 226v1049h676v-1063q0 -153 80 -224t293 -71h852q213 0 293 71t80 224v838q0 111 92 168t235 57h678v-203h-239
q-40 0 -65 -25q-26 -26 -26 -65zM1444 -207q0 -15 17 -22q22 -9 69 -9h457v-112h-484q-151 0 -195 35t-44 73q0 52 46 83q49 33 152 65l305 94h220l-381 -131q-48 -16 -125 -44q-37 -13 -37 -32z" />
    <glyph glyph-name="Wcircumflex.alt1" horiz-adv-x="4536" 
d="M4516 1536l-608 -1106q-143 -261 -348 -359t-543 -98q-145 0 -282 18q-142 19 -241 57q-102 39 -166 105q-63 65 -63 156v928q0 41 -18 60q-18 20 -58 20t-61 -15q-19 -14 -37 -49l-422 -823q-70 -139 -141 -226q-75 -92 -166 -141q-93 -50 -223 -70q-132 -20 -314 -20
q-170 0 -308 21q-140 21 -234 61q-95 40 -149 103q-52 61 -52 143v1235h676v-1229q0 -55 20 -81q21 -27 66 -27q42 0 66 24t48 74l443 866q52 104 124 182q70 76 169 124q101 49 233 71q138 23 316 23q327 0 513 -84q185 -84 185 -314v-870q0 -43 20 -69q21 -27 60 -27
q45 0 70 26q26 28 53 80l655 1231h717zM2269 1868l621 -90v-119l-621 90l-620 -90v119z" />
    <glyph glyph-name="Wcircumflex.alt2" horiz-adv-x="4362" 
d="M2519 1536v-1331h983v1331h676v-1536h-3170q-426 0 -625 113t-199 327v1096h676v-1120q0 -121 47 -166t156 -45h780v1331h676zM2181 1868l621 -90v-119l-621 90l-620 -90v119z" />
    <glyph glyph-name="Yacute.alt1" horiz-adv-x="2951" 
d="M2154 315q-60 -96 -131 -158q-74 -65 -162 -98q-93 -35 -210 -47q-119 -12 -273 -12h-1300v205h829l-866 1331h707l774 -1257l737 1257h651zM1108 1597v119l1092 90v-118z" />
    <glyph glyph-name="Ycircumflex.alt1" horiz-adv-x="2951" 
d="M2154 315q-60 -96 -131 -158q-74 -65 -162 -98q-93 -35 -210 -47q-119 -12 -273 -12h-1300v205h829l-866 1331h707l774 -1257l737 1257h651zM1516 1806l620 -90v-119l-620 91l-621 -91v119z" />
    <glyph glyph-name="Ydieresis.alt1" horiz-adv-x="2951" 
d="M2154 315q-60 -96 -131 -158q-74 -65 -162 -98q-93 -35 -210 -47q-119 -12 -273 -12h-1300v205h829l-866 1331h707l774 -1257l737 1257h651zM856 1724h598v-127h-598v127zM1575 1724h598v-127h-598v127z" />
    <glyph glyph-name="Yacute.alt2" horiz-adv-x="2670" 
d="M98 0v205h1319l-1376 1331h803l1151 -1141v1141h491v-987q0 -126 -26 -224q-27 -102 -89 -173t-165 -112q-101 -40 -252 -40h-1856zM1100 1597v119l1091 90v-118z" />
    <glyph glyph-name="Ycircumflex.alt2" horiz-adv-x="2670" 
d="M98 0v205h1319l-1376 1331h803l1151 -1141v1141h491v-987q0 -126 -26 -224q-27 -102 -89 -173t-165 -112q-101 -40 -252 -40h-1856zM1507 1806l621 -90v-119l-621 91l-620 -91v119z" />
    <glyph glyph-name="Ydieresis.alt2" horiz-adv-x="2670" 
d="M98 0v205h1319l-1376 1331h803l1151 -1141v1141h491v-987q0 -126 -26 -224q-27 -102 -89 -173t-165 -112q-101 -40 -252 -40h-1856zM848 1724h598v-127h-598v127zM1567 1724h598v-127h-598v127z" />
    </font>
</defs>
</svg>
